<?xml version="1.0" encoding="UTF-8"?>
<!-- Generated by Pixelmator Pro 3.4 -->
<svg width="256" height="225" viewBox="0 0 256 225" xmlns="http://www.w3.org/2000/svg">
    <g id="Group">
        <path id="Path" fill="#000000" stroke="none" d="M 228.747345 65.587845 C 228.228867 65.036957 227.677979 64.486084 227.12709 63.96759 C 226.576202 63.449112 226.057724 62.865814 225.506836 62.347351 C 224.955948 61.828857 224.437469 61.245575 223.886581 60.727081 C 223.335693 60.208603 222.817215 59.62532 222.266327 59.106842 C 221.715439 58.588348 221.19696 58.005066 220.646072 57.486588 C 220.095184 56.968109 219.576706 56.384811 219.025818 55.866333 C 218.47493 55.347839 217.956451 54.764557 217.405563 54.246078 C 233.479004 70.042633 242.687164 91.532211 243.037979 114.065826 C 243.037979 167.761017 188.532654 211.443039 121.51899 211.443039 C 83.993927 211.443039 50.422279 197.735703 28.09519 176.251144 L 29.715443 177.871399 L 31.335695 179.491653 L 32.955948 181.111893 L 34.576202 182.732147 L 36.196457 184.352402 L 37.816708 185.972656 L 39.436962 187.592911 C 61.731647 209.984818 96.048607 224.40506 134.481018 224.40506 C 201.49469 224.40506 256 180.723038 256 127.189873 C 256 104.311897 246.148865 82.632904 228.747345 65.587845 Z"/>
        <g id="g1">
            <path id="path1" fill="#fbf0df" stroke="none" d="M 234.936707 114.065826 C 234.936707 163.353928 184.157974 203.309372 121.51899 203.309372 C 58.880001 203.309372 8.101266 163.353928 8.101266 114.065826 C 8.101266 83.507843 27.544304 56.514435 57.421772 40.506332 C 87.29924 24.49823 105.89975 8.101273 121.51899 8.101273 C 137.138229 8.101273 150.48912 21.484558 185.616196 40.506332 C 215.493668 56.514435 234.936707 83.507843 234.936707 114.065826 Z"/>
            <path id="path2" fill="#f6dece" stroke="none" d="M 234.936707 114.065826 C 234.920944 107.734123 234.048904 101.433647 232.344299 95.335693 C 223.497726 203.244553 91.868355 208.429367 40.11747 176.153931 C 63.381157 194.185318 92.088982 203.762207 121.51899 203.309372 C 184.06076 203.309372 234.936707 163.289108 234.936707 114.065826 Z"/>
            <path id="path3" fill="#fffefc" stroke="none" d="M 77.86937 34.576202 C 92.354431 25.891647 111.603035 9.591904 130.527588 9.559494 C 127.61628 8.618454 124.578514 8.126724 121.51899 8.101273 C 113.676964 8.101273 105.31646 12.151901 94.784813 18.244049 C 91.123039 20.382782 87.331642 22.748352 83.313416 25.211136 C 75.763039 29.877472 67.110886 35.159485 57.389366 40.441528 C 26.539747 57.130127 8.101266 84.642029 8.101266 114.065826 C 8.101266 115.362022 8.101266 116.658226 8.101266 117.922028 C 27.738733 48.542786 63.41671 43.260757 77.86937 34.576202 Z"/>
            <path id="path4" fill="#ccbea7" stroke="none" d="M 112.186333 16.299744 C 112.278053 31.783173 105.616661 46.537628 93.942276 56.708862 C 93.034935 57.518982 93.747849 59.074432 94.914429 58.620758 C 105.834938 54.375702 120.579239 41.672913 114.357468 16.040512 C 114.098228 14.582275 112.186333 14.971146 112.186333 16.299744 Z M 119.542274 16.299744 C 127.566116 29.391708 129.471756 45.335129 124.759491 59.949371 C 124.370636 61.083542 125.764053 62.055695 126.541771 61.115952 C 133.638474 52.042526 139.82785 34.025314 121.292152 14.582275 C 120.352402 13.739746 118.89418 15.03595 119.542274 16.17012 L 119.542274 16.299744 Z M 128.486069 15.748856 C 141.049026 24.642975 149.144791 38.541687 150.683548 53.857208 C 150.615387 54.423798 151.00415 54.944077 151.566818 55.039307 C 152.129501 55.134521 152.667801 54.771133 152.789871 54.213669 C 155.771133 42.904297 154.086075 23.623291 129.55545 13.610123 C 128.259247 13.091644 127.41671 14.841522 128.486069 15.619247 L 128.486069 15.748856 Z M 68.666328 49.450134 C 83.603981 44.987488 95.939552 34.38385 102.594429 20.285568 C 103.177719 19.118988 105.024811 19.572662 104.733162 20.868866 C 99.12709 46.792908 80.364555 52.204559 68.69873 51.491638 C 67.467339 51.524048 67.499748 49.80658 68.666328 49.450134 Z"/>
            <path id="path5" fill="#000000" stroke="none" d="M 121.51899 211.443039 C 54.505318 211.443039 0 167.761017 0 114.065826 C 0 81.660767 20.026329 51.426834 53.565571 33.312408 C 63.28709 28.127594 71.615189 22.910385 79.03595 18.341263 C 83.118988 15.813675 86.975189 13.448105 90.701775 11.244553 C 102.075951 4.504303 111.79747 0 121.51899 0 C 131.240509 0 139.730637 3.888611 150.359497 10.175186 C 153.600006 12.022278 156.8405 14.031387 160.307846 16.23494 C 168.376709 21.225311 177.482529 26.8638 189.472412 33.312408 C 223.011642 51.426834 243.037979 81.628357 243.037979 114.065826 C 243.037979 167.761017 188.532654 211.443039 121.51899 211.443039 Z M 121.51899 8.101273 C 113.676964 8.101273 105.31646 12.151901 94.784813 18.244049 C 91.123039 20.382782 87.331642 22.748352 83.313416 25.211136 C 75.763039 29.877472 67.110886 35.159485 57.389366 40.441528 C 26.539747 57.130127 8.101266 84.642029 8.101266 114.065826 C 8.101266 163.289108 58.977215 203.341766 121.51899 203.341766 C 184.06076 203.341766 234.936707 163.289108 234.936707 114.065826 C 234.936707 84.642029 216.49823 57.130127 185.616196 40.506332 C 173.367096 34.025314 163.807602 27.933167 156.06279 23.137207 C 152.53064 20.96608 149.290131 18.95697 146.341263 17.174683 C 136.522537 11.341766 129.361008 8.101273 121.51899 8.101273 Z"/>
        </g>
        <g id="g2">
            <path id="path6" fill="#b71422" stroke="none" d="M 144.364563 137.721527 C 142.908829 143.683807 139.595123 149.02887 134.902283 152.984314 C 131.379074 156.399628 126.818077 158.543304 121.940254 159.076447 C 116.915894 158.627792 112.194862 156.47876 108.556961 152.984314 C 103.912056 149.010162 100.644989 143.667145 99.224304 137.721527 C 99.128891 137.006195 99.369865 136.286987 99.876976 135.773529 C 100.384087 135.260071 101.10025 135.010193 101.816711 135.09671 L 141.80455 135.09671 C 142.515732 135.021057 143.222321 135.275742 143.721664 135.787735 C 144.221024 136.299728 144.457962 137.012451 144.364563 137.721527 L 144.364563 137.721527 Z"/>
            <path id="path7" fill="#ff6164" stroke="none" d="M 108.556961 153.243546 C 112.187454 156.740021 116.891426 158.909332 121.907845 159.400513 C 126.912842 158.902252 131.604324 156.733429 135.226334 153.243546 C 136.384933 152.163635 137.467667 151.005112 138.466843 149.776215 C 134.432114 145.198944 128.686737 142.490417 122.588356 142.290634 C 116.034561 142.445831 109.976257 145.814255 106.385826 151.29924 C 107.131142 151.979752 107.779243 152.627838 108.556961 153.243546 Z"/>
            <path id="path8" fill="#000000" stroke="none" d="M 109.075439 150.683548 C 112.330421 146.476166 117.333908 143.99234 122.653168 143.943298 C 127.506042 144.086426 132.129791 146.039948 135.615189 149.419739 C 136.360504 148.609619 137.073425 147.76709 137.753922 146.924561 C 133.631393 142.998413 128.183289 140.765961 122.491142 140.67038 C 116.33168 140.723495 110.518852 143.52887 106.645065 148.317978 C 107.411247 149.150421 108.222595 149.94014 109.075439 150.683548 L 109.075439 150.683548 Z"/>
            <path id="path9" fill="#000000" stroke="none" d="M 121.810631 161.020752 C 116.410759 160.547623 111.329185 158.263763 107.390381 154.539749 C 102.37426 150.29715 98.843544 144.563995 97.312408 138.175201 C 97.090027 137.023224 97.399628 135.832443 98.154938 134.934692 C 99.054878 133.847961 100.406418 133.237976 101.816711 133.282028 L 141.80455 133.282028 C 143.211945 133.25238 144.557495 133.85968 145.466324 134.934692 C 146.214447 135.835785 146.512512 137.028046 146.276459 138.175201 L 146.276459 138.175201 C 144.745316 144.563995 141.2146 150.29715 136.198486 154.539749 C 132.268188 158.257141 127.199104 160.540512 121.810631 161.020752 L 121.810631 161.020752 Z M 101.816711 137.041016 C 101.298225 137.041016 101.16861 137.267853 101.1362 137.332657 C 102.505997 142.872864 105.604584 147.832855 109.982788 151.493683 C 113.18428 154.647797 117.34671 156.643494 121.810631 157.164551 C 126.263031 156.649384 130.420807 154.678711 133.638489 151.558472 C 138.002975 147.891479 141.089508 142.932587 142.452652 137.397461 C 142.308578 137.186203 142.058228 137.073547 141.80455 137.10582 L 101.816711 137.041016 Z"/>
        </g>
        <g id="g3">
            <path id="path10" fill="#febbd0" stroke="none" d="M 189.796448 128.583282 C 189.796448 134.739807 181.309143 139.730637 170.839493 139.730637 C 160.369858 139.730637 151.882538 134.739807 151.882538 128.583282 C 151.882538 122.426788 160.369858 117.435951 170.839493 117.435951 C 181.309143 117.435951 189.796448 122.426788 189.796448 128.583282 Z"/>
            <path id="path11" fill="#febbd0" stroke="none" d="M 91.706329 128.583282 C 91.706329 134.739807 83.219009 139.730637 72.749367 139.730637 C 62.279724 139.730637 53.792404 134.739807 53.792404 128.583282 C 53.792404 122.426788 62.279724 117.435951 72.749367 117.435951 C 83.219009 117.435951 91.706329 122.426788 91.706329 128.583282 Z"/>
            <path id="path12" fill="#000000" stroke="none" d="M 81.660759 124.111427 C 88.885445 124.124504 95.406036 119.782555 98.179893 113.111572 C 100.953751 106.440598 99.434143 98.755447 94.330154 93.642181 C 89.226166 88.528915 81.543793 86.995346 74.867783 89.75708 C 68.19178 92.518814 63.837975 99.031509 63.837975 106.256203 C 63.837975 116.104713 71.812271 124.093521 81.660759 124.111427 L 81.660759 124.111427 Z M 161.928101 124.111397 C 169.161423 124.16391 175.711746 119.847076 178.516281 113.179382 C 181.320801 106.511681 179.825348 98.810684 174.729156 93.677231 C 169.632965 88.543762 161.943069 86.992249 155.255112 89.748123 C 148.567154 92.503998 144.202499 99.022697 144.202499 106.256203 C 144.18454 116.074257 152.110184 124.057861 161.928101 124.111397 L 161.928101 124.111397 Z"/>
            <path id="path13" fill="#ffffff" stroke="none" d="M 76.151901 107.390457 C 78.867882 107.403503 81.32373 105.777534 82.3722 103.272049 C 83.420662 100.766563 82.854797 97.876099 80.938942 95.950943 C 79.023087 94.025787 76.135391 93.445923 73.624863 94.482254 C 71.114334 95.51857 69.476456 97.966522 69.476456 100.682533 C 69.476456 104.374557 72.459915 107.372543 76.151901 107.390457 Z M 156.41925 107.390457 C 159.135223 107.403503 161.59108 105.777534 162.639542 103.272049 C 163.688004 100.766563 163.122147 97.876099 161.206284 95.950943 C 159.290421 94.025787 156.40274 93.445923 153.892212 94.482254 C 151.381668 95.51857 149.743805 97.966522 149.743805 100.682533 C 149.743408 104.349541 152.687805 107.337234 156.354431 107.390457 L 156.41925 107.390457 Z"/>
        </g>
    </g>
</svg>
