<svg width="200" height="200" viewBox="0 0 200 200" fill="none" xmlns="http://www.w3.org/2000/svg">
<rect width="200" height="200" fill="white"/>
<g clip-path="url(#clip0_1_2138)">
<path fill-rule="evenodd" clip-rule="evenodd" d="M23.473 199.993H12.0551V173.708H23.473C31.6992 173.708 35.8177 177.85 35.8177 186.134C35.8177 195.368 31.6992 199.993 23.473 199.993ZM16.9375 195.762H22.7356C28.2014 195.762 30.9309 192.553 30.9309 186.129C30.9309 180.661 28.2014 177.927 22.7356 177.927H16.9375V195.762ZM40.9335 199.993H35.9212L47.1014 173.708H52.3493L63.7738 199.993H58.5216L55.2065 192.823H46.769L48.4464 188.599H53.9188L49.6065 178.724L40.9335 199.993ZM61.0134 173.708H81.001V177.934H73.4484V199.993H68.5682V177.934H61.0112L61.0134 173.708ZM83.5104 199.993H78.4981L89.6806 173.708H94.9284L106.351 199.993H101.099L97.7834 192.823H89.346L91.0189 188.599H96.4913L92.179 178.724L83.5104 199.993ZM121.007 199.993H109.589V173.708H121.007C129.237 173.708 133.352 177.85 133.352 186.134C133.352 195.368 129.237 199.993 121.007 199.993ZM114.469 195.762H120.272C125.733 195.762 128.469 192.553 128.469 186.129C128.469 180.661 125.733 177.927 120.272 177.927H114.469V195.762ZM136.656 186.887C136.656 177.974 141.069 173.518 149.885 173.518C158.567 173.518 162.906 177.974 162.906 186.887C162.906 195.747 158.567 200.182 149.885 200.182C141.459 200.18 137.054 195.747 136.656 186.887ZM149.885 195.945C155.188 195.945 157.841 192.889 157.841 186.774C157.841 180.754 155.188 177.74 149.885 177.74C144.444 177.74 141.725 180.754 141.725 186.774C141.727 192.889 144.446 195.945 149.885 195.945ZM183.274 189.356V195.509C182.147 195.804 181.137 195.947 180.254 195.947C174.282 195.947 171.301 192.793 171.301 186.482C171.301 180.655 174.467 177.743 180.787 177.743C183.428 177.743 185.883 178.233 188.154 179.215V174.802C185.885 173.945 183.307 173.514 180.419 173.514C170.965 173.514 166.234 177.833 166.234 186.479C166.234 195.606 170.883 200.178 180.179 200.178C183.378 200.178 186.034 199.711 188.156 198.778V185.027H180.274L178.625 189.352H183.274V189.356Z" fill="#632CA6"/>
<path fill-rule="evenodd" clip-rule="evenodd" d="M144.158 123.006L132.539 115.341L122.847 131.532L111.574 128.236L101.649 143.386L102.157 148.154L156.126 138.208L152.991 104.487L144.158 123.006ZM93.83 108.469L102.49 107.278C103.89 107.908 104.865 108.148 106.545 108.575C109.162 109.255 112.189 109.909 116.673 107.65C117.716 107.133 119.891 105.145 120.769 104.012L156.245 97.5772L159.864 141.378L99.0844 152.332L93.83 108.469ZM159.727 92.686L156.225 93.353C156.225 93.353 165.909 45.6264 149.498 23.8458C122.379 -12.1472 62.7348 1.72053 34.8669 37.137C6.9819 72.5752 3.91304 152.957 48.9902 151.739C54.2836 151.596 62.4091 149.791 62.4091 149.791C61.3371 148.261 59.6685 146.41 56.8201 144.042C52.8688 140.759 54.2644 135.181 56.5978 131.659C59.6817 125.709 75.5727 118.148 74.6724 108.639C74.3488 105.18 73.8007 100.681 70.589 97.5948C70.468 98.876 70.6859 100.106 70.6859 100.106C70.6859 100.106 69.3673 98.4247 68.7113 96.1332C68.0598 95.2527 67.5469 94.9731 66.8535 93.7977C66.3582 95.1558 66.4242 96.7319 66.4242 96.7319C66.4242 96.7319 65.3456 94.1851 65.1717 92.0344C64.5333 92.9964 64.3727 94.8235 64.3727 94.8235C64.3727 94.8235 62.9726 90.8083 63.2918 88.6445C62.6535 86.7624 60.7582 83.0269 61.2931 74.5388C64.7909 76.9888 72.4931 76.4076 75.4934 71.9853C76.4884 70.5193 77.173 66.5218 74.996 58.6412C73.5982 53.5893 70.1378 46.0654 68.7884 43.2103L68.6277 43.327C69.3387 45.6273 70.8048 50.4459 71.3683 52.7859C73.0721 59.8739 73.5277 62.3438 72.7287 65.6126C72.0485 68.4545 70.4173 70.3123 66.2833 72.3903C62.1494 74.4749 56.6616 69.401 56.316 69.1215C52.2987 65.9208 49.1905 60.7016 48.8449 58.1636C48.4839 55.3878 50.4452 53.7214 51.4336 51.4519C50.0182 51.8547 48.4421 52.5745 48.4421 52.5745C48.4421 52.5745 50.3242 50.6264 52.6443 48.9424C53.6062 48.3063 54.1698 47.9012 55.1824 47.0604C53.7163 47.0361 52.5254 47.078 52.5254 47.078C52.5254 47.078 54.971 45.7572 57.5047 44.7953C55.6512 44.7138 53.8748 44.782 53.8748 44.782C53.8748 44.782 59.3317 42.3408 63.6396 40.5512C66.6025 39.3361 69.4972 39.6949 71.1239 42.0481C73.2592 45.1298 75.5023 46.8028 80.2548 47.8396C83.1737 46.5453 84.0586 45.8827 87.7259 44.8811C90.9529 41.3305 93.4866 40.8726 93.4866 40.8726C93.4866 40.8726 92.2297 42.0261 91.8929 43.8377C93.7221 42.3959 95.7275 41.1918 95.7275 41.1918C95.7275 41.1918 94.9504 42.1493 94.2262 43.6726L94.3935 43.9236C96.5288 42.6424 99.0382 41.6342 99.0382 41.6342C99.0382 41.6342 98.3206 42.5412 97.4797 43.7144C99.091 43.7012 102.356 43.7827 103.623 43.9258C111.106 44.0908 112.657 35.9374 115.528 34.9138C119.123 33.6304 120.729 32.8534 126.856 38.8716C132.11 44.0402 136.218 53.2855 134.177 55.3569C132.467 57.0761 129.094 54.6855 125.357 50.0277C123.382 47.56 121.887 44.6434 121.187 40.9364C120.597 37.8084 118.299 35.9946 118.299 35.9946C118.299 35.9946 119.631 38.9663 119.631 41.5836C119.631 43.0144 119.809 48.3613 122.103 51.3638C121.876 51.8019 121.771 53.5343 121.52 53.8667C118.852 50.6418 113.122 48.3349 112.186 47.6547C115.35 50.2456 122.618 56.1978 125.409 61.9057C128.051 67.301 126.495 72.2473 127.831 73.5262C128.212 73.8916 133.51 80.4954 134.529 83.8127C136.308 89.5932 134.635 95.6709 132.308 99.4395L125.808 100.452C124.857 100.188 124.216 100.056 123.364 99.5628C123.835 98.7307 124.769 96.6571 124.778 96.2279L124.41 95.5851C122.387 98.4511 118.999 101.234 116.184 102.832C112.499 104.921 108.253 104.597 105.488 103.743C97.6426 101.324 90.2221 96.0209 88.4325 94.6275C88.4325 94.6275 88.3775 95.7392 88.7143 95.9901C90.691 98.2222 95.2234 102.257 99.6061 105.073L90.2661 106.101L94.6819 140.478C92.725 140.757 92.419 140.896 90.2772 141.2C88.3885 134.528 84.7762 130.171 80.8271 127.633C77.3447 125.395 72.5415 124.891 67.9453 125.802L67.6503 126.145C70.8466 125.813 74.6195 126.275 78.496 128.73C82.2998 131.136 85.3661 137.35 86.4954 141.09C87.9416 145.871 88.941 150.987 85.0491 156.408C82.2822 160.263 74.2035 162.391 67.6746 157.784C69.418 160.589 71.7733 162.88 74.9475 163.311C79.6582 163.952 84.129 163.133 87.2064 159.974C89.8325 157.273 91.2281 151.625 90.8605 145.677L95.0187 145.074L96.5199 155.75L165.343 147.462L159.727 92.686ZM117.855 63.6931C117.663 64.1312 117.359 64.4196 117.813 65.846L117.839 65.9274L117.912 66.1123L118.101 66.5394C118.918 68.2101 119.814 69.784 121.315 70.5897C121.702 70.5237 122.105 70.4796 122.521 70.4598C123.93 70.3982 124.819 70.6205 125.381 70.9243C125.431 70.6425 125.442 70.2331 125.412 69.6278C125.302 67.5123 125.83 63.9155 121.764 62.0224C120.23 61.3114 118.077 61.5293 117.359 62.4186C117.489 62.4362 117.606 62.4626 117.698 62.4934C118.786 62.8699 118.051 63.2441 117.855 63.6931ZM129.253 83.4297C128.72 83.1347 126.228 83.2514 124.476 83.4605C121.139 83.8545 117.535 85.0102 116.747 85.6266C115.312 86.736 115.964 88.6687 117.025 89.4634C119.999 91.6844 122.605 93.1747 125.354 92.8115C127.043 92.5892 128.533 89.9146 129.587 87.4888C130.309 85.8181 130.309 84.0152 129.253 83.4297ZM99.7096 66.3104C100.65 65.4167 95.0231 64.2434 90.6558 67.2218C87.4353 69.4186 87.3319 74.1293 90.4158 76.7995C90.724 77.0636 90.9794 77.2507 91.2149 77.4048C92.1152 76.98 93.141 76.5529 94.3231 76.1699C96.3174 75.5227 97.9772 75.1882 99.3398 75.0099C99.9913 74.2812 100.751 72.9979 100.561 70.6733C100.302 67.5189 97.9156 68.0186 99.7096 66.3104Z" fill="#632CA6"/>
</g>
<defs>
<clipPath id="clip0_1_2138">
<rect width="176.211" height="200" fill="white" transform="translate(12)"/>
</clipPath>
</defs>
</svg>
