<svg width="200" height="200" viewBox="0 0 200 200" fill="none" xmlns="http://www.w3.org/2000/svg">
<path d="M90.4354 66.6287C94.8258 63.6138 100.482 64.7989 99.5354 65.7075C97.7308 67.44 100.132 66.9278 100.391 70.1248C100.581 72.4795 99.8182 73.776 99.1616 74.5139C97.791 74.6944 96.125 75.0316 94.1188 75.6891C92.9316 76.0785 91.8998 76.5102 90.9954 76.9447C90.7574 76.7881 90.4984 76.5962 90.1918 76.3296C87.095 73.6236 87.1986 68.8522 90.4354 66.6287ZM116.66 85.2672C117.457 84.645 121.077 83.4726 124.429 83.0734C126.189 82.8646 128.697 82.7432 129.232 83.0451C130.295 83.6363 130.295 85.4661 129.567 87.1563C128.507 89.6111 127.009 92.3242 125.312 92.5471C122.544 92.9153 119.928 91.4057 116.94 89.1568C115.873 88.3484 115.218 86.3902 116.66 85.2672ZM121.71 61.3607C125.797 63.2766 125.262 66.9222 125.375 69.0638C125.406 69.679 125.396 70.0937 125.344 70.3787C124.779 70.0698 123.884 69.8426 122.466 69.9061C122.052 69.923 121.648 69.9724 121.258 70.0345C119.75 69.2204 118.848 67.6276 118.024 65.9346C117.948 65.778 117.889 65.6383 117.833 65.5029C117.81 65.4408 117.784 65.3745 117.761 65.3181C117.751 65.287 117.744 65.2631 117.733 65.2348C117.28 63.7887 117.584 63.4995 117.775 63.0537C117.972 62.598 118.71 62.2227 117.619 61.8432C117.525 61.8079 117.409 61.7882 117.278 61.7628C118 60.8599 120.163 60.6412 121.71 61.3607ZM99.4318 104.948C95.0288 102.1 90.4732 98.014 88.481 95.7525C88.1464 95.4985 88.201 94.3713 88.201 94.3713C89.9986 95.7793 97.4564 101.149 105.343 103.601C108.124 104.467 112.393 104.794 116.096 102.68C118.925 101.063 122.332 98.2454 124.364 95.3419L124.737 95.9923C124.723 96.424 123.788 98.5276 123.312 99.3726C124.171 99.8707 124.812 100.006 125.769 100.27L132.298 99.2443C134.642 95.4294 136.322 89.2768 134.531 83.4204C133.509 80.0612 128.181 73.3725 127.799 73.0043C126.46 71.7077 128.023 66.6993 125.37 61.2352C122.565 55.455 115.259 49.4279 112.085 46.8052C113.02 47.4937 118.78 49.8343 121.465 53.1003C121.717 52.7631 121.821 51.0095 122.052 50.5651C119.746 47.5219 119.567 42.1071 119.567 40.6596C119.567 38.0059 118.228 34.998 118.228 34.998C118.228 34.998 120.534 36.8377 121.13 40.0064C121.835 43.7592 123.335 46.7149 125.321 49.2163C129.078 53.9327 132.472 56.3523 134.187 54.6099C136.239 52.5162 132.105 43.1512 126.824 37.924C120.66 31.8236 119.049 32.6095 115.432 33.9102C112.547 34.9472 110.987 43.2034 103.467 43.0397C102.193 42.8902 98.911 42.8097 97.2884 42.8238C98.134 41.6345 98.8592 40.7161 98.8592 40.7161C98.8592 40.7161 96.3364 41.7389 94.186 43.0355L94.0208 42.7858C94.746 41.2451 95.5258 40.2717 95.5258 40.2717C95.5258 40.2717 93.5098 41.492 91.6702 42.9536C92.0048 41.1167 93.2718 39.9528 93.2718 39.9528C93.2718 39.9528 90.7252 40.4156 87.4814 44.0118C83.7952 45.0276 82.909 45.6949 79.9718 47.0055C75.195 45.9559 72.9424 44.2615 70.7948 41.1421C69.1596 38.7593 66.249 38.3981 63.2754 39.6297C58.9396 41.4356 53.4558 43.9088 53.4558 43.9088C53.4558 43.9088 55.2436 43.8354 57.107 43.9158C54.5562 44.8893 52.1062 46.2282 52.1062 46.2282C52.1062 46.2282 53.3004 46.1859 54.7746 46.2112C53.7568 47.0634 53.194 47.4697 52.2238 48.1173C49.8914 49.8244 48 51.7967 48 51.7967C48 51.7967 49.5834 51.0701 51.0058 50.6624C50.0118 52.9578 48.0406 54.648 48.4032 57.4584C48.7518 60.0247 51.878 65.311 55.9128 68.5559C56.2614 68.8381 61.7732 73.9777 65.9312 71.8671C70.0864 69.7594 71.7258 67.8816 72.409 65.0021C73.2126 61.6951 72.7548 59.1937 71.0384 52.0154C70.4728 49.6466 68.9986 44.768 68.2874 42.4345L68.4456 42.3202C69.805 45.211 73.284 52.8308 74.6854 57.9493C76.8736 65.9304 76.1904 69.9795 75.1894 71.4637C72.1696 75.9402 64.4318 76.5313 60.9122 74.0511C60.3732 82.6445 62.2786 86.4283 62.924 88.3343C62.6034 90.5253 64.0118 94.5942 64.0118 94.5942C64.0118 94.5942 64.17 92.7446 64.8154 91.7697C64.9876 93.9438 66.0754 96.527 66.0754 96.527C66.0754 96.527 66.0096 94.9314 66.5038 93.553C67.201 94.7423 67.712 95.0245 68.3714 95.9175C69.0308 98.2412 70.3524 99.9384 70.3524 99.9384C70.3524 99.9384 70.1382 98.6926 70.2558 97.3961C73.4828 100.52 74.0386 105.078 74.3592 108.581C75.2636 118.211 59.291 125.869 56.1956 131.894C53.8492 135.462 52.4436 141.106 56.4168 144.434C66.0208 152.472 62.3318 154.684 67.1394 158.217C73.7348 163.062 81.9864 160.892 84.7948 156.951C88.705 151.46 87.7012 146.281 86.248 141.436C85.1126 137.648 82.027 131.355 78.2106 128.92C74.3102 126.43 70.5176 125.964 67.3046 126.297L67.6014 125.953C72.2228 125.027 77.0542 125.535 80.55 127.806C84.519 130.377 88.1492 134.786 90.0476 141.544C92.2008 141.235 92.5046 141.095 94.4758 140.813L90.0378 105.999L99.4318 104.948ZM101.997 148.585L101.486 143.757L111.466 128.416L122.796 131.751L132.539 115.353L144.218 123.117L153.091 104.364L156.245 138.516L101.997 148.585ZM156.363 97.3707L120.702 103.884C119.819 105.031 117.635 107.046 116.585 107.571C112.081 109.857 109.037 109.195 106.407 108.506C104.715 108.075 103.735 107.832 102.331 107.196L93.6274 108.399L98.911 152.822L160 141.724L156.363 97.3707Z" fill="white"/>
<g clip-path="url(#clip0_1_2138)">
<path fill-rule="evenodd" clip-rule="evenodd" d="M23.473 199.993H12.0551V173.708H23.473C31.6992 173.708 35.8177 177.85 35.8177 186.134C35.8177 195.368 31.6992 199.993 23.473 199.993ZM16.9375 195.762H22.7356C28.2014 195.762 30.9309 192.553 30.9309 186.129C30.9309 180.661 28.2014 177.927 22.7356 177.927H16.9375V195.762ZM40.9335 199.993H35.9212L47.1014 173.708H52.3493L63.7738 199.993H58.5216L55.2065 192.823H46.769L48.4464 188.599H53.9188L49.6065 178.724L40.9335 199.993ZM61.0134 173.708H81.001V177.934H73.4484V199.993H68.5682V177.934H61.0112L61.0134 173.708ZM83.5104 199.993H78.4981L89.6805 173.708H94.9284L106.351 199.993H101.099L97.7834 192.823H89.346L91.0189 188.599H96.4913L92.179 178.724L83.5104 199.993ZM121.007 199.993H109.589V173.708H121.007C129.237 173.708 133.352 177.85 133.352 186.134C133.352 195.368 129.237 199.993 121.007 199.993ZM114.469 195.762H120.272C125.733 195.762 128.469 192.553 128.469 186.129C128.469 180.661 125.733 177.927 120.272 177.927H114.469V195.762ZM136.656 186.887C136.656 177.974 141.069 173.518 149.885 173.518C158.567 173.518 162.906 177.974 162.906 186.887C162.906 195.747 158.567 200.182 149.885 200.182C141.459 200.18 137.054 195.747 136.656 186.887ZM149.885 195.945C155.188 195.945 157.841 192.889 157.841 186.774C157.841 180.754 155.188 177.74 149.885 177.74C144.444 177.74 141.725 180.754 141.725 186.774C141.727 192.889 144.446 195.945 149.885 195.945ZM183.274 189.356V195.509C182.147 195.804 181.137 195.947 180.254 195.947C174.282 195.947 171.301 192.793 171.301 186.482C171.301 180.655 174.467 177.743 180.787 177.743C183.428 177.743 185.883 178.233 188.154 179.215V174.802C185.885 173.945 183.307 173.514 180.419 173.514C170.965 173.514 166.234 177.833 166.234 186.479C166.234 195.606 170.883 200.178 180.179 200.178C183.378 200.178 186.034 199.711 188.156 198.778V185.027H180.274L178.625 189.352H183.274V189.356Z" fill="#632CA6"/>
<path fill-rule="evenodd" clip-rule="evenodd" d="M144.158 123.006L132.539 115.341L122.847 131.532L111.574 128.236L101.649 143.386L102.157 148.154L156.126 138.208L152.991 104.487L144.158 123.006ZM93.83 108.469L102.49 107.278C103.89 107.908 104.865 108.148 106.545 108.575C109.162 109.255 112.189 109.909 116.673 107.65C117.716 107.133 119.891 105.145 120.769 104.012L156.245 97.5772L159.864 141.378L99.0844 152.332L93.83 108.469ZM159.727 92.686L156.225 93.353C156.225 93.353 165.909 45.6264 149.498 23.8458C122.379 -12.1472 62.7348 1.72053 34.8669 37.137C6.9819 72.5752 3.91304 152.957 48.9902 151.739C54.2836 151.596 62.4091 149.791 62.4091 149.791C61.3371 148.261 59.6685 146.41 56.8201 144.042C52.8688 140.759 54.2644 135.181 56.5978 131.659C59.6817 125.709 75.5727 118.148 74.6724 108.639C74.3488 105.18 73.8007 100.681 70.589 97.5948C70.468 98.876 70.6859 100.106 70.6859 100.106C70.6859 100.106 69.3673 98.4247 68.7113 96.1332C68.0598 95.2527 67.5469 94.9731 66.8535 93.7977C66.3582 95.1558 66.4242 96.7319 66.4242 96.7319C66.4242 96.7319 65.3456 94.1851 65.1717 92.0344C64.5333 92.9964 64.3727 94.8235 64.3727 94.8235C64.3727 94.8235 62.9726 90.8083 63.2918 88.6445C62.6535 86.7624 60.7582 83.0269 61.2931 74.5388C64.7909 76.9888 72.4931 76.4076 75.4934 71.9853C76.4884 70.5193 77.173 66.5218 74.996 58.6412C73.5982 53.5893 70.1378 46.0654 68.7884 43.2103L68.6277 43.327C69.3387 45.6273 70.8048 50.4459 71.3683 52.7859C73.0721 59.8739 73.5277 62.3438 72.7287 65.6126C72.0485 68.4545 70.4173 70.3123 66.2833 72.3903C62.1494 74.4749 56.6616 69.401 56.316 69.1215C52.2987 65.9208 49.1905 60.7016 48.8449 58.1636C48.4839 55.3878 50.4452 53.7214 51.4336 51.4519C50.0182 51.8547 48.4421 52.5745 48.4421 52.5745C48.4421 52.5745 50.3242 50.6264 52.6443 48.9424C53.6063 48.3063 54.1698 47.9012 55.1824 47.0604C53.7163 47.0361 52.5254 47.078 52.5254 47.078C52.5254 47.078 54.971 45.7572 57.5047 44.7953C55.6512 44.7138 53.8748 44.782 53.8748 44.782C53.8748 44.782 59.3317 42.3408 63.6396 40.5512C66.6025 39.3361 69.4972 39.6949 71.1239 42.0481C73.2592 45.1298 75.5023 46.8028 80.2548 47.8396C83.1737 46.5453 84.0586 45.8827 87.7259 44.8811C90.9529 41.3305 93.4866 40.8726 93.4866 40.8726C93.4866 40.8726 92.2297 42.0261 91.8929 43.8377C93.7221 42.3959 95.7275 41.1918 95.7275 41.1918C95.7275 41.1918 94.9504 42.1493 94.2262 43.6726L94.3935 43.9236C96.5287 42.6424 99.0382 41.6342 99.0382 41.6342C99.0382 41.6342 98.3206 42.5412 97.4797 43.7144C99.091 43.7012 102.356 43.7827 103.623 43.9258C111.106 44.0909 112.657 35.9374 115.528 34.9138C119.123 33.6304 120.729 32.8534 126.856 38.8716C132.11 44.0402 136.218 53.2855 134.177 55.3569C132.467 57.0761 129.094 54.6855 125.357 50.0277C123.382 47.56 121.887 44.6434 121.187 40.9364C120.597 37.8084 118.299 35.9946 118.299 35.9946C118.299 35.9946 119.631 38.9663 119.631 41.5836C119.631 43.0144 119.809 48.3613 122.103 51.3638C121.876 51.8019 121.771 53.5343 121.52 53.8667C118.852 50.6418 113.122 48.3349 112.186 47.6547C115.35 50.2456 122.618 56.1978 125.409 61.9057C128.051 67.301 126.495 72.2473 127.831 73.5262C128.212 73.8916 133.51 80.4954 134.529 83.8127C136.308 89.5932 134.635 95.6709 132.308 99.4395L125.808 100.452C124.857 100.188 124.216 100.056 123.364 99.5628C123.835 98.7307 124.769 96.6571 124.778 96.2279L124.41 95.5851C122.387 98.4511 118.999 101.234 116.184 102.832C112.499 104.921 108.253 104.597 105.488 103.743C97.6426 101.324 90.2221 96.0209 88.4325 94.6275C88.4325 94.6275 88.3775 95.7392 88.7143 95.9901C90.691 98.2222 95.2234 102.257 99.6061 105.073L90.2661 106.101L94.6819 140.478C92.725 140.757 92.419 140.896 90.2772 141.2C88.3885 134.528 84.7762 130.171 80.8271 127.633C77.3447 125.395 72.5415 124.891 67.9453 125.802L67.6503 126.145C70.8466 125.813 74.6195 126.275 78.496 128.73C82.2998 131.136 85.3661 137.35 86.4954 141.09C87.9416 145.871 88.941 150.987 85.0491 156.408C82.2822 160.263 74.2035 162.391 67.6746 157.784C69.418 160.589 71.7733 162.88 74.9475 163.311C79.6582 163.952 84.129 163.133 87.2064 159.974C89.8325 157.273 91.2281 151.625 90.8605 145.677L95.0187 145.074L96.5199 155.75L165.343 147.462L159.727 92.686ZM117.855 63.6931C117.663 64.1312 117.359 64.4196 117.813 65.846L117.839 65.9274L117.912 66.1123L118.101 66.5394C118.918 68.2101 119.814 69.784 121.315 70.5897C121.702 70.5237 122.105 70.4796 122.521 70.4598C123.93 70.3982 124.819 70.6205 125.381 70.9243C125.431 70.6425 125.442 70.2331 125.412 69.6278C125.302 67.5123 125.83 63.9155 121.764 62.0224C120.23 61.3114 118.077 61.5293 117.359 62.4186C117.489 62.4362 117.606 62.4626 117.698 62.4934C118.786 62.8699 118.051 63.2441 117.855 63.6931ZM129.253 83.4297C128.72 83.1347 126.228 83.2514 124.476 83.4605C121.139 83.8545 117.535 85.0102 116.747 85.6266C115.312 86.736 115.964 88.6687 117.025 89.4634C119.999 91.6844 122.605 93.1747 125.354 92.8115C127.043 92.5892 128.533 89.9146 129.587 87.4888C130.309 85.8181 130.309 84.0152 129.253 83.4297ZM99.7096 66.3104C100.65 65.4167 95.0231 64.2435 90.6558 67.2218C87.4353 69.4186 87.3319 74.1293 90.4158 76.7995C90.724 77.0636 90.9794 77.2507 91.2149 77.4048C92.1152 76.98 93.141 76.5529 94.3231 76.1699C96.3174 75.5227 97.9772 75.1882 99.3398 75.0098C99.9913 74.2812 100.751 72.9979 100.561 70.6733C100.302 67.5189 97.9156 68.0186 99.7096 66.3104Z" fill="#632CA6"/>
</g>
<defs>
<clipPath id="clip0_1_2138">
<rect width="176.211" height="200" fill="white" transform="translate(12)"/>
</clipPath>
</defs>
</svg>
