<svg width="200" height="200" viewBox="0 0 200 200" fill="none" xmlns="http://www.w3.org/2000/svg">
<g clip-path="url(#clip0_1_1870)">
<rect width="200" height="200" fill="white"/>
<path d="M92.1255 0.0514045C91.6582 0.100594 90.1579 0.272757 88.8052 0.39573C69.5722 2.41249 50.6343 10.5533 35.1888 23.4901C32.3359 25.8512 25.8429 32.3442 23.4818 35.1972C10.6925 50.4705 3.21575 67.613 0.46115 87.9036C-0.153717 92.4044 -0.153717 107.604 0.46115 112.105C3.21575 132.395 10.6925 149.538 23.4818 164.811C25.8429 167.664 32.3359 174.157 35.1888 176.518C50.4621 189.307 67.6046 196.784 87.8952 199.539C92.3961 200.154 107.596 200.154 112.096 199.539C132.387 196.784 149.53 189.307 164.803 176.518C167.656 174.157 174.149 167.664 176.51 164.811C189.299 149.538 196.776 132.395 199.53 112.105C200.145 107.604 200.145 92.4044 199.53 87.9036C196.776 67.613 189.299 50.4705 176.51 35.1972C174.149 32.3442 167.656 25.8512 164.803 23.4901C149.579 10.7501 132.264 3.17493 112.244 0.494109C110.08 0.198973 106.932 0.0759992 101.103 0.0268099C96.6509 -0.0223795 92.5928 0.00221518 92.1255 0.0514045ZM93.3553 10.6763C93.3553 13.5539 93.552 19.8009 93.8226 25.7282C93.9701 28.6304 94.1423 32.7869 94.2161 34.9513C94.4866 42.6248 95.2982 62.7678 95.4212 64.5632L95.5442 66.3587L94.4374 66.2357C93.8226 66.1865 93.2569 66.0389 93.1585 65.9651C93.0847 65.8668 92.9126 64.1697 92.8142 62.1776C92.3715 53.4219 90.9204 19.4566 90.7728 14.4885L90.6252 9.02846L91.3139 8.93008C91.6828 8.88089 92.2977 8.80711 92.6912 8.78252L93.3553 8.75792V10.6763ZM116.892 10.086C116.917 10.1106 116.991 17.5382 117.065 26.5891C117.163 35.6645 117.286 43.8053 117.36 44.6907C117.433 45.6008 117.409 46.3878 117.286 46.437C117.187 46.5108 116.573 46.5108 115.958 46.437L114.826 46.3386L114.654 39.1815C114.556 35.2218 114.433 30.8439 114.384 29.4175C114.187 25.0642 114.015 10.2828 114.162 9.91387C114.261 9.64333 114.531 9.61873 115.564 9.7909C116.277 9.93847 116.868 10.0614 116.892 10.086ZM60.0049 18.3253C60.1524 18.5466 61.3084 32.0983 62.7349 49.831C63.2022 55.8567 63.6695 61.3659 63.7433 62.0546C63.8662 63.3089 63.8416 63.3581 63.0546 63.85C62.6119 64.1205 62.1692 64.3419 62.0708 64.3419C61.997 64.3419 61.8495 63.7024 61.7757 62.9154C61.4314 59.7181 60.1032 44.2726 59.1687 33.1067C58.6276 26.5399 58.1357 20.6617 58.0619 20.0223C57.9389 18.9401 57.9635 18.8417 58.603 18.4974C59.39 18.0793 59.8327 18.0055 60.0049 18.3253ZM127.714 23.2688C128.403 23.5147 128.476 23.6377 128.624 25.0396C128.87 27.4991 128.796 39.2553 128.526 39.2553C127.812 39.2553 126.337 38.4191 126.214 37.9518C126.14 37.6567 126.066 34.1642 126.066 30.2045C126.066 22.2112 125.968 22.6785 127.714 23.2688ZM82.2876 24.4247C82.2876 25.0888 82.4598 28.7534 82.6566 32.6148C82.8533 36.4761 83.0747 41.3705 83.1731 43.4856C83.3452 47.7651 83.3944 47.6175 81.7466 47.7159C80.9349 47.7405 80.9349 47.7405 80.8858 46.5108C80.8366 45.8221 80.7136 43.6824 80.566 41.7148C80.443 39.7472 80.1479 35.4923 79.9512 32.2458C79.7544 28.9993 79.5085 25.7774 79.4347 25.0888C79.2871 23.8591 79.3117 23.8099 79.9757 23.5639C80.3693 23.4164 81.0579 23.2934 81.5006 23.2934C82.2876 23.2688 82.2876 23.2688 82.2876 24.4247ZM150.513 27.7942L151.35 28.1385L151.522 31.4342C151.595 33.2296 151.645 37.1156 151.595 40.0424L151.522 45.404L150.489 44.8875L149.456 44.3956L149.382 36.2302C149.333 31.7294 149.357 27.9172 149.407 27.745C149.505 27.3761 149.505 27.3761 150.513 27.7942ZM105.603 31.0161C105.751 31.1637 106.095 43.0921 106.12 49.1424L106.144 52.7824L104.989 52.6102C104.324 52.5365 103.783 52.4627 103.759 52.4381C103.685 52.3889 102.947 34.1642 102.947 32.3934V30.5734L104.202 30.721C104.915 30.8193 105.53 30.9423 105.603 31.0161ZM162.245 32.7623C162.54 33.1067 162.589 38.4929 162.663 68.2033C162.737 102.316 162.737 103.201 162.294 103.201C162.024 103.201 161.655 103.054 161.433 102.882C161.064 102.611 161.015 99.6353 160.892 70.4906C160.794 52.8316 160.671 36.7959 160.597 34.8529L160.45 31.3112L161.163 31.8277C161.581 32.1229 162.048 32.541 162.245 32.7623ZM140.184 37.8042C140.306 37.9026 140.429 39.3045 140.454 40.9032C140.577 46.3386 140.602 79.6644 140.479 79.7628C140.429 79.812 139.987 79.689 139.495 79.4922L138.609 79.1233V58.1932V37.2877L139.298 37.4353C139.667 37.5337 140.061 37.6813 140.184 37.8042ZM72.3022 39.1815C72.376 39.8456 72.499 41.3459 72.5728 42.5756C72.6465 43.7807 72.8187 46.5353 72.9663 48.6751C73.2614 53.0037 73.2122 53.2743 71.8103 53.2743C71.0725 53.2743 70.9741 53.2005 70.8757 52.4627C70.6298 51.0116 69.769 38.911 69.8919 38.7142C70.0149 38.5421 71.2938 38.0994 71.8841 38.0502C72.0317 38.0256 72.2284 38.5421 72.3022 39.1815ZM31.6226 45.4532C31.8932 48.0602 32.4342 53.5202 32.8277 57.5784C33.2459 61.6365 33.5902 65.0797 33.5902 65.2273C33.5902 65.5224 31.6964 66.457 31.4996 66.2603C31.3767 66.1373 28.9172 44.371 28.9172 43.3872C28.9172 42.797 30.811 40.3129 31.0569 40.5834C31.1307 40.6326 31.3767 42.8216 31.6226 45.4532ZM128.058 48.0356L128.772 48.4537L128.796 53.7662C128.821 56.6684 128.87 59.9149 128.87 60.9724C128.919 63.1859 128.649 63.5549 127.321 63.0876L126.558 62.817V60.7019C126.558 59.5213 126.484 56.1027 126.386 53.0775L126.238 47.6175H126.804C127.099 47.6175 127.665 47.8143 128.058 48.0356ZM42.4197 57.5784C42.8624 62.3005 43.5756 70.2692 44.0429 75.2865L44.8791 84.3866L43.9199 85.3458L42.9854 86.3049L42.8132 84.362C42.7148 83.2798 42.2229 78.2625 41.7064 73.196C41.1899 68.1295 40.4521 60.7757 40.0832 56.8651L39.3945 49.7818L40.3537 48.8964C41.2145 48.0848 41.3129 48.0602 41.4851 48.5029C41.5835 48.7489 42.0016 52.8316 42.4197 57.5784ZM23.9983 60.5543C24.5393 65.3995 25.9658 78.2871 27.1956 89.1825C28.4253 100.078 29.5813 110.58 29.8026 112.547C29.9994 114.515 30.3437 117.491 30.5404 119.188C30.8848 122.066 30.8848 122.262 30.4913 122.558C29.901 123 29.655 122.951 29.655 122.435C29.655 122.213 29.4337 120.344 29.1631 118.327C28.7204 114.958 27.9826 109.252 26.3348 96.438C25.9904 93.8555 25.3264 88.7152 24.8591 85.0014C24.3672 81.2876 23.6539 75.7538 23.2604 72.7041C22.8669 69.6543 22.2028 64.4403 21.7847 61.0708C21.342 57.7259 21.0715 54.75 21.1453 54.4302C21.3174 53.7662 22.7685 51.4543 22.9161 51.6019C22.9653 51.6756 23.4572 55.6846 23.9983 60.5543ZM16.4723 71.1546C16.8412 74.106 17.5299 79.4922 17.9972 83.1568C18.4645 86.7968 19.0547 91.3469 19.3253 93.2406L19.7926 96.6839L19.2761 97.1266C18.9809 97.3726 18.6858 97.4709 18.5874 97.3726C18.4891 97.2742 18.2923 96.2904 18.1447 95.2082C17.9972 94.1261 17.0872 87.8052 16.1034 81.1893L14.3571 69.1379L14.9228 67.4654C15.218 66.5554 15.5377 65.8176 15.6115 65.8176C15.7099 65.8176 16.0788 68.2279 16.4723 71.1546ZM151.497 67.9327C151.841 68.277 151.891 69.8019 151.891 81.0909V93.8555H151.202C149.702 93.8555 149.726 94.2244 149.628 80.2547L149.554 67.5392H150.341C150.759 67.5392 151.3 67.7114 151.497 67.9327ZM97.6593 72.3352C103.218 73.1714 108.063 74.7209 112.859 77.1803C115.958 78.779 117.433 79.8857 120.877 83.1814C125.992 88.0758 129.141 92.3552 132.092 98.4055C136.396 107.21 138.068 115.007 140.184 135.912C141.143 145.283 142.397 162.278 142.668 169.238C142.741 171.255 142.914 174.575 143.061 176.617C143.332 180.945 143.651 180.355 139.839 182.2C134.551 184.757 129.46 186.528 122.746 188.176C114.531 190.193 109.219 190.832 101.103 190.857L95.1999 190.882L95.249 188.053C95.249 186.504 95.3966 182.888 95.5442 180.06C96.282 166.361 96.1345 149.071 95.1753 139.479C94.6342 133.969 93.5766 127.28 92.9863 125.804C92.8634 125.484 93.429 125.214 95.8639 124.378C100.316 122.828 104.177 120.885 104.767 119.926C105.825 118.106 103.931 115.499 101.521 115.499C101.103 115.499 99.8482 115.942 98.6923 116.458C93.1831 118.991 82.1401 121.967 75.7701 122.631C71.3676 123.099 64.5303 122.828 59.7835 121.967C57.2011 121.5 52.5773 119.754 48.7159 117.762C44.2643 115.45 41.5343 112.375 40.7226 108.735C40.2799 106.768 40.4029 102.833 40.9686 100.619C41.5835 98.1842 43.3051 94.6425 44.8791 92.5766C51.8886 83.3536 66.3503 75.3603 81.1809 72.5565C85.9031 71.6711 92.5928 71.5727 97.6593 72.3352ZM173.534 73.0976C174.419 73.4665 174.518 73.5649 174.518 74.4011C174.567 81.1155 174.419 96.4625 174.296 97.102C174.272 97.3234 172.993 97.348 172.452 97.1512C172.107 97.0282 172.058 95.7001 172.058 84.8539C172.058 77.0819 172.157 72.7041 172.304 72.7041C172.427 72.7041 172.993 72.8763 173.534 73.0976ZM184.282 86.6001L185.167 86.969L184.995 107.333C184.798 133.281 184.774 134.043 183.839 136.281C182.314 139.946 182.388 140.684 182.536 124.599C182.585 116.556 182.708 108.416 182.757 106.522C182.806 104.628 182.855 99.2909 182.88 94.6425C182.88 89.035 182.954 86.2312 183.126 86.2312C183.273 86.2312 183.79 86.4033 184.282 86.6001ZM36.3694 92.7242C36.517 94.7163 36.4678 94.9131 35.7545 96.4871L34.9675 98.1596L34.6723 95.7001C34.2051 91.765 34.2051 91.5928 35.1396 91.0025C35.5578 90.7074 36.0005 90.5106 36.0742 90.5598C36.148 90.609 36.2956 91.5928 36.3694 92.7242ZM21.1699 107.555C21.3912 109.572 23.1129 122.951 23.9983 129.518C25.3264 139.675 25.4247 141.126 24.8345 140.512C24.7607 140.438 24.195 137.019 23.6047 132.912C19.768 106.399 19.7926 106.571 20.1123 106.374C20.7764 105.931 20.9977 106.177 21.1699 107.555ZM38.878 118.819C39.0256 119.434 39.7389 126.099 39.7389 126.911C39.7389 127.599 38.8534 128.239 38.4599 127.845C38.337 127.722 38.0172 125.632 37.7713 123.222C37.5007 120.787 37.2302 118.253 37.1564 117.589L37.0088 116.36L37.8697 117.343C38.3616 117.885 38.8043 118.549 38.878 118.819ZM58.7259 128.091C58.9965 128.337 59.1687 129.321 59.39 131.977C59.7589 136.773 59.8081 136.404 58.7997 136.404C57.7668 136.404 57.7913 136.478 57.447 132.149C57.1027 127.747 57.1027 127.796 57.7668 127.796C58.0865 127.796 58.5046 127.944 58.7259 128.091ZM78.2049 128.46C78.2541 128.706 78.3771 130.182 78.4755 131.731C78.5493 133.281 78.7706 136.773 78.9674 139.479C79.656 149.415 79.6806 150.669 79.2625 150.669C78.7952 150.669 78.746 150.3 78.2049 143.291C78.0082 140.389 77.6393 135.814 77.3933 133.133C77.172 130.452 77.0244 128.214 77.0982 128.165C77.3687 127.87 78.082 128.091 78.2049 128.46ZM31.9669 133.182C32.1145 133.404 33.0491 141.274 34.2051 152.022C34.5494 155.268 34.8937 158.392 34.9675 158.982L35.0905 160.04L34.4756 159.646C34.0083 159.327 33.8361 159.007 33.8361 158.441C33.8361 156.892 32.7786 146.685 31.9669 140.438C31.4996 136.896 31.1307 133.773 31.1307 133.478C31.1307 132.961 31.721 132.764 31.9669 133.182ZM173.903 143.463L173.731 153.744L173.116 154.654C171.714 156.72 171.788 157.113 171.861 145.603L171.911 135.052L172.821 134.117C173.313 133.625 173.804 133.207 173.903 133.207C173.977 133.207 173.977 137.831 173.903 143.463ZM151.153 159.769C151.276 174.059 151.251 175.166 150.858 175.608C150.612 175.879 150.39 176.051 150.317 175.977C150.144 175.78 149.898 144.619 150.095 144.447C150.194 144.348 150.44 144.299 150.661 144.324C150.981 144.398 151.054 146.144 151.153 159.769ZM70.8265 149.981C70.9987 151.505 71.6136 158.81 71.8595 162.253C72.0071 164.565 72.0071 164.639 71.466 164.811C71.1709 164.91 70.8265 164.885 70.7281 164.762C70.556 164.59 70.0149 159.13 69.3508 150.718L69.1787 148.702H69.9411C70.6544 148.702 70.7036 148.751 70.8265 149.981ZM51.4951 158.589C51.6673 158.761 51.7902 159.376 51.7902 159.991C51.7902 160.63 52.0854 163.95 52.4051 167.394C53.3397 176.813 53.4135 178.092 52.9954 177.846C52.3559 177.477 51.7902 176.912 51.9132 176.764C51.9624 176.666 51.864 175.436 51.6673 174.034C51.4951 172.608 51.2738 170.296 51.1754 168.869C51.077 167.443 50.8556 164.836 50.6589 163.09C50.1916 158.785 50.2162 158.294 50.7573 158.294C51.0032 158.294 51.3229 158.417 51.4951 158.589ZM63.1284 175.141C63.2022 175.682 63.3497 177.699 63.4481 179.617C63.6203 183.306 63.5465 183.577 62.5381 182.814C62.243 182.593 62.0462 181.659 61.7511 178.855C61.2346 173.788 61.21 173.985 62.1692 174.083C62.8824 174.157 62.9808 174.256 63.1284 175.141Z" fill="black"/>
<path d="M54.3481 84.116C51.7903 85.2228 51.5935 88.6906 54.0038 89.9204C55.75 90.8058 57.5208 90.3877 58.4308 88.8628C60.1524 86.059 57.3487 82.8125 54.3481 84.116Z" fill="black"/>
<path d="M71.0233 86.4771C68.6622 87.9282 68.6622 91.4206 71.0233 92.8717C73.3598 94.2736 76.3849 92.429 76.3849 89.6252C76.3849 86.9198 73.286 85.0998 71.0233 86.4771Z" fill="black"/>
</g>
<defs>
<clipPath id="clip0_1_1870">
<rect width="200" height="200" fill="white"/>
</clipPath>
</defs>
</svg>
