<svg width="200" height="200" viewBox="0 0 200 200" fill="none" xmlns="http://www.w3.org/2000/svg">
<g clip-path="url(#clip0_1_1872)">
<rect width="200" height="200" fill="white"/>
<path d="M107.866 0.0514045C108.333 0.100594 109.834 0.272757 111.186 0.39573C130.419 2.41249 149.357 10.5533 164.803 23.4901C167.656 25.8512 174.149 32.3442 176.51 35.1972C189.299 50.4705 196.776 67.613 199.531 87.9036C200.145 92.4044 200.145 107.604 199.531 112.105C196.776 132.395 189.299 149.538 176.51 164.811C174.149 167.664 167.656 174.157 164.803 176.518C149.53 189.307 132.387 196.784 112.096 199.539C107.596 200.154 92.3961 200.154 87.8953 199.539C67.6047 196.784 50.4622 189.307 35.1889 176.518C32.3359 174.157 25.8429 167.664 23.4818 164.811C10.6926 149.538 3.21582 132.395 0.461213 112.105C-0.153654 107.604 -0.153654 92.4044 0.461213 87.9036C3.21582 67.613 10.6926 50.4705 23.4818 35.1972C25.8429 32.3442 32.3359 25.8512 35.1889 23.4901C50.413 10.7501 67.7277 3.17493 87.7477 0.494109C89.9121 0.198973 93.0602 0.0759992 98.8891 0.0268099C103.341 -0.0223795 107.399 0.00221518 107.866 0.0514045ZM106.636 10.6763C106.636 13.5539 106.44 19.8009 106.169 25.7282C106.022 28.6304 105.849 32.7869 105.776 34.9513C105.505 42.6248 104.693 62.7678 104.57 64.5632L104.448 66.3587L105.554 66.2357C106.169 66.1865 106.735 66.0389 106.833 65.9651C106.907 65.8668 107.079 64.1697 107.178 62.1776C107.62 53.4219 109.071 19.4566 109.219 14.4885L109.366 9.02846L108.678 8.93008C108.309 8.88089 107.694 8.80711 107.301 8.78252L106.636 8.75792V10.6763ZM83.0993 10.086C83.0747 10.1106 83.001 17.5382 82.9272 26.5891C82.8288 35.6645 82.7058 43.8053 82.632 44.6907C82.5583 45.6008 82.5828 46.3878 82.7058 46.437C82.8042 46.5108 83.4191 46.5108 84.0339 46.437L85.1653 46.3386L85.3375 39.1815C85.4358 35.2218 85.5588 30.8439 85.608 29.4175C85.8048 25.0642 85.9769 10.2828 85.8293 9.91387C85.731 9.64333 85.4604 9.61873 84.4274 9.7909C83.7142 9.93847 83.1239 10.0614 83.0993 10.086ZM139.987 18.3253C139.839 18.5466 138.683 32.0983 137.257 49.831C136.79 55.8567 136.322 61.3659 136.248 62.0546C136.125 63.3089 136.15 63.3581 136.937 63.85C137.38 64.1205 137.822 64.3419 137.921 64.3419C137.995 64.3419 138.142 63.7024 138.216 62.9154C138.56 59.7181 139.888 44.2726 140.823 33.1067C141.364 26.5399 141.856 20.6617 141.93 20.0223C142.053 18.9401 142.028 18.8417 141.389 18.4974C140.602 18.0793 140.159 18.0055 139.987 18.3253ZM72.2777 23.2688C71.589 23.5147 71.5152 23.6377 71.3677 25.0396C71.1217 27.4991 71.1955 39.2553 71.4661 39.2553C72.1793 39.2553 73.655 38.4191 73.778 37.9518C73.8517 37.6567 73.9255 34.1642 73.9255 30.2045C73.9255 22.2112 74.0239 22.6785 72.2777 23.2688ZM117.704 24.4247C117.704 25.0888 117.532 28.7534 117.335 32.6148C117.138 36.4761 116.917 41.3705 116.819 43.4856C116.646 47.7651 116.597 47.6175 118.245 47.7159C119.057 47.7405 119.057 47.7405 119.106 46.5108C119.155 45.8221 119.278 43.6824 119.426 41.7148C119.549 39.7472 119.844 35.4923 120.041 32.2458C120.237 28.9993 120.483 25.7774 120.557 25.0888C120.705 23.8591 120.68 23.8099 120.016 23.5639C119.622 23.4164 118.934 23.2934 118.491 23.2934C117.704 23.2688 117.704 23.2688 117.704 24.4247ZM49.4784 27.7942L48.6422 28.1385L48.47 31.4342C48.3962 33.2296 48.3471 37.1156 48.3962 40.0424L48.47 45.404L49.503 44.8875L50.536 44.3956L50.6098 36.2302C50.659 31.7294 50.6344 27.9172 50.5852 27.745C50.4868 27.3761 50.4868 27.3761 49.4784 27.7942ZM94.3883 31.0161C94.2407 31.1637 93.8964 43.0921 93.8718 49.1424L93.8472 52.7824L95.0032 52.6102C95.6672 52.5365 96.2083 52.4627 96.2329 52.4381C96.3067 52.3889 97.0445 34.1642 97.0445 32.3934V30.5734L95.7902 30.721C95.0769 30.8193 94.4621 30.9423 94.3883 31.0161ZM37.7467 32.7623C37.4516 33.1067 37.4024 38.4929 37.3286 68.2033C37.2549 102.316 37.2549 103.201 37.6976 103.201C37.9681 103.201 38.337 103.054 38.5584 102.882C38.9273 102.611 38.9765 99.6353 39.0995 70.4906C39.1978 52.8316 39.3208 36.7959 39.3946 34.8529L39.5422 31.3112L38.8289 31.8277C38.4108 32.1229 37.9435 32.541 37.7467 32.7623ZM59.8082 37.8042C59.6852 37.9026 59.5622 39.3045 59.5376 40.9032C59.4147 46.3386 59.3901 79.6644 59.513 79.7628C59.5622 79.812 60.0049 79.689 60.4968 79.4922L61.3822 79.1233V58.1932V37.2877L60.6936 37.4353C60.3247 37.5337 59.9311 37.6813 59.8082 37.8042ZM127.689 39.1815C127.616 39.8456 127.493 41.3459 127.419 42.5756C127.345 43.7807 127.173 46.5353 127.025 48.6751C126.73 53.0037 126.779 53.2743 128.181 53.2743C128.919 53.2743 129.018 53.2005 129.116 52.4627C129.362 51.0116 130.223 38.911 130.1 38.7142C129.977 38.5421 128.698 38.0994 128.108 38.0502C127.96 38.0256 127.763 38.5421 127.689 39.1815ZM168.369 45.4532C168.099 48.0602 167.557 53.5202 167.164 57.5784C166.746 61.6365 166.402 65.0797 166.402 65.2273C166.402 65.5224 168.295 66.457 168.492 66.2603C168.615 66.1373 171.075 44.371 171.075 43.3872C171.075 42.797 169.181 40.3129 168.935 40.5834C168.861 40.6326 168.615 42.8216 168.369 45.4532ZM71.9334 48.0356L71.2201 48.4537L71.1955 53.7662C71.1709 56.6684 71.1217 59.9149 71.1217 60.9724C71.0725 63.1859 71.3431 63.5549 72.6712 63.0876L73.4336 62.817V60.7019C73.4336 59.5213 73.5074 56.1027 73.6058 53.0775L73.7534 47.6175H73.1877C72.8925 47.6175 72.3269 47.8143 71.9334 48.0356ZM157.572 57.5784C157.129 62.3005 156.416 70.2692 155.949 75.2865L155.113 84.3866L156.072 85.3458L157.006 86.3049L157.179 84.362C157.277 83.2798 157.769 78.2625 158.285 73.196C158.802 68.1295 159.54 60.7757 159.909 56.8651L160.597 49.7818L159.638 48.8964C158.777 48.0848 158.679 48.0602 158.507 48.5029C158.408 48.7489 157.99 52.8316 157.572 57.5784ZM175.993 60.5543C175.452 65.3995 174.026 78.2871 172.796 89.1825C171.566 100.078 170.41 110.58 170.189 112.547C169.992 114.515 169.648 117.491 169.451 119.188C169.107 122.066 169.107 122.262 169.5 122.558C170.091 123 170.337 122.951 170.337 122.435C170.337 122.213 170.558 120.344 170.829 118.327C171.271 114.958 172.009 109.252 173.657 96.438C174.001 93.8555 174.665 88.7152 175.133 85.0014C175.625 81.2876 176.338 75.7538 176.731 72.7041C177.125 69.6543 177.789 64.4403 178.207 61.0708C178.65 57.7259 178.92 54.75 178.846 54.4302C178.674 53.7662 177.223 51.4543 177.076 51.6019C177.026 51.6756 176.535 55.6846 175.993 60.5543ZM183.519 71.1546C183.15 74.106 182.462 79.4922 181.995 83.1568C181.527 86.7968 180.937 91.3469 180.666 93.2406L180.199 96.6839L180.716 97.1266C181.011 97.3726 181.306 97.4709 181.404 97.3726C181.503 97.2742 181.699 96.2904 181.847 95.2082C181.995 94.1261 182.905 87.8052 183.888 81.1893L185.635 69.1379L185.069 67.4654C184.774 66.5554 184.454 65.8176 184.38 65.8176C184.282 65.8176 183.913 68.2279 183.519 71.1546ZM48.4946 67.9327C48.1503 68.277 48.1011 69.8019 48.1011 81.0909V93.8555H48.7898C50.29 93.8555 50.2654 94.2244 50.3638 80.2547L50.4376 67.5392H49.6506C49.2325 67.5392 48.6914 67.7114 48.4946 67.9327ZM102.332 72.3352C96.774 73.1714 91.9288 74.7209 87.1329 77.1803C84.0339 78.779 82.5583 79.8857 79.115 83.1814C73.9993 88.0758 70.8512 92.3552 67.8998 98.4055C63.5958 107.21 61.9233 115.007 59.8082 135.912C58.849 145.283 57.5947 162.278 57.3241 169.238C57.2503 171.255 57.0782 174.575 56.9306 176.617C56.6601 180.945 56.3403 180.355 60.1525 182.2C65.4404 184.757 70.5315 186.528 77.2458 188.176C85.4604 190.193 90.7729 190.832 98.8891 190.857L104.792 190.882L104.743 188.053C104.743 186.504 104.595 182.888 104.448 180.06C103.71 166.361 103.857 149.071 104.816 139.479C105.358 133.969 106.415 127.28 107.005 125.804C107.128 125.484 106.563 125.214 104.128 124.378C99.6762 122.828 95.8148 120.885 95.2245 119.926C94.1669 118.106 96.0607 115.499 98.471 115.499C98.8891 115.499 100.143 115.942 101.299 116.458C106.809 118.991 117.852 121.967 124.222 122.631C128.624 123.099 135.461 122.828 140.208 121.967C142.791 121.5 147.414 119.754 151.276 117.762C155.727 115.45 158.457 112.375 159.269 108.735C159.712 106.768 159.589 102.833 159.023 100.619C158.408 98.1842 156.687 94.6425 155.113 92.5766C148.103 83.3536 133.641 75.3603 118.811 72.5565C114.089 71.6711 107.399 71.5727 102.332 72.3352ZM26.4578 73.0976C25.5724 73.4665 25.474 73.5649 25.474 74.4011C25.4248 81.1155 25.5724 96.4625 25.6954 97.102C25.7199 97.3234 26.9989 97.348 27.54 97.1512C27.8843 97.0282 27.9335 95.7001 27.9335 84.8539C27.9335 77.0819 27.8351 72.7041 27.6875 72.7041C27.5646 72.7041 26.9989 72.8763 26.4578 73.0976ZM15.7099 86.6001L14.8245 86.969L14.9967 107.333C15.1934 133.281 15.218 134.043 16.1526 136.281C17.6775 139.946 17.6037 140.684 17.4561 124.599C17.4069 116.556 17.284 108.416 17.2348 106.522C17.1856 104.628 17.1364 99.2909 17.1118 94.6425C17.1118 89.035 17.038 86.2312 16.8659 86.2312C16.7183 86.2312 16.2018 86.4033 15.7099 86.6001ZM163.622 92.7242C163.475 94.7163 163.524 94.9131 164.237 96.4871L165.024 98.1596L165.319 95.7001C165.787 91.765 165.787 91.5928 164.852 91.0025C164.434 90.7074 163.991 90.5106 163.917 90.5598C163.844 90.609 163.696 91.5928 163.622 92.7242ZM178.822 107.555C178.6 109.572 176.879 122.951 175.993 129.518C174.665 139.675 174.567 141.126 175.157 140.512C175.231 140.438 175.797 137.019 176.387 132.912C180.224 106.399 180.199 106.571 179.879 106.374C179.215 105.931 178.994 106.177 178.822 107.555ZM161.114 118.819C160.966 119.434 160.253 126.099 160.253 126.911C160.253 127.599 161.138 128.239 161.532 127.845C161.655 127.722 161.974 125.632 162.22 123.222C162.491 120.787 162.762 118.253 162.835 117.589L162.983 116.36L162.122 117.343C161.63 117.885 161.187 118.549 161.114 118.819ZM141.266 128.091C140.995 128.337 140.823 129.321 140.602 131.977C140.233 136.773 140.184 136.404 141.192 136.404C142.225 136.404 142.2 136.478 142.545 132.149C142.889 127.747 142.889 127.796 142.225 127.796C141.905 127.796 141.487 127.944 141.266 128.091ZM121.787 128.46C121.738 128.706 121.615 130.182 121.516 131.731C121.442 133.281 121.221 136.773 121.024 139.479C120.336 149.415 120.311 150.669 120.729 150.669C121.196 150.669 121.246 150.3 121.787 143.291C121.984 140.389 122.352 135.814 122.598 133.133C122.82 130.452 122.967 128.214 122.894 128.165C122.623 127.87 121.91 128.091 121.787 128.46ZM168.025 133.182C167.877 133.404 166.943 141.274 165.787 152.022C165.442 155.268 165.098 158.392 165.024 158.982L164.901 160.04L165.516 159.646C165.983 159.327 166.156 159.007 166.156 158.441C166.156 156.892 167.213 146.685 168.025 140.438C168.492 136.896 168.861 133.773 168.861 133.478C168.861 132.961 168.271 132.764 168.025 133.182ZM26.0889 143.463L26.261 153.744L26.8759 154.654C28.2778 156.72 28.204 157.113 28.1302 145.603L28.081 135.052L27.171 134.117C26.6791 133.625 26.1872 133.207 26.0889 133.207C26.0151 133.207 26.0151 137.831 26.0889 143.463ZM48.8389 159.769C48.716 174.059 48.7406 175.166 49.1341 175.608C49.38 175.879 49.6014 176.051 49.6752 175.977C49.8473 175.78 50.0933 144.619 49.8965 144.447C49.7981 144.348 49.5522 144.299 49.3308 144.324C49.0111 144.398 48.9373 146.144 48.8389 159.769ZM129.165 149.981C128.993 151.505 128.378 158.81 128.132 162.253C127.985 164.565 127.985 164.639 128.526 164.811C128.821 164.91 129.165 164.885 129.264 164.762C129.436 164.59 129.977 159.13 130.641 150.718L130.813 148.702H130.051C129.337 148.702 129.288 148.751 129.165 149.981ZM148.497 158.589C148.324 158.761 148.201 159.376 148.201 159.991C148.201 160.63 147.906 163.95 147.587 167.394C146.652 176.813 146.578 178.092 146.996 177.846C147.636 177.477 148.201 176.912 148.078 176.764C148.029 176.666 148.128 175.436 148.324 174.034C148.497 172.608 148.718 170.296 148.816 168.869C148.915 167.443 149.136 164.836 149.333 163.09C149.8 158.785 149.776 158.294 149.234 158.294C148.988 158.294 148.669 158.417 148.497 158.589ZM136.863 175.141C136.79 175.682 136.642 177.699 136.544 179.617C136.371 183.306 136.445 183.577 137.454 182.814C137.749 182.593 137.945 181.659 138.241 178.855C138.757 173.788 138.782 173.985 137.822 174.083C137.109 174.157 137.011 174.256 136.863 175.141Z" fill="black"/>
<path d="M144.01 84.5429C149.011 86.5674 149.396 92.9108 144.683 95.1603C141.27 96.7798 137.808 96.015 136.028 93.2257C132.663 88.097 138.144 82.1585 144.01 84.5429Z" fill="black"/>
<path d="M127.772 86.834C132.076 89.4019 132.076 95.5824 127.772 98.1503C123.514 100.631 118 97.3668 118 92.4051C118 87.6175 123.648 84.3967 127.772 86.834Z" fill="black"/>
<path d="M145.644 84.116C148.201 85.2228 148.398 88.6906 145.988 89.9204C144.242 90.8058 142.471 90.3877 141.561 88.8628C139.839 86.059 142.643 82.8125 145.644 84.116Z" fill="white"/>
<path d="M128.968 86.4771C131.33 87.9282 131.33 91.4206 128.968 92.8717C126.632 94.2736 123.607 92.429 123.607 89.6252C123.607 86.9198 126.706 85.0998 128.968 86.4771Z" fill="white"/>
</g>
<defs>
<clipPath id="clip0_1_1872">
<rect width="200" height="200" fill="white"/>
</clipPath>
</defs>
</svg>
