<svg width="200" height="200" viewBox="0 0 200 200" fill="none" xmlns="http://www.w3.org/2000/svg">
<path d="M156.613 88.7324C162.422 110.882 171.207 119.066 167.926 147.329C163.996 181.106 130.696 191.16 130.696 191.16C130.696 191.16 111.037 197.179 84.1945 194.146C57.3523 191.112 44.7611 174.982 44.7611 174.982C25.7503 153.463 33.6103 100.169 33.6103 100.169C35.7088 78.7549 43.5115 51.9699 43.5115 51.9699C52.8118 22.9052 69.9054 13.1661 69.9054 13.1661C69.9054 13.1661 81.5331 3.11221 104.941 5.31568C104.941 5.31568 133.529 6.72742 147.513 29.8208C147.513 29.8208 157.567 44.5774 154.896 66.9745C154.896 66.9745 154.553 80.8534 156.623 88.742L156.613 88.7324Z" fill="#FDE68A" stroke="#18181B" stroke-width="9" stroke-miterlimit="10"/>
<path d="M112.782 79.7275C112.782 85.3936 107.612 89.9913 101.231 89.9913C94.8493 89.9913 89.6793 85.3936 89.6793 79.7275" stroke="#18181B" stroke-width="8" stroke-miterlimit="10" stroke-linecap="round"/>
<path d="M68.2361 73.4895C71.8342 73.4895 74.7511 70.5726 74.7511 66.9745C74.7511 63.3763 71.8342 60.4595 68.2361 60.4595C64.6379 60.4595 61.7211 63.3763 61.7211 66.9745C61.7211 70.5726 64.6379 73.4895 68.2361 73.4895Z" fill="#18181B"/>
<path d="M129.666 73.4895C133.264 73.4895 136.181 70.5726 136.181 66.9745C136.181 63.3763 133.264 60.4595 129.666 60.4595C126.068 60.4595 123.151 63.3763 123.151 66.9745C123.151 70.5726 126.068 73.4895 129.666 73.4895Z" fill="#18181B"/>
</svg>
