<svg width="200" height="200" viewBox="0 0 200 200" fill="none" xmlns="http://www.w3.org/2000/svg">
<g clip-path="url(#clip0_13_580)">
<circle cx="99.95" cy="99.95" r="99.95" fill="white"/>
<path d="M150.25 13.25C165.75 22.25 177.75 34.5 186.75 49.75C195.5 65.25 200 81.75 200 99.75C200 121.5 193.75 141 181 158.5C168.25 176 152 188 131.75 194.75C129.25 195 127.5 194.75 126.5 193.75C125.25 192.5 124.75 191.25 124.75 189.75V162.25C124.75 153.75 122.5 147.75 118 143.75C122.75 143.25 127.25 142.5 131.25 141.5C135.25 140.5 139.25 138.75 143.5 136.5C147.75 134 151.25 131.25 154 127.75C157 124.25 159.25 119.75 161 114C162.75 108.5 163.75 102 163.75 94.5C163.75 84 160.25 75.25 153.5 67.75C156.75 60 156.5 51 152.5 41.25C150 40.5 146.5 41 142 42.75C137.5 44.5 133.5 46.5 130 48.5L125 51.5C117 49.25 108.5 48 100 48C91.5 48 83 49.25 75 51.5C73.75 50.5 71.75 49.5 69.5 48C67.25 46.75 63.75 45 58.75 43C53.75 41 50 40.5 47.5 41.25C43.5 51 43.25 59.75 46.5 67.75C39.75 75 36.25 84 36.25 94.5C36.25 101.75 37.25 108.25 39 114C40.75 119.75 43 124.25 45.75 127.75C48.5 131.25 52 134.25 56.25 136.5C60.5 138.75 64.5 140.5 68.5 141.5C72.25 142.5 76.75 143.25 81.75 143.75C78.25 147 76 151.5 75.25 157.25C73.5 158.25 71.5 158.75 69.5 159.25C67.25 159.75 64.75 160 62 160C59.25 160 56.25 159 53.5 157.25C50.75 155.25 48.25 152.5 46.25 149C44.75 146.25 42.5 144 40 142.25C37.5 140.75 35.25 139.5 33.5 139.25C31.5 140 38.25 145 39 147L41.5 152.5C42.75 155.75 44.5 158.5 47.25 160.5C50 162.75 52.75 164 56 164.5C59 165.25 62 165.5 65 165.5C68 165.5 70.25 165.25 72.25 165C74.25 164.75 75.25 164.5 75.25 164.5V183V190C75.25 191.75 74.75 193 73.5 194C72.25 195.25 70.5 195.5 68.25 195C48.25 188.25 31.75 176.25 19 158.75C6.25 141.5 0 121.75 0 100C0 81.75 4.5 65.25 13.5 49.75C22.5 34.5 34.5 22.25 49.75 13.5C65 4.5 81.75 0 100 0C118.25 0 135 4.50001 150.25 13.25Z" fill="#302839"/>
</g>
<defs>
<clipPath id="clip0_13_580">
<rect width="200" height="200" fill="white"/>
</clipPath>
</defs>
</svg>
