<svg width="200" height="200" viewBox="0 0 200 200" fill="none" xmlns="http://www.w3.org/2000/svg">
<g clip-path="url(#clip0_9_479)">
<path d="M42 91L78 48L110.5 64L132.5 91L152.5 149.5L156 176L144.5 191L130 181.5L116 171.5L98.5 167H86L63.5 177.5L47.5 188L38 189.5L27.5 170L29 139.5L42 91Z" fill="white"/>
<g clip-path="url(#clip1_9_479)">
<path d="M39.575 96.325C38.875 98.15 38.25 99.775 37.6 101.325C33.1095 112.654 29.8736 124.441 27.95 136.475C25.8385 147.808 25.3837 159.387 26.6 170.85C27.0944 175.534 28.3351 180.108 30.275 184.4C31.6783 187.694 34.2881 190.326 37.5697 191.758C40.8513 193.189 44.5561 193.312 47.925 192.1C52.2583 190.638 56.2903 188.402 59.825 185.5C63.375 182.85 66.8 179.975 70.575 177.7C87.175 167.7 104 168.1 120.575 177.425C125.4 180.125 129.7 183.675 134.275 186.825C136.325 188.225 138.4 189.6 140.5 190.95C147.65 195.475 153.15 192.825 156.8 185.7C159.448 180.023 160.453 173.718 159.7 167.5C159.061 158.796 157.588 150.173 155.3 141.75C154.925 140.35 154.8 139.25 156.45 138.25C158.406 137.022 160.232 135.598 161.9 134C163.975 132.125 165.4 131.925 167.1 134.15C168.165 135.631 168.86 137.345 169.125 139.15C169.65 142.125 169.5 145.25 170.1 148.2C170.546 150.163 171.397 152.011 172.6 153.625C173.02 154.041 173.537 154.347 174.104 154.512C174.672 154.678 175.272 154.7 175.85 154.575C176.427 154.264 176.925 153.825 177.306 153.292C177.687 152.759 177.942 152.146 178.05 151.5C177.931 149.02 177.613 146.554 177.1 144.125C176.839 142.766 176.713 141.384 176.725 140C176.682 139.328 176.832 138.658 177.156 138.067C177.48 137.477 177.965 136.991 178.554 136.666C179.144 136.341 179.814 136.191 180.486 136.232C181.158 136.273 181.805 136.505 182.35 136.9C183.917 137.789 185.306 138.958 186.45 140.35C189.2 143.7 194.1 142.425 196.7 140.6C197.038 140.346 197.319 140.026 197.528 139.659C197.736 139.292 197.867 138.886 197.911 138.466C197.956 138.046 197.913 137.622 197.787 137.219C197.66 136.816 197.452 136.444 197.175 136.125C195.638 133.452 193.254 131.367 190.4 130.2C188.775 129.525 187.175 128.8 184.575 127.7C185.634 126.99 186.776 126.41 187.975 125.975C190.475 125.525 193.2 125.3 195.8 124.975C196.425 124.99 197.045 124.865 197.615 124.609C198.185 124.353 198.69 123.972 199.093 123.494C199.496 123.017 199.787 122.455 199.944 121.85C200.101 121.246 200.12 120.613 200 120C199.825 116.675 198.35 115.6 195 116.7C192.9 117.425 190.925 118.45 188.9 119.2C184.775 121.025 183.275 120.6 180.375 117.075C179.671 116.228 178.825 115.509 177.875 114.95C176.15 114 174.525 113.175 174 110.975C173.816 110.541 173.532 110.156 173.172 109.852C172.811 109.548 172.384 109.333 171.925 109.225C169.625 109.075 169.3 107.6 169.125 105.85C169.095 105.012 169.011 104.177 168.875 103.35C166.025 92.8 166.9 93.9 155.375 90.125C153.777 89.6602 152.148 89.3093 150.5 89.075C147.775 88.6 145.35 88.15 144.175 84.85C143.588 83.713 142.634 82.8079 141.467 82.2814C140.301 81.755 138.991 81.6382 137.75 81.95C133.025 82.625 131.125 80.175 129.05 76.375C119.869 59.944 109.517 44.195 98.075 29.25C93.075 22.575 87.925 16.05 82.825 9.47498C82.4159 8.91632 81.9645 8.38978 81.475 7.89998C79.875 6.29998 78.725 6.29998 77.425 8.09998C76.8217 9.02725 76.3188 10.0162 75.925 11.05C65.925 33.5833 55.925 56.0833 45.925 78.55C44.95 80.75 43.975 81.875 41.425 81.6C39.7687 81.2984 38.0615 81.4558 36.4883 82.0551C34.915 82.6544 33.5358 83.6728 32.5 85C30.825 87.05 28.65 85 26.75 84.675C25.9674 84.6234 25.2362 84.2675 24.7128 83.6834C24.1895 83.0993 23.9157 82.3335 23.95 81.55C23.95 79.9 23.95 78.225 24.1 76.55C24.45 72.575 24.9 68.575 25.3 64.575C25.5 62.725 25.775 61.125 28.15 60.625C29.0479 60.3936 29.8261 59.8337 30.3308 59.0559C30.8354 58.2781 31.0296 57.3392 30.875 56.425C30.7766 55.7684 30.8162 55.0985 30.9913 54.458C31.1664 53.8176 31.4731 53.2207 31.8918 52.7055C32.3106 52.1903 32.8322 51.7681 33.4234 51.4658C34.0145 51.1635 34.6622 50.9878 35.325 50.95C38.4355 50.3439 41.5851 49.9596 44.75 49.8C48.25 49.8 50.25 49.125 50.8 47.3C51.1529 45.8763 51.0672 44.3792 50.5541 43.0051C50.0411 41.631 49.1246 40.444 47.925 39.6C46.6425 38.8931 45.2019 38.5224 43.7375 38.5224C42.2731 38.5224 40.8325 38.8931 39.55 39.6C38.7535 40.1442 37.9179 40.6288 37.05 41.05C36.075 41.3 34.55 41.525 34.075 41.05C33.7588 40.6308 33.5464 40.1426 33.4552 39.6255C33.3639 39.1084 33.3964 38.5771 33.55 38.075C34.475 35.575 35.85 33.35 36.925 30.95C38.1027 28.5541 39.073 26.0616 39.825 23.5C40.625 20.325 39.6 18.65 37.075 17.9C34.55 17.15 33 18.275 31.75 21.225C30.725 23.725 29.625 26 28.475 28.35C28.0852 29.0914 27.5393 29.7396 26.875 30.25C25.45 31.425 24.15 30.95 24.1 29.075C24.0289 26.3036 24.1458 23.5306 24.45 20.775C24.7345 19.7083 24.6804 18.5795 24.2952 17.5449C23.9101 16.5103 23.2128 15.6209 22.3 15C21.6381 14.537 20.8626 14.2629 20.0567 14.2071C19.2508 14.1513 18.4449 14.316 17.7255 14.6834C17.006 15.0508 16.4002 15.6072 15.9729 16.2927C15.5456 16.9783 15.313 17.7673 15.3 18.575C15.2256 20.926 15.2757 23.2793 15.45 25.625C15.5122 28.0834 15.3616 30.5425 15 32.975C14.55 35.475 13.25 35.8 11.125 34.325C9.2858 32.8871 7.35691 31.5677 5.35003 30.375C4.00003 29.65 2.22503 28.725 0.825031 30.525C0.20615 31.2936 -0.131294 32.2507 -0.131294 33.2375C-0.131294 34.2243 0.20615 35.1814 0.825031 35.95C1.62773 37.0777 2.62703 38.0516 3.77503 38.825C8.5854 42.117 12.4543 46.6063 15 51.85C16.2506 55.205 18.3632 58.1713 21.125 60.45C21.4097 60.7087 21.6352 61.0257 21.7862 61.3795C21.9372 61.7333 22.0102 62.1155 22 62.5C21.525 68.3 21 74.1 20.325 80C19.932 81.7631 20.1884 83.6088 21.0473 85.198C21.9062 86.7871 23.3097 88.0129 25 88.65C26.3827 89.2881 27.8338 89.7662 29.325 90.075C30.2825 90.2009 31.2043 90.5207 32.0339 91.0151C32.8635 91.5094 33.5836 92.1678 34.15 92.95C34.8307 93.8205 35.6813 94.5434 36.65 95.075C37.5907 95.5679 38.5687 95.9858 39.575 96.325V96.325ZM31.475 157.5C31.6088 147.251 33.0026 137.058 35.625 127.15C38.925 115.9 43.125 104.925 46.7 93.725C47.0631 92.3304 47.9006 91.1059 49.0685 90.2619C50.2365 89.4178 51.662 89.007 53.1 89.1H54.775C55.3207 89.1809 55.8771 89.1523 56.4116 89.0157C56.9461 88.8791 57.448 88.6372 57.888 88.3044C58.328 87.9715 58.6971 87.5542 58.9739 87.077C59.2507 86.5998 59.4296 86.0722 59.5 85.525C60.1421 83.1011 61.154 80.7906 62.5 78.675C69.275 67.85 81.9 62.8 95.45 65.5C105.05 67.4 112.95 72.5 116.65 81.7C118.55 86.25 121.075 87.85 125.55 87.45H126C126.824 87.3042 127.673 87.4586 128.393 87.8852C129.113 88.3117 129.657 88.9822 129.925 89.775C130.4 90.8 131.025 91.725 131.45 92.725C140.235 112.296 146.89 132.756 151.3 153.75C152.697 160.404 153.101 167.228 152.5 174C152.103 176.986 151.145 179.87 149.675 182.5C147.675 186.2 144.675 186.875 140.85 185C138.764 183.902 136.759 182.657 134.85 181.275C130.875 178.5 127.05 175.5 122.975 172.9C112.275 165.719 99.2378 162.894 86.525 165C76.5605 166.956 67.2996 171.539 59.7 178.275C56.8386 180.673 53.7774 182.823 50.55 184.7C49.1122 185.712 47.4449 186.349 45.6988 186.554C43.9528 186.759 42.1832 186.526 40.55 185.875C37.9547 184.536 35.9693 182.255 35 179.5C31.875 172.5 31.75 165 31.475 157.5ZM146.725 91.8C151.725 93.275 156.15 94.6 160.625 95.975C161.562 96.2763 162.389 96.8475 163.003 97.6168C163.616 98.3862 163.989 99.3196 164.075 100.3C164.55 103.15 164.825 106.05 165.425 108.9C165.653 109.622 165.643 110.399 165.395 111.115C165.148 111.831 164.676 112.448 164.05 112.875C163.274 113.377 162.696 114.131 162.413 115.011C162.131 115.89 162.161 116.84 162.5 117.7C162.926 118.737 162.934 119.898 162.524 120.942C162.114 121.985 161.318 122.83 160.3 123.3C158.501 124.59 156.613 125.751 154.65 126.775C154.14 127.079 153.564 127.256 152.971 127.289C152.378 127.322 151.786 127.211 151.245 126.965C150.705 126.719 150.232 126.346 149.867 125.878C149.502 125.409 149.256 124.859 149.15 124.275C146 115.7 142.875 107.15 139.775 98.55C139.475 97.7 139.125 96.05 139.45 96.05C141.825 94.425 144.3 93.15 146.725 91.8V91.8Z" fill="#4E7896"/>
</g>
<path d="M81.2442 118.788C81.2442 118.788 79.2789 119.961 82.6113 120.296C86.6272 120.799 88.7634 120.715 93.2066 119.877C93.2066 119.877 94.4029 120.631 96.0263 121.218C86.0292 125.407 73.3832 120.967 81.2442 118.788ZM79.9625 113.343C79.9625 113.343 77.8264 114.935 81.1587 115.27C85.5165 115.689 88.9343 115.772 94.8301 114.6C94.8301 114.6 95.5991 115.437 96.8808 115.856C84.8329 119.375 71.3324 116.191 79.9625 113.343ZM103.546 122.893C103.546 122.893 104.998 124.066 101.922 124.988C96.1972 126.663 77.9117 127.166 72.785 124.988C70.9906 124.234 74.4085 123.145 75.5192 122.977C76.63 122.726 77.2281 122.726 77.2281 122.726C75.2629 121.385 64.1549 125.49 71.5887 126.663C92.0102 129.931 108.843 125.239 103.546 122.893ZM82.1841 107.646C82.1841 107.646 72.8705 109.824 78.8517 110.578C81.4151 110.913 86.4564 110.83 91.1559 110.495C95.001 110.159 98.8461 109.489 98.8461 109.489C98.8461 109.489 97.4789 110.076 96.539 110.662C87.0546 113.092 68.8545 112.003 74.0667 109.489C78.5099 107.395 82.1841 107.646 82.1841 107.646ZM98.8461 116.778C108.416 111.919 103.973 107.227 100.897 107.814C100.128 107.981 99.786 108.149 99.786 108.149C99.786 108.149 100.042 107.646 100.64 107.479C106.707 105.384 111.492 113.762 98.6753 117.029C98.6753 117.029 98.7606 116.945 98.8461 116.778ZM83.124 130.014C92.3522 130.601 106.451 129.679 106.793 125.407C106.793 125.407 106.109 127.082 99.1879 128.339C91.3268 129.763 81.5861 129.596 75.8611 128.674C75.8611 128.674 77.0574 129.679 83.124 130.014Z" fill="#4E7896"/>
<path d="M93.0357 80C93.0357 80 98.3334 85.2779 87.9944 93.2366C79.7061 99.6874 86.1146 103.374 87.9944 107.562C83.124 103.29 79.6207 99.5198 82.0132 96.0012C85.5165 90.8071 95.1719 88.2938 93.0357 80ZM90.3015 104.044C92.7794 106.808 89.6179 109.322 89.6179 109.322C89.6179 109.322 95.9409 106.138 93.0357 102.201C90.3869 98.4308 88.3362 96.5877 99.4441 90.3045C99.4441 90.3045 81.9278 94.5771 90.3015 104.044Z" fill="#F80102"/>
</g>
<defs>
<clipPath id="clip0_9_479">
<rect width="200" height="200" fill="white"/>
</clipPath>
<clipPath id="clip1_9_479">
<rect width="200" height="200" fill="white" transform="matrix(-1 0 0 1 200 0)"/>
</clipPath>
</defs>
</svg>
