<svg width="200" height="200" viewBox="0 0 200 200" fill="none" xmlns="http://www.w3.org/2000/svg">
<path fill-rule="evenodd" clip-rule="evenodd" d="M151.44 127.249L179.303 99.2553C184.037 94.4986 191.713 94.4986 196.449 99.2553C201.184 104.012 201.184 111.724 196.449 116.482L160.013 153.09C155.279 157.847 147.601 157.847 142.867 153.09L108.572 118.633L125.717 101.405L151.44 127.249Z" fill="#16B8A2"/>
<path fill-rule="evenodd" clip-rule="evenodd" d="M46.4179 73.418L99.9959 127.248L153.58 73.412C158.316 68.6537 165.992 68.6537 170.726 73.412C175.461 78.1687 175.461 85.881 170.726 90.6392L108.569 153.089C103.835 157.846 96.1588 157.846 91.4224 153.089L29.2714 90.6453C24.5373 85.887 24.5373 78.1748 29.2714 73.418C34.0078 68.6613 41.6838 68.6613 46.4179 73.418Z" fill="#FFB41F"/>
<path fill-rule="evenodd" clip-rule="evenodd" d="M3.5509 116.487L39.9808 153.088C44.7154 157.845 52.3915 157.845 57.1255 153.088L145.006 64.7944C149.74 60.0377 149.74 52.3255 145.006 47.5687C140.27 42.8104 132.594 42.8104 127.859 47.5687L48.5537 127.248L20.6974 99.2596C15.9616 94.5029 8.28555 94.5029 3.5509 99.2596C-1.18375 104.018 -1.18375 111.73 3.5509 116.487Z" fill="#F56358"/>
<path fill-rule="evenodd" clip-rule="evenodd" d="M54.9938 47.5759C59.7284 42.8191 67.4045 42.8191 72.1402 47.5759L125.718 101.406L108.572 118.633L54.9938 64.8031C50.2597 60.0449 50.2597 52.3326 54.9938 47.5759Z" fill="#16B8A2"/>
</svg>
