<svg width="200" height="200" viewBox="0 0 200 200" fill="none" xmlns="http://www.w3.org/2000/svg">
<path fill-rule="evenodd" clip-rule="evenodd" d="M48.5599 127.249L20.6973 99.2553C15.9629 94.4986 8.28681 94.4986 3.55084 99.2553C-1.18361 104.012 -1.18361 111.724 3.55084 116.482L39.9867 153.09C44.7212 157.847 52.3988 157.847 57.1329 153.09L91.4276 118.633L74.2828 101.405L48.5599 127.249Z" fill="#16B8A2"/>
<path fill-rule="evenodd" clip-rule="evenodd" d="M153.582 73.418L100.004 127.248L46.4201 73.412C41.6842 68.6537 34.0081 68.6537 29.2736 73.412C24.5392 78.1687 24.5392 85.881 29.2736 90.6392L91.431 153.089C96.1651 157.846 103.841 157.846 108.577 153.089L170.728 90.6453C175.463 85.887 175.463 78.1748 170.728 73.418C165.992 68.6613 158.316 68.6613 153.582 73.418Z" fill="#FFB41F"/>
<path fill-rule="evenodd" clip-rule="evenodd" d="M196.449 116.487L160.019 153.088C155.284 157.845 147.608 157.845 142.874 153.088L54.9943 64.7944C50.2599 60.0377 50.2599 52.3255 54.9943 47.5687C59.7301 42.8104 67.4062 42.8104 72.1408 47.5687L151.446 127.248L179.302 99.2596C184.038 94.5029 191.714 94.5029 196.449 99.2596C201.184 104.018 201.184 111.73 196.449 116.487Z" fill="#F56358"/>
<path fill-rule="evenodd" clip-rule="evenodd" d="M145.006 47.5759C140.272 42.8191 132.596 42.8191 127.86 47.5759L74.2817 101.406L91.4282 118.633L145.006 64.8031C149.74 60.0449 149.74 52.3326 145.006 47.5759Z" fill="#16B8A2"/>
</svg>
