<svg width="200" height="200" viewBox="0 0 200 200" fill="none" xmlns="http://www.w3.org/2000/svg">
<g clip-path="url(#clip0_1_1942)">
<path fill-rule="evenodd" clip-rule="evenodd" d="M93.9821 97.1286C107.495 84.2384 103.369 68.293 91.1261 48.97C78.8835 29.6469 54.2435 22.7696 49.6476 27.1537C45.0516 31.5379 44.0371 62.8874 56.2798 82.2105C68.5224 101.533 80.4692 110.019 93.9821 97.1286Z" fill="url(#paint0_linear_1_1942)"/>
<path fill-rule="evenodd" clip-rule="evenodd" d="M104.837 97.1286C91.3241 84.2384 95.4503 68.293 107.693 48.9699C119.936 29.6469 144.576 22.7696 149.172 27.1537C153.767 31.5379 154.782 62.8874 142.539 82.2105C130.297 101.533 118.35 110.019 104.837 97.1286Z" fill="url(#paint1_linear_1_1942)"/>
<path fill-rule="evenodd" clip-rule="evenodd" d="M97.734 90.533C114.466 90.533 119.07 74.4959 119.058 49.4892C119.045 24.4824 103.38 -0.0245361 97.6893 -0.0245361C91.9985 -0.0245361 75.8987 24.4824 75.9111 49.4892C75.9234 74.4959 81.0023 90.533 97.734 90.533Z" fill="url(#paint2_linear_1_1942)"/>
<path fill-rule="evenodd" clip-rule="evenodd" d="M96.0167 200C130.826 200 159.056 189.876 159.056 143.964C159.056 98.0524 130.826 60.3774 96.0167 60.3774C61.2074 60.3774 33 98.0524 33 143.964C33 189.876 61.2074 200 96.0167 200Z" fill="url(#paint3_linear_1_1942)"/>
<path d="M99 131.5L87 130.5L86.5 131L89.5 136L93 137.5L96.5 136L99 131.5Z" fill="white" stroke="black"/>
<path d="M58.7428 134.369C62.1986 135.193 65.1735 133.118 65.3875 129.733C65.6015 126.349 62.9735 122.938 59.5178 122.114C56.062 121.29 53.0871 123.366 52.8731 126.75C52.6591 130.134 55.2871 133.545 58.7428 134.369Z" fill="#EAADCC"/>
<path d="M128.032 137.508C124.576 138.332 121.602 136.257 121.388 132.873C121.174 129.488 123.802 126.077 127.257 125.253C130.713 124.429 133.688 126.505 133.902 129.889C134.116 133.273 131.488 136.684 128.032 137.508Z" fill="#EAADCC"/>
<path fill-rule="evenodd" clip-rule="evenodd" d="M83.7986 126.143C83.2231 126.532 83.071 127.313 83.4588 127.889C85.4118 130.791 88.404 132.421 92.2522 132.861C96.1293 133.305 99.5984 132.313 102.578 129.889C103.116 129.451 103.198 128.659 102.76 128.12C102.323 127.581 101.531 127.499 100.993 127.937C98.5518 129.923 95.7607 130.731 92.5375 130.362C89.2854 129.99 87.0148 128.671 85.5426 126.484C85.1548 125.907 84.374 125.755 83.7986 126.143Z" fill="black"/>
<path fill-rule="evenodd" clip-rule="evenodd" d="M84 126.5C83.4246 126.888 83.1122 127.424 83.5 128C85.453 130.901 88.404 138.457 92.2522 138.897C96.1293 139.341 99.5209 132.424 102.5 130C103.038 129.562 102.938 128.539 102.5 128C102.062 127.461 101.531 128.535 100.993 128.973C98.5518 130.959 95.7608 136.766 92.5376 136.398C89.2854 136.026 87.0148 129.706 85.5426 127.519C85.1548 126.943 84.5754 126.112 84 126.5Z" fill="black"/>
<path fill-rule="evenodd" clip-rule="evenodd" d="M66.915 107.094C69.4002 107.007 71.6851 107.936 73.3704 109.51C75.0558 111.083 76.1415 113.3 76.2282 115.787C76.3149 118.275 75.3861 120.563 73.8144 122.25C72.2427 123.937 70.0279 125.024 67.5427 125.111C65.0578 125.198 62.773 124.269 61.0878 122.696C59.4028 121.122 58.3172 118.905 58.2305 116.417C58.1438 113.93 59.0725 111.642 60.644 109.955C62.2156 108.268 64.43 107.181 66.915 107.094Z" fill="black"/>
<path fill-rule="evenodd" clip-rule="evenodd" d="M72.3875 114.629C72.331 113.009 70.973 111.741 69.3557 111.798C67.7374 111.855 66.4713 113.214 66.5278 114.834C66.5842 116.453 67.9418 117.721 69.56 117.664C71.1773 117.607 72.4439 116.248 72.3875 114.629Z" fill="white"/>
<path fill-rule="evenodd" clip-rule="evenodd" d="M121.471 109.382C123.956 109.295 126.241 110.224 127.926 111.798C129.611 113.371 130.697 115.588 130.784 118.075C130.87 120.563 129.942 122.851 128.37 124.538C126.798 126.225 124.584 127.313 122.099 127.4C119.614 127.486 117.329 126.557 115.643 124.984C113.958 123.41 112.873 121.193 112.786 118.705C112.699 116.218 113.628 113.93 115.2 112.243C116.771 110.556 118.986 109.469 121.471 109.382Z" fill="black"/>
<path d="M74.9727 115.831C75.1218 120.113 71.7756 123.704 67.4986 123.854C63.2221 124.004 59.6348 120.655 59.4858 116.374C59.3368 112.093 62.6825 108.501 66.959 108.351C71.236 108.201 74.8237 111.55 74.9727 115.831ZM77.4841 115.743C77.2868 110.074 72.5355 105.639 66.8715 105.837C61.208 106.036 56.7771 110.792 56.9744 116.462C57.1718 122.132 61.9225 126.567 67.5861 126.368C73.2502 126.17 77.6815 121.413 77.4841 115.743Z" fill="white"/>
<path fill-rule="evenodd" clip-rule="evenodd" d="M66.8934 106.466C72.2106 106.279 76.671 110.443 76.8563 115.765C77.0415 121.088 72.8815 125.553 67.5642 125.74C62.2474 125.926 57.7875 121.762 57.6022 116.44C57.417 111.117 61.5766 106.652 66.8934 106.466ZM78.112 115.721C77.9025 109.704 72.8603 104.998 66.8496 105.209C60.8393 105.419 56.1371 110.467 56.3465 116.484C56.556 122.501 61.5975 127.207 67.608 126.997C73.6188 126.786 78.3214 121.738 78.112 115.721ZM75.6006 115.809C75.4395 111.181 71.5608 107.561 66.9371 107.723C62.3138 107.885 58.6968 111.767 58.8579 116.396C59.019 121.024 62.8971 124.645 67.5205 124.483C72.1442 124.321 75.7617 120.438 75.6006 115.809ZM66.9809 108.98C70.9112 108.842 74.2079 111.919 74.3449 115.853C74.4818 119.787 71.407 123.088 67.4767 123.226C63.547 123.363 60.2506 120.286 60.1136 116.352C59.9767 112.418 63.0511 109.117 66.9809 108.98Z" fill="white"/>
<path d="M129.528 118.119C129.677 122.401 126.332 125.992 122.055 126.142C117.778 126.292 114.19 122.943 114.041 118.662C113.892 114.381 117.238 110.789 121.515 110.639C125.792 110.489 129.379 113.838 129.528 118.119ZM132.04 118.031C131.842 112.362 127.091 107.927 121.428 108.125C115.764 108.324 111.333 113.08 111.53 118.75C111.727 124.42 116.478 128.855 122.142 128.656C127.806 128.458 132.237 123.701 132.04 118.031Z" fill="white"/>
<path fill-rule="evenodd" clip-rule="evenodd" d="M121.449 108.754C126.767 108.567 131.227 112.731 131.412 118.053C131.597 123.376 127.437 127.841 122.12 128.028C116.803 128.214 112.343 124.05 112.158 118.728C111.973 113.405 116.133 108.94 121.449 108.754ZM132.668 118.009C132.458 111.992 127.416 107.286 121.406 107.497C115.395 107.707 110.693 112.755 110.902 118.772C111.112 124.789 116.154 129.495 122.164 129.285C128.175 129.074 132.877 124.026 132.668 118.009ZM130.156 118.097C129.995 113.469 126.117 109.849 121.493 110.011C116.87 110.173 113.252 114.055 113.413 118.684C113.575 123.312 117.453 126.933 122.076 126.771C126.7 126.609 130.317 122.726 130.156 118.097ZM121.537 111.268C125.467 111.13 128.763 114.207 128.9 118.141C129.037 122.076 125.963 125.376 122.033 125.514C118.103 125.651 114.806 122.574 114.669 118.64C114.532 114.706 117.607 111.405 121.537 111.268Z" fill="white"/>
<path fill-rule="evenodd" clip-rule="evenodd" d="M126.943 116.917C126.887 115.297 125.529 114.029 123.911 114.086C122.293 114.143 121.027 115.502 121.083 117.122C121.14 118.741 122.497 120.009 124.115 119.952C125.733 119.895 127 118.536 126.943 116.917Z" fill="white"/>
<path fill-rule="evenodd" clip-rule="evenodd" d="M52.4769 152.436C53.0953 151.838 54.0783 151.858 54.6726 152.48L75.5667 174.355C76.161 174.977 76.1415 175.966 75.5231 176.564C74.9047 177.162 73.9217 177.142 73.3274 176.52L52.4333 154.645C51.839 154.023 51.8585 153.034 52.4769 152.436Z" fill="#ECB732"/>
<path fill-rule="evenodd" clip-rule="evenodd" d="M72.492 154.44C73.1408 155.054 73.1723 156.081 72.5625 156.735L58.7867 171.489C58.1769 172.142 57.1567 172.173 56.508 171.56C55.8592 170.946 55.8277 169.919 56.4375 169.265L70.2133 154.511C70.8231 153.858 71.8433 153.827 72.492 154.44Z" fill="#ECB732"/>
<path fill-rule="evenodd" clip-rule="evenodd" d="M137.603 154.366C137.087 153.864 136.268 153.88 135.773 154.403L118.361 172.778C117.866 173.301 117.882 174.132 118.397 174.634C118.913 175.136 119.732 175.12 120.227 174.597L137.639 156.222C138.134 155.699 138.118 154.868 137.603 154.366Z" fill="#ECB732"/>
<path fill-rule="evenodd" clip-rule="evenodd" d="M120.418 156.367C119.884 156.879 119.858 157.735 120.36 158.279L131.705 170.574C132.207 171.118 133.047 171.145 133.582 170.633C134.116 170.121 134.142 169.265 133.64 168.721L122.295 156.426C121.793 155.882 120.953 155.855 120.418 156.367Z" fill="#ECB732"/>
<path fill-rule="evenodd" clip-rule="evenodd" d="M105.544 79.4564C106.152 80.065 106.152 81.0517 105.544 81.6602L91.6602 95.5436C91.0517 96.1521 90.065 96.1521 89.4564 95.5436C88.8479 94.935 88.8479 93.9483 89.4564 93.3398L103.34 79.4564C103.948 78.8479 104.935 78.8479 105.544 79.4564Z" fill="#FFC73B"/>
<path fill-rule="evenodd" clip-rule="evenodd" d="M102.544 95.5436C103.152 94.935 103.152 93.9483 102.544 93.3398L88.6602 79.4564C88.0517 78.8479 87.065 78.8479 86.4564 79.4564C85.8479 80.065 85.8479 81.0517 86.4564 81.6602L100.34 95.5436C100.948 96.1521 101.935 96.1521 102.544 95.5436Z" fill="#FFC73B"/>
</g>
<defs>
<linearGradient id="paint0_linear_1_1942" x1="6797.4" y1="-5250.88" x2="12405.1" y2="10425" gradientUnits="userSpaceOnUse">
<stop stop-color="#52CE63"/>
<stop offset="1" stop-color="#51A256"/>
</linearGradient>
<linearGradient id="paint1_linear_1_1942" x1="-6598.58" y1="-5250.88" x2="-12206.3" y2="10425" gradientUnits="userSpaceOnUse">
<stop stop-color="#52CE63"/>
<stop offset="1" stop-color="#51A256"/>
</linearGradient>
<linearGradient id="paint2_linear_1_1942" x1="6957.8" y1="-0.024537" x2="6957.8" y2="25404" gradientUnits="userSpaceOnUse">
<stop stop-color="#8AE99C"/>
<stop offset="1" stop-color="#52CE63"/>
</linearGradient>
<linearGradient id="paint3_linear_1_1942" x1="20692.8" y1="11697.1" x2="17344" y2="66622.7" gradientUnits="userSpaceOnUse">
<stop stop-color="#FFE56C"/>
<stop offset="1" stop-color="#FFC63A"/>
</linearGradient>
<clipPath id="clip0_1_1942">
<rect width="133.594" height="200" fill="white" transform="translate(33)"/>
</clipPath>
</defs>
</svg>
