<svg width="200" height="200" viewBox="0 0 200 200" fill="none" xmlns="http://www.w3.org/2000/svg">
<rect width="200" height="200" fill="white"/>
<g clip-path="url(#clip0_1_1949)">
<path fill-rule="evenodd" clip-rule="evenodd" d="M93.9821 97.1286C107.495 84.2384 103.369 68.293 91.1261 48.97C78.8835 29.6469 54.2435 22.7696 49.6476 27.1537C45.0516 31.5379 44.0371 62.8874 56.2798 82.2105C68.5224 101.533 80.4692 110.019 93.9821 97.1286Z" fill="#EAADCC"/>
<path fill-rule="evenodd" clip-rule="evenodd" d="M105.668 98.9078C115.669 114.693 129.036 108.924 145.58 93.1422C162.124 77.3607 168.98 47.1268 165.579 41.758C162.177 36.3892 136.333 36.6547 119.789 52.4362C103.246 68.2177 95.667 83.1227 105.668 98.9078Z" fill="#EAADCC"/>
<path fill-rule="evenodd" clip-rule="evenodd" d="M100.203 90.2248C116.809 92.268 123.338 76.9132 126.379 52.0921C129.421 27.271 116.865 1.0345 111.217 0.339582C105.569 -0.35534 86.5968 22.0021 83.5553 46.8233C80.5139 71.6444 83.5964 88.1816 100.203 90.2248Z" fill="url(#paint0_linear_1_1949)"/>
<path fill-rule="evenodd" clip-rule="evenodd" d="M96.0167 200C130.826 200 159.056 189.876 159.056 143.964C159.056 98.0523 130.826 60.3773 96.0167 60.3773C61.2074 60.3773 33 98.0523 33 143.964C33 189.876 61.2074 200 96.0167 200Z" fill="url(#paint1_linear_1_1949)"/>
<path d="M127.856 134.591C132.829 134.591 136.86 132.714 136.86 130.398C136.86 128.083 132.829 126.205 127.856 126.205C122.883 126.205 118.852 128.083 118.852 130.398C118.852 132.714 122.883 134.591 127.856 134.591Z" fill="#53C762"/>
<path d="M61.1766 132.044C66.1123 132.651 70.342 131.28 70.6238 128.981C70.9057 126.683 67.133 124.328 62.1974 123.721C57.2617 123.114 53.032 124.486 52.7501 126.784C52.4682 129.082 56.2409 131.437 61.1766 132.044Z" fill="#53C762"/>
<path fill-rule="evenodd" clip-rule="evenodd" d="M83.7987 126.143C83.2233 126.532 83.0711 127.313 83.4589 127.889C85.4119 130.791 88.4041 132.421 92.2523 132.861C96.1294 133.305 99.5985 132.313 102.578 129.889C103.116 129.451 103.198 128.659 102.76 128.12C102.323 127.581 101.531 127.499 100.993 127.937C98.5519 129.923 95.7609 130.731 92.5377 130.362C89.2855 129.99 87.0149 128.671 85.5427 126.484C85.1549 125.907 84.3741 125.755 83.7987 126.143Z" fill="black"/>
<path fill-rule="evenodd" clip-rule="evenodd" d="M66.915 107.094C69.4002 107.007 71.6851 107.936 73.3704 109.51C75.0558 111.083 76.1415 113.3 76.2282 115.787C76.3149 118.275 75.3861 120.563 73.8144 122.25C72.2427 123.937 70.0279 125.024 67.5427 125.111C65.0578 125.198 62.773 124.269 61.0878 122.696C59.4028 121.122 58.3172 118.905 58.2305 116.417C58.1438 113.93 59.0725 111.642 60.644 109.955C62.2156 108.268 64.43 107.181 66.915 107.094Z" fill="black"/>
<path fill-rule="evenodd" clip-rule="evenodd" d="M69.3876 119.629C69.3312 118.009 67.9731 116.741 66.3558 116.798C64.7375 116.855 63.4714 118.214 63.5279 119.834C63.5843 121.453 64.9419 122.721 66.5602 122.664C68.1775 122.607 69.444 121.248 69.3876 119.629Z" fill="white"/>
<path fill-rule="evenodd" clip-rule="evenodd" d="M121.471 109.382C123.956 109.295 126.241 110.224 127.926 111.798C129.611 113.371 130.697 115.588 130.784 118.075C130.87 120.563 129.942 122.851 128.37 124.538C126.798 126.225 124.584 127.313 122.099 127.4C119.614 127.486 117.329 126.557 115.643 124.984C113.958 123.41 112.873 121.193 112.786 118.705C112.699 116.218 113.628 113.93 115.2 112.243C116.771 110.556 118.986 109.469 121.471 109.382Z" fill="black"/>
<path d="M74.9729 115.831C75.1219 120.113 71.7757 123.704 67.4987 123.854C63.2222 124.004 59.6349 120.655 59.4859 116.374C59.3369 112.093 62.6826 108.501 66.9591 108.351C71.2361 108.201 74.8238 111.55 74.9729 115.831ZM77.4842 115.743C77.2869 110.074 72.5356 105.639 66.8716 105.837C61.2081 106.036 56.7772 110.792 56.9745 116.462C57.1719 122.132 61.9226 126.567 67.5862 126.368C73.2503 126.17 77.6816 121.413 77.4842 115.743Z" fill="white"/>
<path fill-rule="evenodd" clip-rule="evenodd" d="M66.8935 106.466C72.2107 106.279 76.6711 110.443 76.8564 115.765C77.0417 121.088 72.8817 125.553 67.5643 125.74C62.2475 125.926 57.7876 121.762 57.6024 116.44C57.4171 111.117 61.5767 106.652 66.8935 106.466ZM78.1121 115.721C77.9027 109.704 72.8604 104.998 66.8497 105.209C60.8394 105.419 56.1372 110.467 56.3467 116.484C56.5561 122.501 61.5977 127.207 67.6081 126.997C73.6189 126.786 78.3215 121.738 78.1121 115.721ZM75.6007 115.809C75.4396 111.181 71.5609 107.561 66.9372 107.723C62.3139 107.885 58.697 111.767 58.8581 116.396C59.0192 121.024 62.8973 124.645 67.5206 124.483C72.1443 124.321 75.7618 120.438 75.6007 115.809ZM66.981 108.98C70.9113 108.842 74.2081 111.919 74.345 115.853C74.4819 119.787 71.4071 123.088 67.4768 123.226C63.5471 123.363 60.2507 120.286 60.1138 116.352C59.9768 112.418 63.0512 109.117 66.981 108.98Z" fill="white"/>
<path d="M129.528 118.119C129.677 122.401 126.332 125.992 122.055 126.142C117.778 126.292 114.19 122.943 114.041 118.662C113.892 114.381 117.238 110.789 121.515 110.639C125.792 110.489 129.379 113.838 129.528 118.119ZM132.04 118.031C131.842 112.362 127.091 107.927 121.428 108.125C115.764 108.324 111.333 113.08 111.53 118.75C111.727 124.42 116.478 128.855 122.142 128.656C127.806 128.458 132.237 123.701 132.04 118.031Z" fill="white"/>
<path fill-rule="evenodd" clip-rule="evenodd" d="M121.449 108.754C126.767 108.567 131.227 112.731 131.412 118.053C131.597 123.376 127.437 127.841 122.12 128.028C116.803 128.214 112.343 124.05 112.158 118.728C111.973 113.405 116.133 108.94 121.449 108.754ZM132.668 118.009C132.458 111.992 127.416 107.286 121.406 107.497C115.395 107.707 110.693 112.755 110.902 118.772C111.112 124.789 116.154 129.495 122.164 129.285C128.175 129.074 132.877 124.026 132.668 118.009ZM130.156 118.097C129.995 113.469 126.117 109.849 121.493 110.011C116.87 110.173 113.252 114.055 113.413 118.684C113.575 123.312 117.453 126.933 122.076 126.771C126.7 126.609 130.317 122.726 130.156 118.097ZM121.537 111.268C125.467 111.13 128.763 114.207 128.9 118.141C129.037 122.076 125.963 125.376 122.033 125.514C118.103 125.651 114.806 122.574 114.669 118.64C114.532 114.706 117.607 111.405 121.537 111.268Z" fill="white"/>
<path fill-rule="evenodd" clip-rule="evenodd" d="M123.943 121.917C123.887 120.297 122.529 119.029 120.911 119.086C119.293 119.143 118.027 120.502 118.083 122.122C118.14 123.741 119.497 125.009 121.115 124.952C122.733 124.895 124 123.536 123.943 121.917Z" fill="white"/>
<path fill-rule="evenodd" clip-rule="evenodd" d="M46.6897 146.555C47.6069 145.673 49.065 145.702 49.9465 146.62L80.9369 178.905C81.8184 179.823 81.7894 181.283 80.8722 182.166C79.955 183.048 78.4969 183.019 77.6154 182.101L46.625 149.816C45.7436 148.898 45.7725 147.438 46.6897 146.555Z" fill="#ECB732"/>
<path fill-rule="evenodd" clip-rule="evenodd" d="M76.6658 150.311C77.5927 151.184 77.6378 152.643 76.7665 153.571L57.0834 174.535C56.2122 175.463 54.7545 175.509 53.8276 174.636C52.9007 173.764 52.8556 172.304 53.7269 171.376L73.41 150.412C74.2812 149.484 75.7389 149.439 76.6658 150.311Z" fill="#ECB732"/>
<path fill-rule="evenodd" clip-rule="evenodd" d="M144.947 146.555C144.03 145.673 142.572 145.702 141.69 146.62L110.7 178.905C109.818 179.823 109.847 181.283 110.765 182.166C111.682 183.048 113.14 183.019 114.021 182.101L145.012 149.816C145.893 148.898 145.864 147.438 144.947 146.555Z" fill="#ECB732"/>
<path fill-rule="evenodd" clip-rule="evenodd" d="M114.971 150.311C114.044 151.184 113.999 152.643 114.87 153.571L134.553 174.535C135.425 175.463 136.882 175.509 137.809 174.636C138.736 173.764 138.781 172.304 137.91 171.376L118.227 150.412C117.355 149.484 115.898 149.439 114.971 150.311Z" fill="#ECB732"/>
</g>
<defs>
<linearGradient id="paint0_linear_1_1949" x1="6919.98" y1="838.06" x2="3817.77" y2="26052" gradientUnits="userSpaceOnUse">
<stop stop-color="#8AE99C"/>
<stop offset="1" stop-color="#52CE63"/>
</linearGradient>
<linearGradient id="paint1_linear_1_1949" x1="20692.8" y1="11697.1" x2="17344" y2="66622.7" gradientUnits="userSpaceOnUse">
<stop stop-color="#FFE56C"/>
<stop offset="1" stop-color="#FFC63A"/>
</linearGradient>
<clipPath id="clip0_1_1949">
<rect width="133.594" height="200" fill="white" transform="translate(33)"/>
</clipPath>
</defs>
</svg>
