<svg width="200" height="200" viewBox="0 0 200 200" fill="none" xmlns="http://www.w3.org/2000/svg">
<g clip-path="url(#clip0_28_284)">
<g clip-path="url(#clip1_28_284)">
<path d="M89.5158 118.079C99.4495 123.814 112.185 120.353 117.961 110.348C123.737 100.344 120.367 87.584 110.433 81.8488C100.5 76.1136 87.7643 79.5747 81.9881 89.5794C76.2119 99.584 79.5822 112.344 89.5158 118.079Z" fill="#377CA0"/>
<path fill-rule="evenodd" clip-rule="evenodd" d="M59.038 55.9001C43.5469 52.9534 34.0891 55.0052 31.0929 60.1948C28.0967 65.3844 31.0487 74.6011 41.346 86.5434C51.3717 98.1706 67.3634 111.112 86.9944 122.446C106.625 133.78 125.829 141.158 140.911 144.027C156.402 146.974 165.86 144.922 168.856 139.732C171.852 134.543 168.9 125.326 158.603 113.384C148.577 101.757 132.585 88.8155 112.954 77.4815C93.3235 66.1475 74.1202 58.7689 59.038 55.9001ZM59.0218 49.0567C75.467 52.1848 95.786 60.0752 116.199 71.861C136.613 83.6467 153.606 97.2983 164.537 109.976C175.197 122.339 181.175 135.14 176.107 143.919C171.038 152.698 156.963 153.921 140.927 150.871C124.482 147.742 104.163 139.852 83.7493 128.066C63.3359 116.281 46.343 102.629 35.4114 89.951C24.7516 77.5883 18.7736 64.7876 23.8422 56.0087C28.9107 47.2297 42.9854 46.0064 59.0218 49.0567Z" fill="#377CA0"/>
<path fill-rule="evenodd" clip-rule="evenodd" d="M120.039 42.1105C114.247 27.1597 106.957 19.9791 100.221 19.9999C93.4846 20.0207 86.1494 27.2465 80.2653 42.2334C74.5364 56.8247 70.8635 77.2646 70.7933 100.054C70.7232 122.843 74.2703 143.261 79.9094 157.817C85.7015 172.768 92.9923 179.949 99.7283 179.928C106.464 179.907 113.799 172.681 119.684 157.694C125.412 143.103 129.085 122.663 129.156 99.8737C129.226 77.0842 125.679 56.6666 120.039 42.1105ZM126.703 38.6358C132.852 54.5074 136.524 76.1533 136.451 99.8511C136.378 123.549 132.572 145.218 126.326 161.128C120.234 176.642 111.097 188.31 99.7024 188.345C88.3075 188.38 79.242 176.769 73.2461 161.292C67.0973 145.42 63.4251 123.774 63.498 100.077C63.571 76.3787 67.3766 54.7097 73.6232 38.7998C79.7145 23.2854 88.8516 11.6179 100.247 11.5827C111.641 11.5475 120.707 23.1588 126.703 38.6358Z" fill="#377CA0"/>
<path fill-rule="evenodd" clip-rule="evenodd" d="M159.309 87.2663C169.497 74.9415 172.277 65.3074 169.102 59.7686C165.927 54.2298 156.253 51.8373 140.561 54.5611C125.283 57.213 105.921 64.5134 86.2198 75.9689C66.5187 87.4244 50.5599 100.662 40.6403 112.661C30.4519 124.986 27.6718 134.62 30.8469 140.159C34.0219 145.698 43.6961 148.09 59.3882 145.366C74.6662 142.714 94.0282 135.414 113.729 123.959C133.43 112.503 149.389 99.2658 159.309 87.2663ZM165.431 91.0003C154.615 104.084 137.654 118.045 117.168 129.957C96.6816 141.869 76.1966 149.681 59.5379 152.573C43.2934 155.393 28.9413 153.76 23.5703 144.39C18.1992 135.02 23.9713 121.686 34.5185 108.927C45.3345 95.8432 62.2947 81.8823 82.7811 69.9702C103.268 58.0581 123.753 50.246 140.411 47.3545C156.656 44.5348 171.008 46.1678 176.379 55.5375C181.75 64.9072 175.978 78.2417 165.431 91.0003Z" fill="#377CA0"/>
</g>
</g>
<defs>
<clipPath id="clip0_28_284">
<rect width="200" height="200" fill="white"/>
</clipPath>
<clipPath id="clip1_28_284">
<rect width="175.82" height="159.369" fill="white" transform="translate(63.6844 -13) rotate(30)"/>
</clipPath>
</defs>
</svg>
