<svg width="200" height="200" viewBox="0 0 200 200" fill="none" xmlns="http://www.w3.org/2000/svg">
<g clip-path="url(#clip0_28_278)">
<path d="M99.4999 118.442C109.862 118.442 118.262 109.961 118.262 99.4999C118.262 89.0386 109.862 80.5581 99.4999 80.5581C89.138 80.5581 80.738 89.0386 80.738 99.4999C80.738 109.961 89.138 118.442 99.4999 118.442Z" fill="#377CA0"/>
<path fill-rule="evenodd" clip-rule="evenodd" d="M35.0915 73.6821C18.4089 81.2613 10.381 90.7552 10.381 99.5C10.381 108.245 18.4089 117.739 35.0915 125.318C51.3337 132.697 74.1014 137.384 99.5 137.384C124.899 137.384 147.666 132.697 163.909 125.318C180.591 117.739 188.619 108.245 188.619 99.5C188.619 90.7552 180.591 81.2613 163.909 73.6821C147.666 66.303 124.899 61.6164 99.5 61.6164C74.1014 61.6164 51.3337 66.303 35.0915 73.6821ZM31.2418 65.0454C48.9519 56.9995 73.089 52.1455 99.5 52.1455C125.911 52.1455 150.048 56.9995 167.758 65.0454C185.028 72.8914 198 84.7069 198 99.5C198 114.293 185.028 126.109 167.758 133.955C150.048 142.001 125.911 146.855 99.5 146.855C73.089 146.855 48.9519 142.001 31.2418 133.955C13.972 126.109 1 114.293 1 99.5C1 84.7069 13.972 72.8914 31.2418 65.0454Z" fill="#377CA0"/>
<path fill-rule="evenodd" clip-rule="evenodd" d="M89.4423 30.2769C74.5996 19.4804 62.4418 17.2083 54.9405 21.5807C47.4392 25.9531 43.3093 37.7191 45.1492 56.0947C46.9405 73.9854 54.3042 96.2351 67.0035 118.442C79.7028 140.649 95.1068 158.212 109.558 168.723C124.4 179.52 136.558 181.792 144.06 177.419C151.561 173.047 155.691 161.281 153.851 142.905C152.06 125.015 144.696 102.765 131.997 80.5583C119.297 58.3515 103.893 40.7884 89.4423 30.2769ZM94.9261 22.5927C110.683 34.0542 126.915 52.7309 140.121 75.8228C153.326 98.9147 161.231 122.445 163.184 141.953C165.089 160.975 161.44 178.225 148.75 185.621C136.061 193.018 119.439 187.584 104.074 176.407C88.3171 164.946 72.0848 146.269 58.8793 123.177C45.6738 100.085 37.769 76.5547 35.8158 57.0473C33.9111 38.0248 37.5605 20.7752 50.25 13.3787C62.9395 5.98213 79.561 11.4162 94.9261 22.5927Z" fill="#377CA0"/>
<path fill-rule="evenodd" clip-rule="evenodd" d="M153.851 56.0947C155.691 37.7191 151.561 25.9531 144.06 21.5807C136.558 17.2083 124.4 19.4804 109.558 30.2769C95.1068 40.7884 79.7028 58.3515 67.0035 80.5583C54.3042 102.765 46.9405 125.015 45.1492 142.905C43.3093 161.281 47.4392 173.047 54.9405 177.419C62.4418 181.792 74.5997 179.52 89.4423 168.723C103.893 158.212 119.297 140.649 131.997 118.442C144.696 96.2351 152.06 73.9854 153.851 56.0947ZM163.184 57.0473C161.231 76.5547 153.326 100.085 140.121 123.177C126.915 146.269 110.683 164.946 94.9261 176.407C79.561 187.584 62.9395 193.018 50.25 185.621C37.5605 178.225 33.9111 160.975 35.8158 141.953C37.769 122.445 45.6738 98.9147 58.8793 75.8228C72.0848 52.7309 88.3171 34.0542 104.074 22.5927C119.439 11.4162 136.061 5.98212 148.75 13.3787C161.44 20.7752 165.089 38.0248 163.184 57.0473Z" fill="#377CA0"/>
</g>
<defs>
<clipPath id="clip0_28_278">
<rect width="197" height="179" fill="white" transform="translate(1 10)"/>
</clipPath>
</defs>
</svg>
