<svg width="200" height="200" viewBox="0 0 200 200" fill="none" xmlns="http://www.w3.org/2000/svg">
<path d="M191.878 120.026L176.309 108.557C176.162 108.047 176.016 107.536 175.865 107.03L180.979 99.6219C181.501 98.8683 181.607 97.8889 181.268 97.0294C180.928 96.1744 180.186 95.5611 179.307 95.4111L170.66 93.9436C170.325 93.2599 169.974 92.5866 169.622 91.9186L173.254 83.6014C173.628 82.7536 173.549 81.7689 173.054 81.0001C172.56 80.2274 171.722 79.7761 170.829 79.8113L162.053 80.1301C161.599 79.5384 161.137 78.9521 160.666 78.3766L162.683 69.4616C162.887 68.5561 162.629 67.6086 161.999 66.9509C161.372 66.2956 160.461 66.0244 159.595 66.2371L151.047 68.3384C150.493 67.8493 149.93 67.3663 149.361 66.8929L149.669 57.7406C149.702 56.8141 149.27 55.9336 148.528 55.4198C147.787 54.9024 146.846 54.8243 146.036 55.2088L138.061 58.9999C137.419 58.6316 136.773 58.2666 136.12 57.9138L134.711 48.8946C134.568 47.9808 133.98 47.2048 133.157 46.8503C132.336 46.4941 131.396 46.6091 130.675 47.1516L123.565 52.4861C122.865 52.2536 122.162 52.0308 121.45 51.8176L118.386 43.2649C118.074 42.3934 117.355 41.7531 116.479 41.5731C115.606 41.3944 114.708 41.6968 114.102 42.3734L108.118 49.0686C107.394 48.9853 106.67 48.9093 105.944 48.8468L101.323 41.0613C100.855 40.2726 100.028 39.7926 99.1373 39.7926C98.2483 39.7926 97.42 40.2726 96.9556 41.0613L92.3335 48.8468C91.6071 48.9093 90.8798 48.9853 90.1575 49.0686L84.1725 42.3734C83.5665 41.6968 82.6646 41.3944 81.7945 41.5731C80.9186 41.7551 80.199 42.3934 79.889 43.2649L76.822 51.8176C76.112 52.0308 75.4085 52.2554 74.7068 52.4861L67.5995 47.1516C66.8768 46.6073 65.9361 46.4924 65.1135 46.8503C64.2936 47.2048 63.7033 47.9808 63.5613 48.8946L62.1511 57.9138C61.4988 58.2666 60.853 58.6294 60.209 58.9999L52.2353 55.2088C51.4256 54.8228 50.4805 54.9024 49.743 55.4198C49.0021 55.9336 48.5693 56.8141 48.603 57.7406L48.9088 66.8929C48.3413 67.3663 47.7798 67.8493 47.2235 68.3384L38.677 66.2371C37.8086 66.0263 36.8986 66.2956 36.2701 66.9509C35.6376 67.6086 35.3816 68.5561 35.5846 69.4616L37.5978 78.3766C37.1308 78.9544 36.6686 79.5384 36.2156 80.1301L27.4398 79.8113C26.5541 79.7851 25.7088 80.2274 25.2138 81.0001C24.7183 81.7689 24.6433 82.7536 25.0116 83.6014L28.6476 91.9186C28.2945 92.5866 27.9436 93.2599 27.6061 93.9436L18.9583 95.4111C18.08 95.5591 17.34 96.1721 16.9983 97.0294C16.6583 97.8889 16.77 98.8683 17.2866 99.6219L22.4033 107.03C22.3633 107.161 22.3266 107.293 22.2866 107.424L7.82499 122.786C7.82499 122.786 5.60998 124.523 8.83664 128.605C11.6816 132.206 26.2906 146.481 34.0063 153.959C37.2653 157.756 39.4976 160.107 39.7311 159.904C40.0991 159.58 38.1666 152.673 31.7475 144.568C26.8 137.297 20.3783 126.113 21.885 124.824C21.885 124.824 23.5966 122.65 27.0338 121.085C26.9036 120.985 27.1593 121.185 27.0338 121.085C27.0338 121.085 99.5591 154.54 166.833 121.651C174.518 120.272 179.17 124.389 179.17 124.389C180.775 125.319 176.62 136.819 173.204 144.431C168.557 153.075 167.876 159.82 168.27 160.054C168.519 160.202 170.209 157.63 172.621 153.536C178.571 145.244 189.819 129.438 191.878 125.599C194.213 121.246 191.878 120.026 191.878 120.026Z" fill="#F74C00"/>
<path d="M75.0547 141.493C74.7774 141.256 74.632 141.116 74.632 141.116L98.389 139.17C79.0102 113.605 63.485 133.97 61.8325 136.247V141.493H75.0547Z" fill="black"/>
<path d="M124.52 141.218C124.797 140.981 124.943 140.84 124.943 140.84L102.112 139.17C121.5 112.555 136.09 133.695 137.742 135.972V141.218H124.52Z" fill="black"/>
<path d="M161.016 115.837C161.016 115.837 158.42 126.177 142.273 137.043L137.746 138.104C137.746 138.104 123.099 111.394 102.349 141.493C102.349 141.493 108.816 137.728 126.152 142.313C126.152 142.313 118.177 154.52 102.112 154.145C102.112 154.145 117.507 172.615 140.935 145.936C140.935 145.936 165.701 136.359 167.71 115.837H161.016Z" fill="#F74C00"/>
<path d="M73.5662 143.422C88.8717 141.493 97.7169 141.313 97.7169 141.313C77.239 114.299 60.6227 138.756 60.6227 138.756C56.459 137.267 52.2139 131.487 49.0432 126.158L36.337 122.394C50.9825 147.251 61.8862 147.63 61.8862 147.63C84.5885 176.728 95.3434 153.346 95.3434 153.346C82.5987 151.899 73.5662 143.422 73.5662 143.422Z" fill="#F74C00"/>
<circle cx="120.141" cy="111.159" r="7.70528" fill="black"/>
<path d="M120.15 102.872C115.586 102.872 111.872 106.588 111.872 111.15C111.872 115.712 115.588 119.428 120.15 119.428C124.712 119.428 128.428 115.712 128.428 111.15C128.428 106.588 124.712 102.872 120.15 102.872ZM120.138 103.608C120.279 103.611 120.414 103.67 120.513 103.772C120.611 103.874 120.667 104.01 120.667 104.152C120.667 104.297 120.609 104.435 120.507 104.537C120.405 104.639 120.266 104.697 120.122 104.697C119.978 104.697 119.839 104.639 119.737 104.537C119.635 104.435 119.577 104.297 119.577 104.152C119.577 104.079 119.592 104.007 119.62 103.94C119.649 103.873 119.69 103.812 119.742 103.761C119.795 103.711 119.857 103.671 119.924 103.644C119.992 103.618 120.065 103.605 120.138 103.608ZM121.385 104.504C122.341 104.683 123.246 105.068 124.039 105.633C124.831 106.197 125.491 106.927 125.973 107.772L125.33 109.222C125.22 109.472 125.334 109.767 125.582 109.879L126.819 110.427C126.857 110.813 126.862 111.202 126.833 111.59H126.144C126.076 111.59 126.048 111.635 126.048 111.702V112.017C126.048 112.759 125.63 112.922 125.262 112.962C124.912 113.003 124.524 112.815 124.475 112.602C124.269 111.441 123.926 111.194 123.383 110.765C124.057 110.337 124.757 109.705 124.757 108.861C124.757 107.949 124.132 107.374 123.707 107.092C123.108 106.698 122.446 106.62 122.267 106.62H115.157C116.14 105.521 117.458 104.778 118.907 104.504L119.745 105.383C119.935 105.581 120.248 105.59 120.446 105.399L121.385 104.504ZM113.644 108.535C113.786 108.54 113.92 108.599 114.019 108.7C114.118 108.802 114.173 108.938 114.173 109.08C114.173 109.225 114.116 109.363 114.014 109.465C113.911 109.567 113.773 109.625 113.629 109.625C113.484 109.625 113.346 109.567 113.243 109.465C113.141 109.363 113.084 109.225 113.084 109.08C113.084 109.007 113.098 108.935 113.127 108.868C113.155 108.801 113.197 108.74 113.249 108.689C113.301 108.639 113.363 108.599 113.431 108.572C113.499 108.546 113.571 108.533 113.644 108.535ZM126.629 108.56C126.771 108.564 126.906 108.623 127.004 108.725C127.103 108.827 127.158 108.963 127.158 109.105C127.158 109.249 127.101 109.388 126.999 109.49C126.897 109.592 126.758 109.649 126.614 109.649C126.469 109.649 126.331 109.592 126.229 109.49C126.126 109.388 126.069 109.249 126.069 109.105C126.069 109.032 126.084 108.96 126.112 108.892C126.14 108.825 126.182 108.765 126.234 108.714C126.286 108.663 126.348 108.623 126.416 108.597C126.484 108.57 126.557 108.558 126.629 108.56ZM114.67 108.648H115.62V112.927H113.704C113.467 112.097 113.393 111.228 113.487 110.369L114.66 109.847C114.91 109.735 115.024 109.443 114.912 109.192L114.67 108.648ZM118.632 108.693H120.893C121.01 108.693 121.717 108.828 121.717 109.359C121.717 109.798 121.174 109.956 120.728 109.956H118.63L118.632 108.693ZM118.632 111.768H120.364C120.521 111.768 121.209 111.814 121.428 112.693C121.497 112.962 121.649 113.842 121.752 114.124C121.856 114.439 122.274 115.069 122.721 115.069H125.547C125.358 115.323 125.151 115.563 124.927 115.787L123.777 115.54C123.509 115.482 123.244 115.654 123.187 115.922L122.913 117.197C122.035 117.595 121.081 117.799 120.116 117.794C119.152 117.789 118.2 117.577 117.325 117.171L117.052 115.896C116.994 115.628 116.732 115.456 116.464 115.514L115.338 115.756C115.129 115.54 114.935 115.311 114.756 115.069H120.232C120.294 115.069 120.336 115.059 120.336 115.001V113.064C120.336 113.008 120.294 112.996 120.232 112.996H118.63L118.632 111.768ZM116.105 116.204C116.246 116.208 116.381 116.267 116.48 116.369C116.578 116.471 116.634 116.607 116.634 116.749C116.634 116.893 116.576 117.032 116.474 117.134C116.372 117.236 116.233 117.293 116.089 117.293C115.945 117.293 115.806 117.236 115.704 117.134C115.602 117.032 115.544 116.893 115.544 116.749C115.544 116.676 115.559 116.604 115.587 116.536C115.616 116.469 115.657 116.409 115.709 116.358C115.762 116.307 115.824 116.267 115.891 116.241C115.959 116.214 116.032 116.202 116.105 116.204ZM124.169 116.228C124.311 116.233 124.445 116.292 124.544 116.393C124.643 116.495 124.698 116.631 124.698 116.773C124.698 116.918 124.64 117.056 124.538 117.158C124.436 117.26 124.298 117.318 124.153 117.318C124.009 117.318 123.87 117.26 123.768 117.158C123.666 117.056 123.609 116.918 123.609 116.773C123.609 116.7 123.623 116.628 123.652 116.561C123.68 116.494 123.721 116.433 123.774 116.382C123.826 116.332 123.888 116.292 123.956 116.265C124.024 116.239 124.096 116.226 124.169 116.228Z" fill="black"/>
<path fill-rule="evenodd" clip-rule="evenodd" d="M127.966 111.15C127.966 113.223 127.142 115.211 125.677 116.677C124.211 118.142 122.223 118.966 120.15 118.966C118.077 118.966 116.089 118.142 114.624 116.677C113.158 115.211 112.334 113.223 112.334 111.15C112.334 109.077 113.158 107.089 114.624 105.624C116.089 104.158 118.077 103.334 120.15 103.334C122.223 103.334 124.211 104.158 125.677 105.624C127.142 107.089 127.966 109.077 127.966 111.15ZM127.819 110.395L129.037 111.15L127.819 111.905L128.866 112.884L127.524 113.386L128.361 114.551L126.945 114.782L127.54 116.088L126.106 116.038L126.435 117.435L125.038 117.106L125.088 118.54L123.782 117.945L123.551 119.361L122.386 118.524L121.884 119.866L120.905 118.819L120.15 120.037L119.395 118.819L118.416 119.866L117.914 118.524L116.749 119.361L116.518 117.945L115.212 118.54L115.262 117.106L113.865 117.435L114.194 116.038L112.76 116.088L113.355 114.782L111.939 114.551L112.776 113.386L111.434 112.884L112.482 111.905L111.263 111.15L112.482 110.395L111.434 109.416L112.776 108.914L111.939 107.749L113.355 107.518L112.76 106.212L114.194 106.262L113.865 104.865L115.262 105.194L115.212 103.76L116.518 104.355L116.749 102.939L117.914 103.776L118.416 102.434L119.395 103.482L120.15 102.263L120.905 103.482L121.884 102.434L122.386 103.776L123.551 102.939L123.782 104.355L125.088 103.76L125.038 105.194L126.435 104.865L126.106 106.262L127.54 106.212L126.945 107.518L128.361 107.749L127.524 108.914L128.866 109.416L127.819 110.395Z" fill="black"/>
<path fill-rule="evenodd" clip-rule="evenodd" d="M120.15 102C120.241 102 120.325 102.047 120.373 102.124L120.947 103.051L121.692 102.255C121.754 102.189 121.846 102.159 121.935 102.177C122.024 102.194 122.098 102.257 122.13 102.342L122.512 103.362L123.398 102.725C123.471 102.672 123.567 102.661 123.651 102.696C123.735 102.731 123.795 102.807 123.81 102.896L123.986 103.974L124.979 103.521C125.062 103.483 125.159 103.491 125.234 103.542C125.31 103.592 125.354 103.678 125.351 103.769L125.312 104.86L126.375 104.609C126.463 104.588 126.556 104.615 126.621 104.679C126.685 104.744 126.712 104.837 126.691 104.925L126.44 105.988L127.531 105.949C127.622 105.946 127.708 105.99 127.758 106.066C127.809 106.141 127.817 106.238 127.779 106.321L127.326 107.314L128.404 107.49C128.493 107.505 128.569 107.565 128.604 107.649C128.639 107.733 128.628 107.829 128.575 107.903L127.938 108.788L128.958 109.17C129.043 109.202 129.106 109.276 129.123 109.365C129.141 109.454 129.112 109.546 129.045 109.608L128.249 110.353L129.176 110.927C129.253 110.975 129.3 111.059 129.3 111.15C129.3 111.241 129.253 111.325 129.176 111.373L128.249 111.947L129.045 112.692C129.112 112.754 129.141 112.846 129.123 112.935C129.106 113.024 129.043 113.098 128.958 113.13L127.938 113.512L128.575 114.398C128.628 114.471 128.639 114.567 128.604 114.651C128.569 114.735 128.493 114.795 128.404 114.81L127.326 114.986L127.779 115.979C127.817 116.062 127.809 116.159 127.758 116.234C127.708 116.31 127.622 116.354 127.531 116.351L126.44 116.312L126.691 117.375C126.712 117.463 126.685 117.556 126.621 117.621C126.556 117.685 126.463 117.712 126.375 117.691L125.312 117.44L125.351 118.531C125.354 118.622 125.31 118.708 125.234 118.758C125.159 118.809 125.062 118.817 124.979 118.779L123.986 118.326L123.81 119.404C123.795 119.493 123.735 119.569 123.651 119.604C123.567 119.639 123.471 119.628 123.398 119.575L122.512 118.938L122.13 119.958C122.098 120.043 122.024 120.106 121.935 120.123C121.846 120.141 121.754 120.112 121.692 120.045L120.947 119.249L120.373 120.176C120.325 120.253 120.241 120.3 120.15 120.3C120.059 120.3 119.975 120.253 119.927 120.176L119.353 119.249L118.608 120.045C118.546 120.112 118.454 120.141 118.365 120.123C118.276 120.106 118.202 120.043 118.17 119.958L117.788 118.938L116.903 119.575C116.829 119.628 116.733 119.639 116.649 119.604C116.565 119.569 116.505 119.493 116.49 119.404L116.314 118.326L115.321 118.779C115.238 118.817 115.141 118.809 115.066 118.758C114.99 118.708 114.946 118.622 114.949 118.531L114.988 117.44L113.925 117.691C113.837 117.712 113.744 117.685 113.679 117.621C113.615 117.556 113.588 117.463 113.609 117.375L113.86 116.312L112.769 116.351C112.678 116.354 112.592 116.31 112.542 116.234C112.491 116.159 112.483 116.062 112.521 115.979L112.974 114.986L111.896 114.81C111.807 114.795 111.731 114.735 111.696 114.651C111.661 114.567 111.672 114.471 111.725 114.398L112.362 113.512L111.342 113.13C111.257 113.098 111.194 113.024 111.177 112.935C111.159 112.846 111.189 112.754 111.255 112.692L112.051 111.947L111.124 111.373C111.047 111.325 111 111.241 111 111.15C111 111.059 111.047 110.975 111.124 110.927L112.051 110.353L111.255 109.608C111.189 109.546 111.159 109.454 111.177 109.365C111.194 109.276 111.257 109.202 111.342 109.17L112.362 108.788L111.725 107.903C111.672 107.829 111.661 107.733 111.696 107.649C111.731 107.565 111.807 107.505 111.896 107.49L112.974 107.314L112.521 106.321C112.483 106.238 112.491 106.141 112.542 106.066C112.592 105.99 112.678 105.946 112.769 105.949L113.86 105.988L113.609 104.925C113.588 104.837 113.615 104.744 113.679 104.679C113.744 104.615 113.837 104.588 113.925 104.609L114.988 104.86L114.949 103.769C114.946 103.678 114.99 103.592 115.066 103.542C115.141 103.491 115.238 103.483 115.321 103.521L116.314 103.974L116.49 102.896C116.505 102.807 116.565 102.731 116.649 102.696C116.733 102.661 116.829 102.672 116.903 102.725L117.788 103.362L118.17 102.342C118.202 102.257 118.276 102.194 118.365 102.177C118.454 102.159 118.546 102.189 118.608 102.255L119.353 103.051L119.927 102.124C119.975 102.047 120.059 102 120.15 102ZM118.764 103.191L118.514 102.923L118.385 103.267C118.511 103.239 118.637 103.214 118.764 103.191ZM117.757 103.986L117.76 103.989C117.827 104.037 117.912 104.051 117.99 104.027C118.068 104.003 118.131 103.944 118.16 103.868L118.161 103.864C118.501 103.771 118.848 103.702 119.2 103.657L119.203 103.661C119.259 103.721 119.34 103.751 119.421 103.743C119.503 103.735 119.576 103.689 119.619 103.62L119.621 103.616C119.797 103.603 119.973 103.597 120.15 103.597C120.327 103.597 120.503 103.603 120.679 103.616L120.681 103.62C120.725 103.689 120.798 103.735 120.879 103.743C120.96 103.751 121.041 103.721 121.097 103.661L121.1 103.657C121.452 103.702 121.799 103.771 122.139 103.864L122.14 103.868C122.169 103.944 122.232 104.003 122.31 104.027C122.388 104.051 122.473 104.037 122.54 103.989L122.543 103.986C122.879 104.098 123.206 104.234 123.522 104.391L123.523 104.398C123.536 104.478 123.586 104.548 123.658 104.587C123.73 104.626 123.816 104.628 123.891 104.594L123.897 104.592C124.202 104.766 124.496 104.962 124.775 105.179L124.775 105.185C124.772 105.267 124.808 105.345 124.871 105.397C124.934 105.449 125.018 105.469 125.098 105.45L125.104 105.448C125.236 105.564 125.366 105.684 125.491 105.809C125.616 105.934 125.736 106.064 125.852 106.196L125.85 106.202C125.831 106.282 125.851 106.366 125.903 106.429C125.955 106.492 126.033 106.528 126.115 106.525L126.121 106.525C126.338 106.804 126.534 107.098 126.708 107.403L126.706 107.409C126.672 107.484 126.674 107.57 126.713 107.642C126.752 107.714 126.822 107.764 126.902 107.777L126.909 107.778C127.066 108.095 127.202 108.421 127.314 108.757L127.311 108.76C127.263 108.827 127.249 108.912 127.273 108.99C127.297 109.068 127.356 109.131 127.432 109.16L127.436 109.161C127.529 109.501 127.598 109.848 127.643 110.2L127.639 110.203C127.579 110.259 127.549 110.34 127.557 110.421C127.565 110.503 127.611 110.576 127.68 110.619L127.684 110.621C127.697 110.797 127.703 110.973 127.703 111.15C127.703 111.327 127.697 111.503 127.684 111.679L127.68 111.681C127.611 111.725 127.565 111.798 127.557 111.879C127.549 111.96 127.579 112.041 127.639 112.097L127.643 112.1C127.598 112.452 127.529 112.799 127.436 113.139L127.432 113.14C127.356 113.169 127.297 113.232 127.273 113.31C127.249 113.388 127.263 113.473 127.311 113.54L127.314 113.543C127.202 113.879 127.066 114.206 126.909 114.522L126.902 114.523C126.822 114.536 126.752 114.586 126.713 114.658C126.674 114.73 126.672 114.816 126.706 114.891L126.708 114.897C126.534 115.202 126.338 115.496 126.121 115.775L126.115 115.775C126.033 115.772 125.955 115.808 125.903 115.871C125.851 115.934 125.831 116.018 125.85 116.098L125.852 116.104C125.736 116.236 125.616 116.366 125.491 116.491C125.366 116.616 125.236 116.736 125.104 116.852L125.098 116.85C125.018 116.831 124.934 116.851 124.871 116.903C124.808 116.955 124.772 117.033 124.775 117.115L124.775 117.121C124.496 117.338 124.202 117.534 123.897 117.708L123.891 117.706C123.816 117.672 123.73 117.674 123.658 117.713C123.586 117.752 123.536 117.822 123.523 117.902L123.522 117.909C123.206 118.066 122.879 118.202 122.543 118.314L122.54 118.311C122.473 118.263 122.388 118.249 122.31 118.273C122.232 118.297 122.169 118.356 122.14 118.432L122.139 118.436C121.799 118.529 121.452 118.598 121.1 118.643L121.097 118.639C121.041 118.579 120.96 118.549 120.879 118.557C120.798 118.565 120.725 118.611 120.681 118.68L120.679 118.684C120.503 118.697 120.327 118.703 120.15 118.703C119.973 118.703 119.797 118.697 119.621 118.684L119.619 118.68C119.576 118.611 119.503 118.565 119.421 118.557C119.34 118.549 119.259 118.579 119.203 118.639L119.2 118.643C118.848 118.598 118.501 118.529 118.161 118.436L118.16 118.432C118.131 118.356 118.068 118.297 117.99 118.273C117.912 118.249 117.827 118.263 117.76 118.311L117.757 118.314C117.421 118.202 117.095 118.066 116.778 117.909L116.777 117.902C116.764 117.822 116.714 117.752 116.642 117.713C116.57 117.674 116.484 117.672 116.409 117.706L116.403 117.708C116.098 117.534 115.804 117.338 115.525 117.121L115.525 117.115C115.528 117.033 115.492 116.955 115.429 116.903C115.366 116.851 115.282 116.831 115.202 116.85L115.196 116.852C115.064 116.736 114.934 116.616 114.809 116.491C114.684 116.366 114.564 116.236 114.448 116.104L114.45 116.098C114.469 116.018 114.449 115.934 114.397 115.871C114.345 115.808 114.267 115.772 114.185 115.775L114.179 115.775C113.962 115.496 113.766 115.202 113.592 114.897L113.594 114.891C113.628 114.816 113.626 114.73 113.587 114.658C113.548 114.586 113.478 114.536 113.398 114.523L113.391 114.522C113.234 114.206 113.098 113.879 112.986 113.543L112.989 113.54C113.037 113.473 113.051 113.388 113.027 113.31C113.003 113.232 112.944 113.169 112.868 113.14L112.864 113.139C112.771 112.799 112.702 112.452 112.657 112.1L112.661 112.097C112.721 112.041 112.751 111.96 112.743 111.879C112.735 111.798 112.689 111.725 112.62 111.681L112.616 111.679C112.603 111.503 112.597 111.327 112.597 111.15C112.597 110.973 112.603 110.797 112.616 110.621L112.62 110.619C112.689 110.576 112.735 110.503 112.743 110.421C112.751 110.34 112.721 110.259 112.661 110.203L112.657 110.2C112.702 109.848 112.771 109.501 112.864 109.161L112.868 109.16C112.944 109.131 113.003 109.068 113.027 108.99C113.051 108.912 113.037 108.827 112.989 108.76L112.986 108.757C113.098 108.421 113.234 108.095 113.391 107.778L113.398 107.777C113.478 107.764 113.548 107.714 113.587 107.642C113.626 107.57 113.628 107.484 113.594 107.409L113.592 107.403C113.766 107.098 113.962 106.804 114.179 106.525L114.185 106.525C114.267 106.528 114.345 106.492 114.397 106.429C114.449 106.366 114.469 106.282 114.45 106.202L114.448 106.196C114.564 106.064 114.684 105.934 114.809 105.809C114.934 105.684 115.064 105.564 115.196 105.448L115.202 105.45C115.282 105.469 115.366 105.449 115.429 105.397C115.492 105.345 115.528 105.267 115.525 105.185L115.525 105.179C115.804 104.962 116.098 104.766 116.403 104.592L116.409 104.594C116.484 104.628 116.57 104.626 116.642 104.587C116.714 104.548 116.764 104.478 116.777 104.398L116.778 104.391C117.095 104.234 117.421 104.098 117.757 103.986ZM117.239 103.614C117.119 103.661 116.999 103.71 116.881 103.763L116.94 103.399L117.239 103.614ZM115.824 104.328L115.489 104.175L115.502 104.543C115.608 104.468 115.715 104.397 115.824 104.328ZM114.576 105.302L114.218 105.218L114.302 105.576C114.347 105.53 114.392 105.484 114.438 105.438C114.484 105.392 114.53 105.347 114.576 105.302ZM113.543 106.502L113.175 106.489L113.328 106.824C113.397 106.715 113.468 106.608 113.543 106.502ZM112.763 107.881L112.399 107.94L112.614 108.239C112.661 108.119 112.71 107.999 112.763 107.881ZM112.267 109.385L111.923 109.514L112.191 109.764C112.214 109.637 112.239 109.511 112.267 109.385ZM112.074 110.957L111.762 111.15L112.074 111.343C112.073 111.279 112.072 111.215 112.072 111.15C112.072 111.085 112.073 111.021 112.074 110.957ZM112.191 112.536L111.923 112.786L112.267 112.915C112.239 112.789 112.214 112.663 112.191 112.536ZM112.614 114.061L112.399 114.36L112.763 114.419C112.71 114.301 112.661 114.181 112.614 114.061ZM113.328 115.476L113.175 115.811L113.543 115.798C113.468 115.692 113.397 115.585 113.328 115.476ZM114.302 116.724L114.218 117.082L114.576 116.998C114.53 116.953 114.484 116.908 114.438 116.862C114.392 116.817 114.347 116.77 114.302 116.724ZM115.502 117.757L115.489 118.125L115.824 117.972C115.715 117.903 115.608 117.832 115.502 117.757ZM116.881 118.537L116.94 118.901L117.239 118.686C117.119 118.639 116.999 118.59 116.881 118.537ZM118.385 119.033L118.514 119.377L118.764 119.109C118.637 119.086 118.511 119.061 118.385 119.033ZM119.957 119.226L120.15 119.538L120.343 119.226C120.279 119.228 120.215 119.228 120.15 119.228C120.085 119.228 120.021 119.228 119.957 119.226ZM121.536 119.109L121.786 119.377L121.915 119.033C121.789 119.061 121.663 119.086 121.536 119.109ZM123.061 118.686L123.36 118.901L123.419 118.537C123.301 118.59 123.181 118.639 123.061 118.686ZM124.476 117.972L124.811 118.125L124.798 117.757C124.692 117.832 124.585 117.903 124.476 117.972ZM125.724 116.998L126.082 117.082L125.998 116.724C125.953 116.77 125.908 116.817 125.862 116.862C125.817 116.908 125.77 116.953 125.724 116.998ZM126.757 115.798L127.125 115.811L126.972 115.476C126.903 115.585 126.832 115.692 126.757 115.798ZM127.537 114.419L127.901 114.36L127.686 114.061C127.639 114.181 127.59 114.301 127.537 114.419ZM128.033 112.915L128.377 112.786L128.109 112.536C128.086 112.663 128.061 112.789 128.033 112.915ZM128.226 111.343L128.538 111.15L128.226 110.957C128.228 111.021 128.228 111.085 128.228 111.15C128.228 111.215 128.228 111.279 128.226 111.343ZM128.109 109.764L128.377 109.514L128.033 109.385C128.061 109.511 128.086 109.637 128.109 109.764ZM127.686 108.239L127.901 107.94L127.537 107.881C127.59 107.999 127.639 108.119 127.686 108.239ZM126.972 106.824L127.125 106.489L126.757 106.502C126.832 106.608 126.903 106.715 126.972 106.824ZM125.998 105.576L126.082 105.218L125.724 105.302C125.77 105.347 125.817 105.392 125.862 105.438C125.908 105.484 125.953 105.53 125.998 105.576ZM124.798 104.543L124.811 104.175L124.476 104.328C124.585 104.397 124.692 104.468 124.798 104.543ZM123.419 103.763L123.36 103.399L123.061 103.614C123.181 103.661 123.301 103.71 123.419 103.763ZM121.915 103.267L121.786 102.923L121.536 103.191C121.663 103.214 121.789 103.239 121.915 103.267ZM120.344 103.074L120.15 102.762L119.957 103.074C120.021 103.073 120.085 103.072 120.15 103.072C120.215 103.072 120.279 103.073 120.344 103.074Z" fill="black"/>
<circle cx="3" cy="3" r="3" transform="matrix(1 0 0 -1 120 111)" fill="white"/>
<circle cx="86.1413" cy="111.159" r="7.70528" fill="black"/>
<path d="M86.15 102.872C81.5864 102.872 77.8721 106.588 77.8721 111.15C77.8721 115.712 81.5881 119.428 86.15 119.428C90.7119 119.428 94.4279 115.712 94.4279 111.15C94.4279 106.588 90.7119 102.872 86.15 102.872ZM86.1377 103.608C86.2793 103.611 86.4138 103.67 86.5126 103.772C86.6114 103.874 86.6666 104.01 86.6666 104.152C86.6666 104.297 86.6092 104.435 86.5071 104.537C86.4049 104.639 86.2664 104.697 86.122 104.697C85.9775 104.697 85.839 104.639 85.7369 104.537C85.6347 104.435 85.5774 104.297 85.5774 104.152C85.5773 104.079 85.5919 104.007 85.6203 103.94C85.6486 103.873 85.6901 103.812 85.7424 103.761C85.7947 103.711 85.8566 103.671 85.9245 103.644C85.9924 103.618 86.0649 103.605 86.1377 103.608ZM87.3846 104.504C88.3407 104.683 89.2463 105.068 90.0386 105.633C90.831 106.197 91.4909 106.927 91.9727 107.772L91.33 109.222C91.2197 109.472 91.3336 109.767 91.5822 109.879L92.8186 110.427C92.8569 110.813 92.8616 111.202 92.8326 111.59H92.1444C92.0761 111.59 92.048 111.635 92.048 111.702V112.017C92.048 112.759 91.6295 112.922 91.2618 112.962C90.9115 113.003 90.5245 112.815 90.4755 112.602C90.2688 111.441 89.9256 111.194 89.3827 110.765C90.0569 110.337 90.7574 109.705 90.7574 108.861C90.7574 107.949 90.1322 107.374 89.7067 107.092C89.1078 106.698 88.4458 106.62 88.2672 106.62H81.1573C82.1404 105.521 83.4582 104.778 84.9066 104.504L85.7455 105.383C85.9346 105.581 86.2481 105.59 86.4459 105.399L87.3846 104.504ZM79.6443 108.535C79.786 108.54 79.9205 108.599 80.0192 108.7C80.118 108.802 80.1732 108.938 80.1731 109.08C80.1731 109.225 80.1158 109.363 80.0136 109.465C79.9115 109.567 79.773 109.625 79.6285 109.625C79.4841 109.625 79.3456 109.567 79.2434 109.465C79.1413 109.363 79.0839 109.225 79.0839 109.08C79.0839 109.007 79.0985 108.935 79.1268 108.868C79.1552 108.801 79.1967 108.74 79.2489 108.689C79.3012 108.639 79.3631 108.599 79.431 108.572C79.4989 108.546 79.5714 108.533 79.6443 108.535ZM92.6294 108.56C92.7711 108.564 92.9056 108.623 93.0044 108.725C93.1032 108.827 93.1584 108.963 93.1583 109.105C93.1583 109.249 93.1009 109.388 92.9988 109.49C92.8966 109.592 92.7581 109.649 92.6137 109.649C92.4692 109.649 92.3307 109.592 92.2286 109.49C92.1264 109.388 92.0691 109.249 92.0691 109.105C92.069 109.032 92.0836 108.96 92.112 108.892C92.1403 108.825 92.1818 108.765 92.2341 108.714C92.2864 108.663 92.3483 108.623 92.4162 108.597C92.4841 108.57 92.5566 108.558 92.6294 108.56ZM80.6705 108.648H81.6196V112.927H79.7038C79.4672 112.097 79.3935 111.228 79.4867 110.369L80.66 109.847C80.9104 109.735 81.0242 109.443 80.9122 109.192L80.6705 108.648ZM84.6317 108.693H86.8925C87.0098 108.693 87.7173 108.828 87.7173 109.359C87.7173 109.798 87.1744 109.956 86.7279 109.956H84.63L84.6317 108.693ZM84.6317 111.768H86.3636C86.5213 111.768 87.2095 111.814 87.4284 112.693C87.4967 112.962 87.649 113.842 87.7523 114.124C87.8557 114.439 88.2742 115.069 88.7208 115.069H91.5472C91.3578 115.323 91.1506 115.563 90.9273 115.787L89.7767 115.54C89.5088 115.482 89.2444 115.654 89.1866 115.922L88.9134 117.197C88.0349 117.595 87.0809 117.799 86.1165 117.794C85.1521 117.789 84.2 117.577 83.3253 117.171L83.0521 115.896C82.9943 115.628 82.7317 115.456 82.4637 115.514L81.3377 115.756C81.1287 115.54 80.9345 115.311 80.7563 115.069H86.2323C86.2936 115.069 86.3356 115.059 86.3356 115.001V113.064C86.3356 113.008 86.2936 112.996 86.2323 112.996H84.63L84.6317 111.768ZM82.1047 116.204C82.2464 116.208 82.3809 116.267 82.4797 116.369C82.5784 116.471 82.6336 116.607 82.6336 116.749C82.6336 116.893 82.5762 117.032 82.4741 117.134C82.3719 117.236 82.2334 117.293 82.089 117.293C81.9445 117.293 81.806 117.236 81.7039 117.134C81.6017 117.032 81.5443 116.893 81.5443 116.749C81.5443 116.676 81.5589 116.604 81.5872 116.536C81.6156 116.469 81.6571 116.409 81.7094 116.358C81.7616 116.307 81.8236 116.267 81.8915 116.241C81.9594 116.214 82.0319 116.202 82.1047 116.204ZM90.169 116.228C90.3107 116.233 90.4452 116.292 90.544 116.393C90.6427 116.495 90.6979 116.631 90.6979 116.773C90.6979 116.918 90.6405 117.056 90.5383 117.158C90.4362 117.26 90.2977 117.318 90.1532 117.318C90.0088 117.318 89.8703 117.26 89.7681 117.158C89.666 117.056 89.6086 116.918 89.6086 116.773C89.6086 116.7 89.6232 116.628 89.6515 116.561C89.6799 116.494 89.7214 116.433 89.7737 116.382C89.8259 116.332 89.8878 116.292 89.9557 116.265C90.0236 116.239 90.0962 116.226 90.169 116.228Z" fill="black"/>
<path fill-rule="evenodd" clip-rule="evenodd" d="M93.9657 111.15C93.9657 113.223 93.1422 115.211 91.6765 116.677C90.2108 118.142 88.2229 118.966 86.15 118.966C84.0772 118.966 82.0893 118.142 80.6236 116.677C79.1579 115.211 78.3344 113.223 78.3344 111.15C78.3344 109.077 79.1579 107.089 80.6236 105.624C82.0893 104.158 84.0772 103.334 86.15 103.334C88.2229 103.334 90.2108 104.158 91.6765 105.624C93.1422 107.089 93.9657 109.077 93.9657 111.15ZM93.8185 110.395L95.0374 111.15L93.8185 111.905L94.8658 112.884L93.5243 113.386L94.3614 114.551L92.9447 114.782L93.5401 116.088L92.1059 116.038L92.4351 117.435L91.0376 117.106L91.0884 118.54L89.782 117.945L89.5509 119.361L88.3863 118.524L87.8837 119.866L86.9048 118.819L86.15 120.037L85.3953 118.819L84.4164 119.866L83.9138 118.524L82.7492 119.361L82.518 117.945L81.2117 118.54L81.2624 117.106L79.865 117.435L80.1942 116.038L78.76 116.088L79.3554 114.782L77.9387 114.551L78.7757 113.386L77.4343 112.884L78.4815 111.905L77.2627 111.15L78.4815 110.395L77.4343 109.416L78.7757 108.914L77.9387 107.749L79.3554 107.518L78.76 106.212L80.1942 106.262L79.865 104.865L81.2624 105.194L81.2117 103.76L82.518 104.355L82.7492 102.939L83.9138 103.776L84.4164 102.434L85.3953 103.482L86.15 102.263L86.9048 103.482L87.8837 102.434L88.3863 103.776L89.5509 102.939L89.782 104.355L91.0884 103.76L91.0376 105.194L92.4351 104.865L92.1059 106.262L93.5401 106.212L92.9447 107.518L94.3614 107.749L93.5243 108.914L94.8658 109.416L93.8185 110.395Z" fill="black"/>
<path fill-rule="evenodd" clip-rule="evenodd" d="M86.15 102C86.241 102 86.3255 102.047 86.3734 102.124L86.9474 103.051L87.6918 102.255C87.7539 102.189 87.8459 102.159 87.935 102.177C88.0242 102.194 88.0978 102.257 88.1297 102.342L88.5118 103.362L89.3975 102.725C89.4714 102.672 89.5674 102.661 89.6514 102.696C89.7354 102.731 89.7955 102.807 89.8101 102.896L89.9859 103.974L90.9795 103.521C91.0623 103.483 91.1587 103.491 91.2344 103.542C91.3101 103.592 91.3541 103.678 91.3509 103.769L91.3123 104.86L92.3748 104.609C92.4634 104.588 92.5565 104.615 92.6208 104.679C92.6852 104.744 92.7116 104.837 92.6908 104.925L92.4404 105.988L93.5308 105.949C93.6217 105.946 93.7079 105.99 93.7585 106.066C93.809 106.141 93.8169 106.238 93.7791 106.321L93.3263 107.314L94.4037 107.49C94.4935 107.505 94.5693 107.565 94.6041 107.649C94.6389 107.733 94.6278 107.829 94.5747 107.903L93.938 108.788L94.9579 109.17C95.043 109.202 95.1056 109.276 95.1234 109.365C95.1411 109.454 95.1115 109.546 95.0451 109.608L94.2487 110.353L95.1757 110.927C95.253 110.975 95.3 111.059 95.3 111.15C95.3 111.241 95.253 111.325 95.1757 111.373L94.2487 111.947L95.0451 112.692C95.1115 112.754 95.1411 112.846 95.1234 112.935C95.1056 113.024 95.043 113.098 94.9579 113.13L93.938 113.512L94.5747 114.398C94.6278 114.471 94.6389 114.567 94.6041 114.651C94.5693 114.735 94.4935 114.795 94.4037 114.81L93.3263 114.986L93.7791 115.979C93.8169 116.062 93.809 116.159 93.7585 116.234C93.7079 116.31 93.6217 116.354 93.5308 116.351L92.4404 116.312L92.6908 117.375C92.7116 117.463 92.6852 117.556 92.6208 117.621C92.5565 117.685 92.4634 117.712 92.3748 117.691L91.3123 117.44L91.3509 118.531C91.3541 118.622 91.3101 118.708 91.2344 118.758C91.1587 118.809 91.0623 118.817 90.9795 118.779L89.9859 118.326L89.8101 119.404C89.7955 119.493 89.7354 119.569 89.6514 119.604C89.5674 119.639 89.4714 119.628 89.3975 119.575L88.5118 118.938L88.1297 119.958C88.0978 120.043 88.0242 120.106 87.935 120.123C87.8459 120.141 87.7539 120.112 87.6918 120.045L86.9474 119.249L86.3734 120.176C86.3255 120.253 86.241 120.3 86.15 120.3C86.0591 120.3 85.9746 120.253 85.9267 120.176L85.3527 119.249L84.6082 120.045C84.5462 120.112 84.4542 120.141 84.365 120.123C84.2759 120.106 84.2022 120.043 84.1704 119.958L83.7882 118.938L82.9025 119.575C82.8287 119.628 82.7326 119.639 82.6486 119.604C82.5646 119.569 82.5046 119.493 82.4899 119.404L82.3141 118.326L81.3206 118.779C81.2378 118.817 81.1413 118.809 81.0657 118.758C80.99 118.708 80.9459 118.622 80.9491 118.531L80.9877 117.44L79.9252 117.691C79.8366 117.712 79.7436 117.685 79.6792 117.621C79.6149 117.556 79.5884 117.463 79.6093 117.375L79.8596 116.312L78.7693 116.351C78.6783 116.354 78.5922 116.31 78.5416 116.234C78.491 116.159 78.4832 116.062 78.5209 115.979L78.9738 114.986L77.8963 114.81C77.8066 114.795 77.7308 114.735 77.696 114.651C77.6612 114.567 77.6723 114.471 77.7253 114.398L78.362 113.512L77.3421 113.13C77.257 113.098 77.1944 113.024 77.1767 112.935C77.1589 112.846 77.1885 112.754 77.2549 112.692L78.0513 111.947L77.1244 111.373C77.0471 111.325 77 111.241 77 111.15C77 111.059 77.0471 110.975 77.1244 110.927L78.0513 110.353L77.2549 109.608C77.1885 109.546 77.1589 109.454 77.1767 109.365C77.1944 109.276 77.257 109.202 77.3421 109.17L78.362 108.788L77.7253 107.903C77.6723 107.829 77.6612 107.733 77.696 107.649C77.7308 107.565 77.8066 107.505 77.8963 107.49L78.9738 107.314L78.5209 106.321C78.4832 106.238 78.491 106.141 78.5416 106.066C78.5922 105.99 78.6783 105.946 78.7693 105.949L79.8596 105.988L79.6093 104.925C79.5884 104.837 79.6149 104.744 79.6792 104.679C79.7436 104.615 79.8366 104.588 79.9252 104.609L80.9877 104.86L80.9491 103.769C80.9459 103.678 80.99 103.592 81.0657 103.542C81.1413 103.491 81.2378 103.483 81.3206 103.521L82.3141 103.974L82.4899 102.896C82.5046 102.807 82.5646 102.731 82.6486 102.696C82.7326 102.661 82.8287 102.672 82.9025 102.725L83.7882 103.362L84.1704 102.342C84.2022 102.257 84.2759 102.194 84.365 102.177C84.4542 102.159 84.5462 102.189 84.6082 102.255L85.3527 103.051L85.9267 102.124C85.9746 102.047 86.0591 102 86.15 102ZM84.7645 103.191L84.5137 102.923L84.3849 103.267C84.5107 103.239 84.6372 103.214 84.7645 103.191ZM83.7567 103.986L83.7604 103.989C83.8268 104.037 83.9117 104.051 83.99 104.027C84.0683 104.003 84.131 103.944 84.1597 103.868L84.1613 103.864C84.5011 103.771 84.8481 103.702 85.1998 103.657L85.2034 103.661C85.2592 103.721 85.3397 103.751 85.4211 103.743C85.5025 103.735 85.5755 103.689 85.6186 103.62L85.6212 103.616C85.7966 103.603 85.973 103.597 86.15 103.597C86.327 103.597 86.5034 103.603 86.6789 103.616L86.6815 103.62C86.7245 103.689 86.7975 103.735 86.8789 103.743C86.9603 103.751 87.0408 103.721 87.0967 103.661L87.1003 103.657C87.452 103.702 87.799 103.771 88.1387 103.864L88.1403 103.868C88.169 103.944 88.2318 104.003 88.3101 104.027C88.3883 104.051 88.4732 104.037 88.5396 103.989L88.5434 103.986C88.8786 104.098 89.2055 104.234 89.5218 104.391L89.5228 104.398C89.5359 104.478 89.586 104.548 89.6582 104.587C89.7304 104.626 89.8165 104.628 89.891 104.594L89.8966 104.592C90.2018 104.766 90.4956 104.962 90.7753 105.179L90.7751 105.185C90.7722 105.267 90.8077 105.345 90.8709 105.397C90.9342 105.449 91.0182 105.469 91.0979 105.45L91.1038 105.448C91.2365 105.564 91.3656 105.684 91.4908 105.809C91.6159 105.934 91.7362 106.064 91.8516 106.196L91.8502 106.202C91.8314 106.282 91.8509 106.366 91.9028 106.429C91.9548 106.492 92.0333 106.528 92.1152 106.525L92.1211 106.525C92.3378 106.804 92.5339 107.098 92.7082 107.403L92.7057 107.409C92.6717 107.484 92.6744 107.57 92.713 107.642C92.7516 107.714 92.8216 107.764 92.9024 107.777L92.9086 107.778C93.0664 108.095 93.2017 108.421 93.3137 108.757L93.311 108.76C93.2633 108.827 93.2492 108.912 93.273 108.99C93.2967 109.068 93.3556 109.131 93.4322 109.16L93.4365 109.161C93.5292 109.501 93.5984 109.848 93.643 110.2L93.6392 110.203C93.5794 110.259 93.5491 110.34 93.5571 110.421C93.5652 110.503 93.6107 110.576 93.6802 110.619L93.6844 110.621C93.6967 110.797 93.703 110.973 93.703 111.15C93.703 111.327 93.6967 111.503 93.6844 111.679L93.6802 111.681C93.6107 111.725 93.5652 111.798 93.5571 111.879C93.5491 111.96 93.5794 112.041 93.6392 112.097L93.643 112.1C93.5984 112.452 93.5292 112.799 93.4365 113.139L93.4322 113.14C93.3556 113.169 93.2967 113.232 93.273 113.31C93.2492 113.388 93.2633 113.473 93.311 113.54L93.3137 113.543C93.2017 113.879 93.0664 114.206 92.9086 114.522L92.9024 114.523C92.8216 114.536 92.7516 114.586 92.713 114.658C92.6744 114.73 92.6717 114.816 92.7057 114.891L92.7082 114.897C92.5339 115.202 92.3378 115.496 92.1211 115.775L92.1152 115.775C92.0333 115.772 91.9548 115.808 91.9028 115.871C91.8509 115.934 91.8314 116.018 91.8502 116.098L91.8516 116.104C91.7362 116.236 91.6159 116.366 91.4908 116.491C91.3656 116.616 91.2365 116.736 91.1038 116.852L91.0979 116.85C91.0182 116.831 90.9342 116.851 90.8709 116.903C90.8077 116.955 90.7722 117.033 90.7751 117.115L90.7753 117.121C90.4956 117.338 90.2018 117.534 89.8966 117.708L89.891 117.706C89.8165 117.672 89.7304 117.674 89.6582 117.713C89.586 117.752 89.5359 117.822 89.5228 117.902L89.5218 117.909C89.2055 118.066 88.8786 118.202 88.5434 118.314L88.5396 118.311C88.4732 118.263 88.3883 118.249 88.3101 118.273C88.2318 118.297 88.169 118.356 88.1403 118.432L88.1387 118.436C87.799 118.529 87.452 118.598 87.1003 118.643L87.0967 118.639C87.0408 118.579 86.9603 118.549 86.8789 118.557C86.7975 118.565 86.7245 118.611 86.6815 118.68L86.6789 118.684C86.5034 118.697 86.327 118.703 86.15 118.703C85.973 118.703 85.7966 118.697 85.6212 118.684L85.6186 118.68C85.5755 118.611 85.5025 118.565 85.4211 118.557C85.3397 118.549 85.2592 118.579 85.2034 118.639L85.1998 118.643C84.848 118.598 84.5011 118.529 84.1613 118.436L84.1597 118.432C84.131 118.356 84.0683 118.297 83.99 118.273C83.9117 118.249 83.8268 118.263 83.7604 118.311L83.7567 118.314C83.4215 118.202 83.0945 118.066 82.7783 117.909L82.7773 117.902C82.7641 117.822 82.714 117.752 82.6418 117.713C82.5696 117.674 82.4836 117.672 82.4091 117.706L82.4034 117.708C82.0982 117.534 81.8045 117.338 81.5247 117.121L81.5249 117.115C81.5278 117.033 81.4924 116.955 81.4291 116.903C81.3658 116.851 81.2819 116.831 81.2022 116.85L81.1963 116.852C81.0636 116.736 80.9345 116.616 80.8093 116.491C80.6841 116.366 80.5638 116.236 80.4485 116.104L80.4499 116.098C80.4687 116.018 80.4492 115.934 80.3972 115.871C80.3452 115.808 80.2667 115.772 80.1849 115.775L80.1789 115.775C79.9622 115.496 79.7662 115.202 79.5918 114.897L79.5944 114.891C79.6283 114.816 79.6256 114.73 79.587 114.658C79.5485 114.586 79.4785 114.536 79.3977 114.523L79.3915 114.522C79.2337 114.206 79.0983 113.879 78.9863 113.543L78.989 113.54C79.0368 113.473 79.0508 113.388 79.0271 113.31C79.0033 113.232 78.9445 113.169 78.8679 113.14L78.8636 113.139C78.7709 112.799 78.7017 112.452 78.6571 112.1L78.6609 112.097C78.7206 112.041 78.751 111.96 78.7429 111.879C78.7349 111.798 78.6894 111.725 78.6198 111.681L78.6156 111.679C78.6033 111.503 78.5971 111.327 78.5971 111.15C78.5971 110.973 78.6033 110.797 78.6156 110.621L78.6198 110.619C78.6894 110.576 78.7349 110.503 78.7429 110.421C78.751 110.34 78.7207 110.259 78.6609 110.203L78.6571 110.2C78.7017 109.848 78.7708 109.501 78.8636 109.161L78.8679 109.16C78.9445 109.131 79.0033 109.068 79.0271 108.99C79.0508 108.912 79.0368 108.827 78.989 108.76L78.9863 108.757C79.0983 108.421 79.2337 108.095 79.3915 107.778L79.3977 107.777C79.4785 107.764 79.5485 107.714 79.587 107.642C79.6256 107.57 79.6283 107.484 79.5944 107.409L79.5918 107.403C79.7662 107.098 79.9622 106.804 80.1789 106.525L80.1849 106.525C80.2667 106.528 80.3452 106.492 80.3972 106.429C80.4492 106.366 80.4687 106.282 80.4499 106.202L80.4485 106.196C80.5638 106.064 80.6841 105.934 80.8093 105.809C80.9345 105.684 81.0636 105.564 81.1963 105.448L81.2022 105.45C81.2819 105.469 81.3658 105.449 81.4291 105.397C81.4924 105.345 81.5278 105.267 81.5249 105.185L81.5247 105.179C81.8045 104.962 82.0982 104.766 82.4034 104.592L82.4091 104.594C82.4836 104.628 82.5696 104.626 82.6418 104.587C82.714 104.548 82.7641 104.478 82.7773 104.398L82.7783 104.391C83.0945 104.234 83.4215 104.098 83.7567 103.986ZM83.2392 103.614C83.1186 103.661 82.9991 103.71 82.8809 103.763L82.9402 103.399L83.2392 103.614ZM81.8239 104.328L81.4892 104.175L81.5022 104.543C81.6078 104.468 81.7151 104.397 81.8239 104.328ZM80.5765 105.302L80.218 105.218L80.3025 105.576C80.347 105.53 80.3921 105.484 80.4378 105.438C80.4835 105.392 80.5298 105.347 80.5765 105.302ZM79.5427 106.502L79.1751 106.489L79.3277 106.824C79.3967 106.715 79.4684 106.608 79.5427 106.502ZM78.7628 107.881L78.3994 107.94L78.6144 108.239C78.661 108.119 78.7104 107.999 78.7628 107.881ZM78.2669 109.385L77.9231 109.514L78.1914 109.764C78.2136 109.637 78.2387 109.511 78.2669 109.385ZM78.074 110.957L77.7616 111.15L78.074 111.343C78.0725 111.279 78.0717 111.215 78.0717 111.15C78.0717 111.085 78.0725 111.021 78.074 110.957ZM78.1914 112.536L77.9231 112.786L78.2669 112.915C78.2387 112.789 78.2136 112.663 78.1914 112.536ZM78.6144 114.061L78.3994 114.36L78.7628 114.419C78.7104 114.301 78.661 114.181 78.6144 114.061ZM79.3277 115.476L79.1751 115.811L79.5427 115.798C79.4684 115.692 79.3967 115.585 79.3277 115.476ZM80.3025 116.724L80.218 117.082L80.5764 116.998C80.5298 116.953 80.4835 116.908 80.4378 116.862C80.3921 116.817 80.347 116.77 80.3025 116.724ZM81.5022 117.757L81.4892 118.125L81.8239 117.972C81.7151 117.903 81.6078 117.832 81.5022 117.757ZM82.8809 118.537L82.9402 118.901L83.2392 118.686C83.1186 118.639 82.9991 118.59 82.8809 118.537ZM84.3849 119.033L84.5137 119.377L84.7645 119.109C84.6372 119.086 84.5107 119.061 84.3849 119.033ZM85.9566 119.226L86.15 119.538L86.3435 119.226C86.2791 119.228 86.2146 119.228 86.15 119.228C86.0854 119.228 86.021 119.228 85.9566 119.226ZM87.5356 119.109L87.7863 119.377L87.9152 119.033C87.7894 119.061 87.6628 119.086 87.5356 119.109ZM89.0608 118.686L89.3599 118.901L89.4192 118.537C89.3009 118.59 89.1814 118.639 89.0608 118.686ZM90.4761 117.972L90.8109 118.125L90.7979 117.757C90.6922 117.832 90.5849 117.903 90.4761 117.972ZM91.7236 116.998L92.082 117.082L91.9976 116.724C91.9531 116.77 91.908 116.817 91.8622 116.862C91.8165 116.908 91.7703 116.953 91.7236 116.998ZM92.7574 115.798L93.1249 115.811L92.9724 115.476C92.9034 115.585 92.8317 115.692 92.7574 115.798ZM93.5373 114.419L93.9006 114.36L93.6857 114.061C93.6391 114.181 93.5896 114.301 93.5373 114.419ZM94.0331 112.915L94.3769 112.786L94.1086 112.536C94.0865 112.663 94.0613 112.789 94.0331 112.915ZM94.226 111.343L94.5384 111.15L94.226 110.957C94.2275 111.021 94.2283 111.085 94.2283 111.15C94.2283 111.215 94.2275 111.279 94.226 111.343ZM94.1086 109.764L94.3769 109.514L94.0331 109.385C94.0613 109.511 94.0865 109.637 94.1086 109.764ZM93.6857 108.239L93.9006 107.94L93.5373 107.881C93.5896 107.999 93.6391 108.119 93.6857 108.239ZM92.9724 106.824L93.1249 106.489L92.7574 106.502C92.8317 106.608 92.9034 106.715 92.9724 106.824ZM91.9976 105.576L92.082 105.218L91.7236 105.302C91.7703 105.347 91.8165 105.392 91.8622 105.438C91.908 105.484 91.9531 105.53 91.9976 105.576ZM90.7979 104.543L90.8109 104.175L90.4761 104.328C90.5849 104.397 90.6922 104.468 90.7979 104.543ZM89.4192 103.763L89.3599 103.399L89.0608 103.614C89.1814 103.661 89.3009 103.71 89.4192 103.763ZM87.9152 103.267L87.7863 102.923L87.5356 103.191C87.6628 103.214 87.7894 103.239 87.9152 103.267ZM86.3435 103.074L86.15 102.762L85.9565 103.074C86.021 103.073 86.0854 103.072 86.15 103.072C86.2146 103.072 86.2791 103.073 86.3435 103.074Z" fill="black"/>
<circle cx="3" cy="3" r="3" transform="matrix(1 0 0 -1 86 111)" fill="white"/>
</svg>
