<svg width="200" height="200" viewBox="0 0 200 200" fill="none" xmlns="http://www.w3.org/2000/svg">
<path d="M99.5573 92.5768C79.3509 92.5768 60.9923 95.0061 47.4008 98.9649V132.782C60.9923 136.741 79.3509 139.17 99.5573 139.17C122.684 139.17 143.388 135.988 157.296 130.972V100.775C143.388 95.7591 122.684 92.5768 99.5573 92.5768Z" fill="#A52B00"/>
<path d="M178.125 120.054L175.757 115.147C175.769 114.96 175.778 114.774 175.778 114.587C175.778 109.024 169.994 103.898 160.262 99.7931V129.381C164.803 127.465 168.487 125.328 171.122 123.027C170.346 126.144 167.694 132.452 165.58 136.888C162.105 143.232 160.847 148.755 161.008 149.029C161.111 149.201 162.296 147.372 164.044 144.408C168.113 138.612 175.822 127.545 177.363 124.726C179.108 121.53 178.125 120.054 178.125 120.054Z" fill="#A52B00"/>
<path d="M24.844 114.911C24.844 115.982 25.0595 117.038 25.4753 118.073L24.0568 120.598C24.0568 120.598 22.9205 122.072 24.9215 125.182C26.6865 127.925 35.5273 138.66 40.1935 144.282C42.1978 147.164 43.5567 148.939 43.6757 148.768C43.863 148.496 42.4297 143.085 38.4492 136.911C36.5918 133.595 34.3735 129.202 33.0422 125.958C36.7593 128.31 41.6227 130.444 47.4008 132.281V97.5417C33.4768 101.966 24.844 108.114 24.844 114.911Z" fill="#A52B00"/>
<path d="M191.878 120.026L176.309 108.557C176.162 108.047 176.016 107.536 175.865 107.03L180.979 99.6219C181.501 98.8683 181.607 97.8889 181.268 97.0294C180.928 96.1744 180.186 95.5611 179.307 95.4111L170.66 93.9436C170.325 93.2599 169.974 92.5866 169.622 91.9186L173.254 83.6014C173.628 82.7536 173.549 81.7689 173.054 81.0001C172.56 80.2274 171.722 79.7761 170.829 79.8113L162.053 80.1301C161.599 79.5384 161.137 78.9521 160.666 78.3766L162.683 69.4616C162.887 68.5561 162.629 67.6086 161.999 66.9509C161.372 66.2956 160.461 66.0244 159.595 66.2371L151.047 68.3384C150.493 67.8493 149.93 67.3663 149.361 66.8929L149.669 57.7406C149.702 56.8141 149.27 55.9336 148.528 55.4198C147.787 54.9024 146.846 54.8243 146.036 55.2088L138.061 58.9999C137.419 58.6316 136.773 58.2666 136.12 57.9138L134.711 48.8946C134.568 47.9808 133.98 47.2048 133.157 46.8503C132.336 46.4941 131.396 46.6091 130.675 47.1516L123.565 52.4861C122.865 52.2536 122.162 52.0308 121.45 51.8176L118.386 43.2649C118.074 42.3934 117.355 41.7531 116.479 41.5731C115.606 41.3944 114.708 41.6968 114.102 42.3734L108.118 49.0686C107.394 48.9853 106.67 48.9093 105.944 48.8468L101.323 41.0613C100.855 40.2726 100.028 39.7926 99.1373 39.7926C98.2483 39.7926 97.42 40.2726 96.9556 41.0613L92.3335 48.8468C91.6071 48.9093 90.8798 48.9853 90.1575 49.0686L84.1725 42.3734C83.5665 41.6968 82.6646 41.3944 81.7945 41.5731C80.9186 41.7551 80.199 42.3934 79.889 43.2649L76.822 51.8176C76.112 52.0308 75.4085 52.2554 74.7068 52.4861L67.5995 47.1516C66.8768 46.6073 65.9361 46.4924 65.1135 46.8503C64.2936 47.2048 63.7033 47.9808 63.5613 48.8946L62.1511 57.9138C61.4988 58.2666 60.853 58.6294 60.209 58.9999L52.2353 55.2088C51.4256 54.8228 50.4805 54.9024 49.743 55.4198C49.0021 55.9336 48.5693 56.8141 48.603 57.7406L48.9088 66.8929C48.3413 67.3663 47.7798 67.8493 47.2235 68.3384L38.677 66.2371C37.8086 66.0263 36.8986 66.2956 36.2701 66.9509C35.6376 67.6086 35.3816 68.5561 35.5846 69.4616L37.5978 78.3766C37.1308 78.9544 36.6686 79.5384 36.2156 80.1301L27.4398 79.8113C26.5541 79.7851 25.7088 80.2274 25.2138 81.0001C24.7183 81.7689 24.6433 82.7536 25.0116 83.6014L28.6476 91.9186C28.2945 92.5866 27.9436 93.2599 27.6061 93.9436L18.9583 95.4111C18.08 95.5591 17.34 96.1721 16.9983 97.0294C16.6583 97.8889 16.77 98.8683 17.2866 99.6219L22.4033 107.03C22.3633 107.161 22.3266 107.293 22.2866 107.424L7.82499 122.786C7.82499 122.786 5.60998 124.523 8.83664 128.605C11.6816 132.206 26.2906 146.481 34.0063 153.959C37.2653 157.756 39.4976 160.107 39.7311 159.904C40.0991 159.58 38.1666 152.673 31.7475 144.568C26.8 137.297 20.3783 126.113 21.885 124.824C21.885 124.824 23.5966 122.65 27.0338 121.085C26.9036 120.985 27.1593 121.185 27.0338 121.085C27.0338 121.085 99.5591 154.54 166.833 121.651C174.518 120.272 179.17 124.389 179.17 124.389C180.775 125.319 176.62 136.819 173.204 144.431C168.557 153.075 167.876 159.82 168.27 160.054C168.519 160.202 170.209 157.63 172.621 153.536C178.571 145.244 189.819 129.438 191.878 125.599C194.213 121.246 191.878 120.026 191.878 120.026Z" fill="#F74C00"/>
<path d="M75.0547 141.493C74.7774 141.256 74.632 141.116 74.632 141.116L98.389 139.17C79.0102 113.605 63.485 133.97 61.8325 136.247V141.493H75.0547Z" fill="black"/>
<path d="M124.52 141.218C124.797 140.981 124.943 140.84 124.943 140.84L102.112 139.17C121.5 112.555 136.09 133.695 137.742 135.972V141.218H124.52Z" fill="black"/>
<path d="M161.016 115.837C161.016 115.837 158.42 126.177 142.273 137.043L137.746 138.104C137.746 138.104 123.099 111.394 102.349 141.493C102.349 141.493 108.816 137.728 126.152 142.313C126.152 142.313 118.177 154.52 102.112 154.145C102.112 154.145 117.507 172.615 140.935 145.936C140.935 145.936 165.701 136.359 167.71 115.837H161.016Z" fill="#F74C00"/>
<path d="M112.899 102.591C112.899 102.591 120.146 94.6553 127.394 102.591C127.394 102.591 133.089 113.173 127.394 118.463C127.394 118.463 118.076 125.871 112.899 118.463C112.899 118.463 106.686 112.643 112.899 102.591Z" fill="black"/>
<path d="M121.29 105.535C121.29 108.625 119.468 111.13 117.222 111.13C114.975 111.13 113.154 108.625 113.154 105.535C113.154 102.445 114.975 99.9395 117.222 99.9395C119.468 99.9395 121.29 102.445 121.29 105.535Z" fill="white"/>
<path d="M80.55 100.424C80.55 100.424 92.9826 94.9194 96.376 107.206C96.376 107.206 99.9305 121.527 86.1661 122.335C86.1661 122.335 68.6145 118.955 80.55 100.424Z" fill="black"/>
<path d="M86.7944 105.738C86.7944 108.924 84.916 111.509 82.5989 111.509C80.2825 111.509 78.4037 108.924 78.4037 105.738C78.4037 102.551 80.2825 99.9668 82.5989 99.9668C84.916 99.9668 86.7944 102.551 86.7944 105.738Z" fill="white"/>
<path d="M73.5662 143.422C88.8717 141.493 97.7169 141.313 97.7169 141.313C77.239 114.299 60.6227 138.756 60.6227 138.756C56.459 137.267 52.2139 131.487 49.0432 126.158L36.337 122.394C50.9825 147.251 61.8862 147.63 61.8862 147.63C84.5885 176.728 95.3434 153.346 95.3434 153.346C82.5987 151.899 73.5662 143.422 73.5662 143.422Z" fill="#F74C00"/>
</svg>
