<svg width="200" height="200" viewBox="0 0 200 200" fill="none" xmlns="http://www.w3.org/2000/svg">
<path d="M115.792 21.0401C114.13 18.2822 111.783 16.0006 108.98 14.4168C106.177 12.833 103.011 12.0007 99.7915 12.0007C96.5717 12.0007 93.4065 12.833 90.6031 14.4168C87.7997 16.0006 85.4533 18.2822 83.7915 21.0401L57.4715 66.1201C77.5789 76.1588 106.545 94.7929 119 113.5C131.455 132.207 126.966 150.336 128.472 172.76H109.992C108.489 153.539 112.286 137.121 99.7915 118.76C87.2975 100.399 65.4796 90.3329 48.1515 81.8801L23.7915 124C33.5329 128.369 41.6033 132.569 52 139.5C53.5 140.5 59.2885 143 62 150.5C64.5 158 65 162.5 64.5 172.68H18.2715C17.7682 172.644 17.2817 172.484 16.8558 172.214C16.4299 171.943 16.078 171.571 15.832 171.13C15.5859 170.69 15.4534 170.195 15.4463 169.69C15.4393 169.186 15.5579 168.687 15.7915 168.24L27.5515 148.24C23.5673 144.916 19.0138 142.341 14.1115 140.64L2.47154 160.64C1.25975 162.719 0.473074 165.017 0.157195 167.402C-0.158684 169.787 0.00253612 172.212 0.63149 174.534C1.26044 176.856 2.34459 179.03 3.82095 180.93C5.29731 182.83 7.13646 184.417 9.23154 185.6C11.9919 187.155 15.1032 187.981 18.2715 188H76.3915C77.471 174.68 80.1063 155.754 74.5 143.623C68.8937 131.493 55.2359 126.569 44.3915 118.76L53.6315 102.76C67.3173 112.16 80.7749 114.552 88 129.5C95.2251 144.448 95.968 171.436 94.8315 188H144.072C145.218 162.908 147.519 134.321 136 112C124.481 89.6786 99.5468 74.4041 78.4315 60.8001L97.1115 28.8001C97.5278 28.1027 98.2026 27.5979 98.9892 27.3956C99.7758 27.1933 100.61 27.31 101.312 27.7201C103.432 28.8801 182.472 166.8 183.952 168.4C184.212 168.868 184.345 169.396 184.336 169.931C184.327 170.466 184.177 170.99 183.901 171.448C183.625 171.907 183.233 172.285 182.764 172.543C182.295 172.801 181.767 172.932 181.232 172.92H162.192C162.432 178.013 162.432 183.093 162.192 188.16H181.312C183.739 188.176 186.146 187.71 188.393 186.79C190.64 185.869 192.681 184.512 194.4 182.797C196.119 181.082 197.48 179.043 198.406 176.799C199.331 174.554 199.802 172.148 199.792 169.72C199.794 166.513 198.938 163.364 197.312 160.6L115.792 21.0401Z" fill="#2B2233"/>
</svg>
