<?xml version="1.0" encoding="UTF-8"?>
<!-- Generated by Pixelmator Pro 3.4 -->
<svg width="256" height="225" viewBox="0 0 256 225" xmlns="http://www.w3.org/2000/svg">
    <g id="Group">
        <path id="Path" fill="#000000" stroke="none" d="M 228.747345 65.587845 C 228.228867 65.036957 227.677979 64.486084 227.12709 63.96759 C 226.576202 63.449112 226.057724 62.865814 225.506836 62.347351 C 224.955948 61.828857 224.437469 61.245575 223.886581 60.727081 C 223.335693 60.208603 222.817215 59.62532 222.266327 59.106842 C 221.715439 58.588348 221.19696 58.005066 220.646072 57.486588 C 220.095184 56.968109 219.576706 56.384811 219.025818 55.866333 C 218.47493 55.347839 217.956451 54.764557 217.405563 54.246078 C 233.479004 70.042633 242.687164 91.532211 243.037979 114.065826 C 243.037979 167.761017 188.532654 211.443039 121.51899 211.443039 C 83.993927 211.443039 50.422279 197.735703 28.09519 176.251144 L 29.715443 177.871399 L 31.335695 179.491653 L 32.955948 181.111893 L 34.576202 182.732147 L 36.196457 184.352402 L 37.816708 185.972656 L 39.436962 187.592911 C 61.731647 209.984818 96.048607 224.40506 134.481018 224.40506 C 201.49469 224.40506 256 180.723038 256 127.189873 C 256 104.311897 246.148865 82.632904 228.747345 65.587845 Z"/>
        <g id="g1">
            <path id="path1" fill="#fbf0df" stroke="none" d="M 234.936707 114.065826 C 234.936707 163.353928 184.157974 203.309372 121.51899 203.309372 C 58.880001 203.309372 8.101266 163.353928 8.101266 114.065826 C 8.101266 83.507843 27.544304 56.514435 57.421772 40.506332 C 87.29924 24.49823 105.89975 8.101273 121.51899 8.101273 C 137.138229 8.101273 150.48912 21.484558 185.616196 40.506332 C 215.493668 56.514435 234.936707 83.507843 234.936707 114.065826 Z"/>
            <path id="path2" fill="#f6dece" stroke="none" d="M 234.936707 114.065826 C 234.920944 107.734123 234.048904 101.433647 232.344299 95.335693 C 223.497726 203.244553 91.868355 208.429367 40.11747 176.153931 C 63.381157 194.185318 92.088982 203.762207 121.51899 203.309372 C 184.06076 203.309372 234.936707 163.289108 234.936707 114.065826 Z"/>
            <path id="path3" fill="#fffefc" stroke="none" d="M 77.86937 34.576202 C 92.354431 25.891647 111.603035 9.591904 130.527588 9.559494 C 127.61628 8.618454 124.578514 8.126724 121.51899 8.101273 C 113.676964 8.101273 105.31646 12.151901 94.784813 18.244049 C 91.123039 20.382782 87.331642 22.748352 83.313416 25.211136 C 75.763039 29.877472 67.110886 35.159485 57.389366 40.441528 C 26.539747 57.130127 8.101266 84.642029 8.101266 114.065826 C 8.101266 115.362022 8.101266 116.658226 8.101266 117.922028 C 27.738733 48.542786 63.41671 43.260757 77.86937 34.576202 Z"/>
            <path id="path4" fill="#ccbea7" stroke="none" d="M 112.186333 16.299744 C 112.278053 31.783173 105.616661 46.537628 93.942276 56.708862 C 93.034935 57.518982 93.747849 59.074432 94.914429 58.620758 C 105.834938 54.375702 120.579239 41.672913 114.357468 16.040512 C 114.098228 14.582275 112.186333 14.971146 112.186333 16.299744 Z M 119.542274 16.299744 C 127.566116 29.391708 129.471756 45.335129 124.759491 59.949371 C 124.370636 61.083542 125.764053 62.055695 126.541771 61.115952 C 133.638474 52.042526 139.82785 34.025314 121.292152 14.582275 C 120.352402 13.739746 118.89418 15.03595 119.542274 16.17012 L 119.542274 16.299744 Z M 128.486069 15.748856 C 141.049026 24.642975 149.144791 38.541687 150.683548 53.857208 C 150.615387 54.423798 151.00415 54.944077 151.566818 55.039307 C 152.129501 55.134521 152.667801 54.771133 152.789871 54.213669 C 155.771133 42.904297 154.086075 23.623291 129.55545 13.610123 C 128.259247 13.091644 127.41671 14.841522 128.486069 15.619247 L 128.486069 15.748856 Z M 68.666328 49.450134 C 83.603981 44.987488 95.939552 34.38385 102.594429 20.285568 C 103.177719 19.118988 105.024811 19.572662 104.733162 20.868866 C 99.12709 46.792908 80.364555 52.204559 68.69873 51.491638 C 67.467339 51.524048 67.499748 49.80658 68.666328 49.450134 Z"/>
            <path id="path5" fill="#000000" stroke="none" d="M 121.51899 211.443039 C 54.505318 211.443039 0 167.761017 0 114.065826 C 0 81.660767 20.026329 51.426834 53.565571 33.312408 C 63.28709 28.127594 71.615189 22.910385 79.03595 18.341263 C 83.118988 15.813675 86.975189 13.448105 90.701775 11.244553 C 102.075951 4.504303 111.79747 0 121.51899 0 C 131.240509 0 139.730637 3.888611 150.359497 10.175186 C 153.600006 12.022278 156.8405 14.031387 160.307846 16.23494 C 168.376709 21.225311 177.482529 26.8638 189.472412 33.312408 C 223.011642 51.426834 243.037979 81.628357 243.037979 114.065826 C 243.037979 167.761017 188.532654 211.443039 121.51899 211.443039 Z M 121.51899 8.101273 C 113.676964 8.101273 105.31646 12.151901 94.784813 18.244049 C 91.123039 20.382782 87.331642 22.748352 83.313416 25.211136 C 75.763039 29.877472 67.110886 35.159485 57.389366 40.441528 C 26.539747 57.130127 8.101266 84.642029 8.101266 114.065826 C 8.101266 163.289108 58.977215 203.341766 121.51899 203.341766 C 184.06076 203.341766 234.936707 163.289108 234.936707 114.065826 C 234.936707 84.642029 216.49823 57.130127 185.616196 40.506332 C 173.367096 34.025314 163.807602 27.933167 156.06279 23.137207 C 152.53064 20.96608 149.290131 18.95697 146.341263 17.174683 C 136.522537 11.341766 129.361008 8.101273 121.51899 8.101273 Z"/>
        </g>
        <g id="g2">
            <path id="path6" fill="#b71422" stroke="none" d="M 99.228851 156.569229 C 100.68718 150.607574 104.003204 145.263947 108.697769 141.310547 C 112.222458 137.896759 116.784386 135.755081 121.662445 135.22403 C 126.686607 135.674896 131.406708 137.825989 135.043091 141.322006 C 139.686264 145.298157 142.951004 150.642593 144.36911 156.588837 C 144.464203 157.304214 144.222916 158.023315 143.715591 158.53656 C 143.208252 159.049774 142.491989 159.299347 141.775558 159.212524 L 101.787727 159.195145 C 101.076508 159.270508 100.370033 159.015503 99.870911 158.503296 C 99.371773 157.991089 99.135147 157.278244 99.228851 156.569229 L 99.228851 156.569229 Z"/>
            <path id="path7" fill="#ff6164" stroke="none" d="M 135.043198 141.062775 C 131.41423 137.564728 126.711197 135.393372 121.694992 134.899994 C 116.689781 135.396088 111.997353 137.562866 108.373825 141.051178 C 107.21476 142.130585 106.131523 143.288635 105.131813 144.517105 C 109.164551 149.096115 114.908752 151.807144 121.007042 152.009583 C 127.560905 151.857224 133.620667 148.49144 137.213486 143.008011 C 136.468475 142.327179 135.820648 141.678802 135.043198 141.062775 Z"/>
            <path id="path8" fill="#000000" stroke="none" d="M 134.523605 143.622528 C 131.2668 147.828506 126.26223 150.31015 120.942947 150.356903 C 116.090141 150.211655 111.467239 148.256104 107.983315 144.874802 C 107.23764 145.684601 106.524353 146.526825 105.843491 147.369049 C 109.964317 151.296997 115.411453 153.531815 121.103554 153.629883 C 127.263039 153.579437 133.077087 150.776581 136.952957 145.989166 C 136.187134 145.156387 135.376129 144.366318 134.523605 143.622528 L 134.523605 143.622528 Z"/>
            <path id="path9" fill="#000000" stroke="none" d="M 121.792908 133.279785 C 127.192574 133.75528 132.273163 136.041351 136.210342 139.767059 C 141.224625 144.011841 144.752838 149.746552 146.281204 156.136002 C 146.503082 157.288055 146.192963 158.478714 145.437256 159.376144 C 144.53685 160.462494 143.185043 161.071884 141.774765 161.027206 L 101.786934 161.009827 C 100.379532 161.038864 99.034241 160.431 98.125885 159.355591 C 97.378151 158.454163 97.080605 157.261765 97.317154 156.114716 L 97.317154 156.114716 C 98.851074 149.726593 102.384285 143.994965 107.402237 139.754547 C 111.334152 136.038849 116.404228 133.75769 121.792908 133.279785 L 121.792908 133.279785 Z M 141.776398 157.268219 C 142.294891 157.268448 142.424606 157.041672 142.457047 156.976868 C 141.089661 151.436081 137.993225 146.474731 133.616608 142.812012 C 130.416489 139.656494 126.254929 137.658997 121.791237 137.135986 C 117.338608 137.649231 113.179977 139.618103 109.960938 142.736938 C 105.594864 146.402039 102.506172 151.359573 101.140625 156.894104 C 101.284607 157.105438 101.534904 157.218201 101.788597 157.186035 L 141.776398 157.268219 Z"/>
        </g>
        <g id="g3">
            <path id="path10" fill="#febbd0" stroke="none" d="M 189.796448 128.583282 C 189.796448 134.739807 181.309143 139.730637 170.839493 139.730637 C 160.369858 139.730637 151.882538 134.739807 151.882538 128.583282 C 151.882538 122.426788 160.369858 117.435951 170.839493 117.435951 C 181.309143 117.435951 189.796448 122.426788 189.796448 128.583282 Z"/>
            <path id="path11" fill="#febbd0" stroke="none" d="M 91.706329 128.583282 C 91.706329 134.739807 83.219009 139.730637 72.749367 139.730637 C 62.279724 139.730637 53.792404 134.739807 53.792404 128.583282 C 53.792404 122.426788 62.279724 117.435951 72.749367 117.435951 C 83.219009 117.435951 91.706329 122.426788 91.706329 128.583282 Z"/>
            <path id="path12" fill="#000000" stroke="none" d="M 81.660759 124.111427 C 88.885445 124.124504 95.406036 119.782555 98.179893 113.111572 C 100.953751 106.440598 99.434143 98.755447 94.330154 93.642181 C 89.226166 88.528915 81.543793 86.995346 74.867783 89.75708 C 68.19178 92.518814 63.837975 99.031509 63.837975 106.256203 C 63.837975 116.104713 71.812271 124.093521 81.660759 124.111427 L 81.660759 124.111427 Z M 161.928101 124.111397 C 169.161423 124.16391 175.711746 119.847076 178.516281 113.179382 C 181.320801 106.511681 179.825348 98.810684 174.729156 93.677231 C 169.632965 88.543762 161.943069 86.992249 155.255112 89.748123 C 148.567154 92.503998 144.202499 99.022697 144.202499 106.256203 C 144.18454 116.074257 152.110184 124.057861 161.928101 124.111397 L 161.928101 124.111397 Z"/>
            <path id="path13" fill="#ffffff" stroke="none" d="M 76.151901 107.390457 C 78.867882 107.403503 81.32373 105.777534 82.3722 103.272049 C 83.420662 100.766563 82.854797 97.876099 80.938942 95.950943 C 79.023087 94.025787 76.135391 93.445923 73.624863 94.482254 C 71.114334 95.51857 69.476456 97.966522 69.476456 100.682533 C 69.476456 104.374557 72.459915 107.372543 76.151901 107.390457 Z M 156.41925 107.390457 C 159.135223 107.403503 161.59108 105.777534 162.639542 103.272049 C 163.688004 100.766563 163.122147 97.876099 161.206284 95.950943 C 159.290421 94.025787 156.40274 93.445923 153.892212 94.482254 C 151.381668 95.51857 149.743805 97.966522 149.743805 100.682533 C 149.743408 104.349541 152.687805 107.337234 156.354431 107.390457 L 156.41925 107.390457 Z"/>
        </g>
    </g>
</svg>
