<svg width="200" height="200" viewBox="0 0 200 200" fill="none" xmlns="http://www.w3.org/2000/svg">
<path d="M1 103.614C1 49.9705 45.539 6 100.221 6C126.679 6 151.374 16.1133 169.895 34.5809C188.858 53.0483 199 77.6722 199 103.614V104.054L182.243 113.727H181.802C173.423 108.011 163.281 104.934 153.138 105.373H151.374C126.239 106.693 106.835 127.358 106.835 151.982C106.835 159.017 108.599 166.492 112.127 173.088C111.245 179.683 104.189 190.677 101.102 194.194L100.661 194.633L100.221 194.194C92.7238 184.959 87.8732 174.847 85.6682 164.294C85.6682 163.414 85.227 162.095 85.227 161.216V160.336V159.896V158.138V156.819V153.741V152.861C85.227 144.947 86.5501 137.472 88.7551 130.437V129.997C89.6369 126.919 90.96 123.841 92.2832 121.203V120.763C92.7238 119.883 93.165 118.565 94.0469 117.245L94.4875 116.366C95.3694 115.047 95.8106 113.727 96.6925 112.848C97.5744 111.969 98.4569 110.65 99.7794 108.891L100.221 108.011C105.071 101.855 111.245 97.0189 117.86 93.0618H118.301C119.624 92.1824 120.947 91.303 122.27 90.863C125.356 89.5441 128.002 88.2247 131.089 87.3452H131.53L135.499 86.0264L136.822 85.5864C138.585 85.147 139.908 85.147 141.673 84.707C142.555 84.707 143.878 84.2676 144.76 84.2676H145.2C148.287 84.2676 150.933 83.8275 153.579 83.8275H154.902C161.958 83.8275 169.013 84.707 175.628 86.9058C172.541 72.835 165.486 60.0837 154.902 49.9705C140.35 35.4602 120.947 27.5454 100.221 27.5454C63.619 27.5454 32.7506 52.169 24.813 86.9058C35.3963 83.3881 46.862 82.9481 58.3273 85.147C70.2339 87.3452 81.2582 92.6218 90.5188 100.097L92.7238 101.855L90.9601 104.054C90.0782 105.373 89.1957 106.253 88.3138 107.572C86.5501 110.65 84.7863 113.727 83.0226 117.245L81.2582 120.763L78.1714 118.125C71.5564 111.969 63.1784 108.011 54.3586 106.253C41.5702 104.054 28.7817 106.693 18.1982 113.727H17.7572L1 104.054V103.614Z" fill="#F01F7A"/>
</svg>
