<svg width="200" height="200" viewBox="0 0 200 200" fill="none" xmlns="http://www.w3.org/2000/svg">
<path d="M199 103.614C199 49.9705 154.461 6 99.7794 6C73.3208 6 48.626 16.1133 30.1048 34.5809C11.1418 53.0483 1 77.6722 1 103.614V104.054L17.7574 113.727H18.198C26.5767 108.011 36.7192 104.934 46.8622 105.373H48.626C73.7614 106.693 93.165 127.358 93.165 151.982C93.165 159.017 91.4007 166.492 87.8732 173.088C88.7551 179.683 95.8107 190.677 98.8975 194.194L99.3387 194.633L99.7794 194.194C107.276 184.959 112.127 174.847 114.332 164.294C114.332 163.414 114.773 162.095 114.773 161.216V160.336V159.896V158.138V156.819V153.741V152.861C114.773 144.947 113.45 137.472 111.245 130.437V129.997C110.363 126.919 109.04 123.841 107.717 121.203V120.763C107.276 119.883 106.835 118.565 105.953 117.245L105.512 116.366C104.631 115.047 104.189 113.727 103.307 112.848C102.426 111.969 101.543 110.65 100.221 108.891L99.7794 108.011C94.9288 101.855 88.7551 97.0189 82.1401 93.0618H81.6995C80.3764 92.1824 79.0533 91.303 77.7302 90.863C74.6439 89.5441 71.9977 88.2247 68.9108 87.3452H68.4702L64.5009 86.0264L63.1784 85.5864C61.4146 85.147 60.0915 85.147 58.3272 84.707C57.4453 84.707 56.1222 84.2676 55.2403 84.2676H54.7997C51.7128 84.2676 49.0666 83.8275 46.421 83.8275H45.0979C38.0423 83.8275 30.9867 84.707 24.3717 86.9058C27.4586 72.835 34.5142 60.0837 45.0979 49.9705C59.6503 35.4602 79.0533 27.5454 99.7794 27.5454C136.381 27.5454 167.249 52.169 175.187 86.9058C164.604 83.3881 153.138 82.9481 141.673 85.147C129.766 87.3452 118.742 92.6218 109.481 100.097L107.276 101.855L109.04 104.054C109.922 105.373 110.804 106.253 111.686 107.572C113.45 110.65 115.214 113.727 116.977 117.245L118.742 120.763L121.829 118.125C128.444 111.969 136.822 108.011 145.641 106.253C158.43 104.054 171.218 106.693 181.802 113.727H182.243L199 104.054V103.614Z" fill="#F01F7A"/>
<path d="M113 97.5L123 116.959L109 129.459L94 111L113 97.5Z" fill="#F01F7A"/>
</svg>
