<svg width="200" height="200" viewBox="0 0 200 200" fill="none" xmlns="http://www.w3.org/2000/svg">
<g clip-path="url(#clip0_1_2107)">
<path d="M110.881 49.5696C105.903 46.2014 99.4894 47.5253 100.563 48.5404C102.609 50.4759 99.8863 49.9038 99.5926 53.4753C99.3767 56.106 100.242 57.5544 100.986 58.3788C102.541 58.5805 104.43 58.9572 106.705 59.6917C108.051 60.1267 109.221 60.609 110.246 61.0945C110.516 60.9195 110.81 60.7052 111.158 60.4073C114.669 57.3842 114.552 52.0536 110.881 49.5696ZM81.1442 70.3923C80.241 69.6972 76.1357 68.3874 72.3352 67.9413C70.3397 67.7081 67.4949 67.5725 66.8885 67.9098C65.6836 68.5702 65.6836 70.6145 66.5091 72.5027C67.7108 75.2452 69.4094 78.2762 71.3335 78.5252C74.472 78.9366 77.439 77.2501 80.8267 74.7377C82.0364 73.8346 82.7794 71.6469 81.1442 70.3923ZM75.4181 43.6842C70.7842 45.8247 71.3906 49.8975 71.2621 52.2901C71.2271 52.9773 71.2382 53.4407 71.297 53.759C71.9383 53.4139 72.9527 53.1601 74.5609 53.231C75.0308 53.2499 75.488 53.3051 75.9309 53.3745C77.6406 52.465 78.663 50.6855 79.598 48.7941C79.6837 48.6192 79.7504 48.4632 79.8139 48.3118C79.8409 48.2425 79.8695 48.1684 79.8965 48.1054C79.9076 48.0707 79.9155 48.0439 79.9282 48.0124C80.441 46.3968 80.0965 46.0737 79.8806 45.5756C79.6567 45.0665 78.8201 44.6473 80.0568 44.2233C80.1632 44.1839 80.2949 44.1618 80.4442 44.1334C79.625 43.1247 77.1723 42.8804 75.4181 43.6842ZM100.68 92.3797C105.673 89.1974 110.838 84.6329 113.097 82.1063C113.477 81.8226 113.415 80.5632 113.415 80.5632C111.377 82.1362 102.92 88.1351 93.9776 90.8744C90.8232 91.8422 85.9829 92.2079 81.784 89.8452C78.5757 88.0389 74.7133 84.8913 72.4082 81.6476L71.986 82.3742C72.0018 82.8565 73.0623 85.2066 73.602 86.1507C72.6273 86.7071 71.9002 86.8584 70.816 87.1531L63.4119 86.0073C60.7544 81.7453 58.8494 74.8717 60.8798 68.3291C62.0387 64.5762 68.0807 57.1037 68.5141 56.6923C70.0317 55.2438 68.2601 49.6484 71.2684 43.544C74.4482 37.0864 82.7333 30.3531 86.3322 27.423C85.2717 28.1922 78.7408 30.807 75.6959 34.4558C75.4102 34.0791 75.2927 32.12 75.0308 31.6235C77.6454 28.2237 77.8486 22.1744 77.8486 20.5573C77.8486 17.5925 79.3662 14.2321 79.3662 14.2321C79.3662 14.2321 76.7516 16.2874 76.0754 19.8275C75.2768 24.0201 73.575 27.3221 71.324 30.1167C67.0631 35.3858 63.215 38.0889 61.2703 36.1423C58.9431 33.8033 63.6309 23.3408 69.619 17.5011C76.6087 10.6858 78.436 11.5637 82.5365 13.0169C85.8083 14.1754 87.5768 23.3991 96.1048 23.2162C97.5495 23.0492 101.271 22.9593 103.11 22.9751C102.152 21.6464 101.329 20.6203 101.329 20.6203C101.329 20.6203 104.19 21.763 106.628 23.2115L106.816 22.9325C105.993 21.2114 105.109 20.1238 105.109 20.1238C105.109 20.1238 107.395 21.4872 109.481 23.1201C109.102 21.0679 107.665 19.7676 107.665 19.7676C107.665 19.7676 110.553 20.2846 114.231 24.3022C118.411 25.437 119.416 26.1826 122.746 27.6468C128.163 26.4742 130.717 24.5812 133.152 21.0963C135.007 18.4342 138.307 18.0307 141.679 19.4067C146.595 21.4241 152.814 24.1871 152.814 24.1871C152.814 24.1871 150.786 24.1052 148.673 24.195C151.566 25.2826 154.344 26.7784 154.344 26.7784C154.344 26.7784 152.99 26.7311 151.318 26.7594C152.472 27.7114 153.11 28.1654 154.211 28.8888C156.855 30.796 159 32.9995 159 32.9995C159 32.9995 157.205 32.1877 155.592 31.7322C156.719 34.2966 158.954 36.1849 158.543 39.3246C158.148 42.1916 154.603 48.0975 150.027 51.7227C149.632 52.0379 143.382 57.7798 138.667 55.4219C133.956 53.0671 132.097 50.9692 131.322 47.7523C130.411 44.0578 130.93 41.2633 132.876 33.2438C133.517 30.5974 135.189 25.147 135.996 22.5401L135.816 22.4124C134.275 25.6419 130.33 34.1548 128.741 39.8731C126.259 48.7894 127.034 53.313 128.169 54.9711C131.593 59.9723 140.368 60.6327 144.358 57.8618C144.97 67.4622 142.809 71.6894 142.077 73.8188C142.441 76.2666 140.844 80.8122 140.844 80.8122C140.844 80.8122 140.664 78.7459 139.933 77.6568C139.737 80.0856 138.504 82.9716 138.504 82.9716C138.504 82.9716 138.578 81.189 138.018 79.649C137.227 80.9777 136.648 81.293 135.9 82.2907C135.153 84.8866 133.654 86.7827 133.654 86.7827C133.654 86.7827 133.897 85.391 133.764 83.9425C130.104 87.4321 129.474 92.5247 129.111 96.4383C128.085 107.197 146.197 115.753 149.707 122.483C152.367 126.469 153.961 132.775 149.456 136.493C138.566 145.473 142.749 147.944 137.297 151.891C129.819 157.303 120.462 154.879 117.277 150.477C112.843 144.343 113.982 138.556 115.629 133.144C116.917 128.912 120.416 121.881 124.743 119.16C129.166 116.378 133.467 115.858 137.11 116.23L136.773 115.846C131.533 114.812 126.055 115.379 122.091 117.917C117.59 120.788 113.474 125.714 111.321 133.264C108.879 132.918 108.535 132.762 106.3 132.447L111.332 93.5539L100.68 92.3797ZM97.7717 141.13L98.3511 135.737L87.0339 118.598L74.1862 122.324L63.1388 104.004L49.8959 112.677L39.8343 91.7271L36.2577 129.881L97.7717 141.13ZM36.1243 83.9141L76.5611 91.1913C77.5628 92.4727 80.0393 94.7234 81.23 95.3098C86.3369 97.8631 89.7882 97.1239 92.7711 96.3548C94.6888 95.8725 95.8 95.6014 97.3923 94.8905L107.262 96.235L101.271 145.863L32 133.465L36.1243 83.9141Z" fill="white"/>
<g clip-path="url(#clip1_1_2107)">
<path fill-rule="evenodd" clip-rule="evenodd" d="M13.0219 199.723H0.0625V169.889H13.0219C22.3586 169.889 27.0331 174.591 27.0331 183.992C27.0331 194.473 22.3586 199.723 13.0219 199.723ZM5.60404 194.921H12.1849C18.3885 194.921 21.4866 191.278 21.4866 183.987C21.4866 177.781 18.3885 174.678 12.1849 174.678H5.60404V194.921ZM32.8395 199.723H27.1506L39.8401 169.889H45.7964L58.7633 199.723H52.802L49.0394 191.585H39.4629L41.3667 186.791H47.5778L42.6834 175.583L32.8395 199.723ZM55.6303 169.889H78.3161V174.686H69.7439V199.723H64.2049V174.686H55.6278L55.6303 169.889ZM81.1643 199.723H75.4754L88.1674 169.889H94.1237L107.088 199.723H101.127L97.3642 191.585H87.7877L89.6865 186.791H95.8976L91.0032 175.583L81.1643 199.723ZM123.723 199.723H110.763V169.889H123.723C133.064 169.889 137.734 174.591 137.734 183.992C137.734 194.473 133.064 199.723 123.723 199.723ZM116.302 194.921H122.888C129.087 194.921 132.192 191.278 132.192 183.987C132.192 177.781 129.087 174.678 122.888 174.678H116.302V194.921ZM141.484 184.847C141.484 174.731 146.493 169.674 156.5 169.674C166.354 169.674 171.278 174.731 171.278 184.847C171.278 194.903 166.354 199.938 156.5 199.938C146.936 199.935 141.936 194.903 141.484 184.847ZM156.5 195.128C162.518 195.128 165.529 191.66 165.529 184.72C165.529 177.886 162.518 174.466 156.5 174.466C150.324 174.466 147.238 177.886 147.238 184.72C147.241 191.66 150.326 195.128 156.5 195.128ZM194.396 187.65V194.633C193.117 194.968 191.97 195.131 190.968 195.131C184.19 195.131 180.807 191.55 180.807 184.387C180.807 177.774 184.4 174.468 191.573 174.468C194.571 174.468 197.357 175.026 199.935 176.14V171.131C197.359 170.159 194.434 169.669 191.156 169.669C180.425 169.669 175.056 174.571 175.056 184.385C175.056 194.743 180.332 199.933 190.883 199.933C194.513 199.933 197.529 199.403 199.938 198.344V182.736H190.991L189.119 187.645H194.396V187.65Z" fill="#632CA6"/>
<path fill-rule="evenodd" clip-rule="evenodd" d="M49.9987 112.612L63.1855 103.913L74.1861 122.289L86.9806 118.548L98.2461 135.743L97.6689 141.154L36.4147 129.866L39.9725 91.5927L49.9987 112.612ZM107.121 96.1124L97.2917 94.7608C95.7027 95.4753 94.5959 95.7476 92.6896 96.2323C89.7189 97.0044 86.2836 97.7464 81.1942 95.183C80.01 94.5959 77.5415 92.3398 76.5446 91.0531L36.2798 83.7501L32.1724 133.464L101.157 145.896L107.121 96.1124ZM32.3273 78.1986L36.3023 78.9556L43.9375 0.0649414L174.044 15.1505L158.014 145.224L142.783 143.013C144 141.277 145.894 139.175 149.127 136.487C153.611 132.762 152.027 126.431 149.379 122.433C145.879 115.68 127.843 107.098 128.864 96.3048C129.232 92.3797 129.854 87.2729 133.499 83.7701C133.636 85.2242 133.389 86.6208 133.389 86.6208C133.389 86.6208 134.886 84.712 135.63 82.1112C136.37 81.1118 136.952 80.7945 137.739 79.4603C138.301 81.0019 138.226 82.7907 138.226 82.7907C138.226 82.7907 139.45 79.9 139.648 77.4591C140.372 78.5509 140.555 80.6246 140.555 80.6246C140.555 80.6246 142.144 76.0674 141.781 73.6115C142.506 71.4753 144.657 67.2355 144.05 57.6015C140.08 60.3822 131.338 59.7227 127.933 54.7033C126.803 53.0393 126.026 48.5022 128.497 39.5578C130.084 33.8238 134.011 25.2842 135.543 22.0437L135.725 22.1761C134.918 24.787 133.254 30.2561 132.615 32.9119C130.681 40.9569 130.164 43.7601 131.071 47.4703C131.843 50.6958 133.694 52.8045 138.386 55.163C143.078 57.529 149.307 51.7701 149.699 51.4528C154.259 47.8201 157.786 41.8963 158.179 39.0156C158.588 35.8651 156.362 33.9737 155.24 31.3979C156.847 31.8551 158.636 32.6721 158.636 32.6721C158.636 32.6721 156.5 30.4609 153.866 28.5496C152.774 27.8276 152.135 27.3679 150.986 26.4135C152.65 26.386 154.001 26.4335 154.001 26.4335C154.001 26.4335 151.225 24.9344 148.35 23.8426C150.453 23.7501 152.47 23.8276 152.47 23.8276C152.47 23.8276 146.276 21.0568 141.387 19.0256C138.024 17.6465 134.738 18.0537 132.892 20.7245C130.468 24.2223 127.923 26.1212 122.528 27.2979C119.215 25.8288 118.211 25.0768 114.049 23.94C110.386 19.91 107.51 19.3904 107.51 19.3904C107.51 19.3904 108.937 20.6995 109.319 22.7558C107.243 21.1193 104.967 19.7526 104.967 19.7526C104.967 19.7526 105.849 20.8395 106.671 22.5684L106.481 22.8532C104.057 21.3991 101.209 20.2548 101.209 20.2548C101.209 20.2548 102.024 21.2842 102.978 22.6158C101.149 22.6009 97.4441 22.6933 96.005 22.8557C87.5128 23.0431 85.7514 13.7889 82.4934 12.6271C78.4135 11.1705 76.5896 10.2886 69.6365 17.1193C63.6727 22.9856 59.0106 33.4791 61.3266 35.8301C63.2679 37.7814 67.0955 35.0681 71.3379 29.7814C73.579 26.9806 75.2754 23.6702 76.0699 19.4628C76.7395 15.9125 79.3479 13.8538 79.3479 13.8538C79.3479 13.8538 77.8363 17.2267 77.8363 20.1974C77.8363 21.8213 77.634 27.89 75.0306 31.2979C75.2879 31.7951 75.4079 33.7614 75.6927 34.1386C78.7208 30.4784 85.2242 27.8601 86.2861 27.0881C82.6958 30.0287 74.446 36.7845 71.2779 43.2629C68.2798 49.3866 70.0462 55.0006 68.5296 56.4522C68.0974 56.8669 62.0837 64.3623 60.9269 68.1274C58.9082 74.6883 60.807 81.5865 63.4478 85.8638L70.8257 87.0131C71.905 86.7133 72.6321 86.5634 73.599 86.0037C73.0643 85.0593 72.005 82.7058 71.995 82.2186L72.4122 81.4891C74.7083 84.742 78.5534 87.9 81.7489 89.7139C85.9313 92.0849 90.7508 91.7177 93.8888 90.7483C102.793 88.0025 111.215 81.9837 113.247 80.4022C113.247 80.4022 113.309 81.6639 112.927 81.9488C110.683 84.4822 105.539 89.0618 100.565 92.2573L111.166 93.4241L106.154 132.442C108.375 132.76 108.722 132.917 111.153 133.262C113.297 125.689 117.397 120.745 121.879 117.864C125.831 115.323 131.283 114.751 136.5 115.785L136.834 116.175C133.207 115.798 128.924 116.322 124.525 119.108C120.207 121.839 116.727 128.892 115.445 133.137C113.804 138.563 112.67 144.37 117.087 150.523C120.227 154.898 129.397 157.314 136.807 152.085C134.828 155.268 132.155 157.869 128.552 158.359C123.205 159.086 118.131 158.156 114.638 154.571C111.658 151.505 110.074 145.094 110.491 138.344L105.771 137.659L104.067 149.776L25.9538 140.37L32.3273 78.1986ZM79.8526 45.2917C80.0699 45.7889 80.4147 46.1162 79.9 47.7351L79.8701 47.8276L79.7876 48.0375L79.5728 48.5222C78.6458 50.4185 77.629 52.2049 75.925 53.1193C75.4853 53.0443 75.0281 52.9944 74.5559 52.9719C72.9569 52.9019 71.9475 53.1543 71.3104 53.4991C71.253 53.1792 71.2405 52.7145 71.2754 52.0275C71.4004 49.6265 70.8007 45.544 75.4153 43.3954C77.1568 42.5884 79.6002 42.8357 80.4147 43.8451C80.2673 43.8651 80.1349 43.8951 80.03 43.93C78.7957 44.3573 79.6302 44.782 79.8526 45.2917ZM66.9157 67.6927C67.5203 67.3579 70.3485 67.4903 72.3373 67.7276C76.1249 68.1749 80.2149 69.4866 81.1093 70.1861C82.7383 71.4453 81.9987 73.639 80.7945 74.5409C77.4191 77.0618 74.4609 78.7533 71.3404 78.341C69.4241 78.0887 67.7327 75.0531 66.5359 72.2998C65.7164 70.4035 65.7164 68.3573 66.9157 67.6927ZM100.447 48.2623C99.3804 47.248 105.766 45.9163 110.723 49.2967C114.378 51.7901 114.496 57.1368 110.996 60.1674C110.646 60.4672 110.356 60.6796 110.089 60.8545C109.067 60.3723 107.903 59.8876 106.561 59.4528C104.297 58.7183 102.413 58.3385 100.867 58.1362C100.127 57.3092 99.2654 55.8526 99.4803 53.2142C99.7751 49.634 102.483 50.2011 100.447 48.2623Z" fill="#632CA6"/>
<path fill-rule="evenodd" clip-rule="evenodd" d="M107.962 57.933C107.906 56.3133 106.548 55.046 104.93 55.1027C103.312 55.1593 102.046 56.5186 102.102 58.1383C102.158 59.758 103.516 61.0253 105.134 60.9687C106.752 60.912 108.018 59.5527 107.962 57.933Z" fill="white"/>
<path fill-rule="evenodd" clip-rule="evenodd" d="M77.0174 52.4683C76.97 51.1053 75.8274 50.0387 74.4658 50.0864C73.1041 50.1341 72.0385 51.278 72.0859 52.6411C72.1334 54.0042 73.2759 55.0707 74.6376 55.023C75.9992 54.9753 77.0649 53.8314 77.0174 52.4683Z" fill="white"/>
</g>
</g>
<defs>
<clipPath id="clip0_1_2107">
<rect width="200" height="200" fill="white"/>
</clipPath>
<clipPath id="clip1_1_2107">
<rect width="200" height="200" fill="white"/>
</clipPath>
</defs>
</svg>
