<svg width="200" height="200" viewBox="0 0 200 200" fill="none" xmlns="http://www.w3.org/2000/svg">
<g clip-path="url(#clip0_1_2107)">
<rect width="200" height="200" fill="white"/>
<g clip-path="url(#clip1_1_2107)">
<path fill-rule="evenodd" clip-rule="evenodd" d="M13.0219 199.723H0.0625V169.889H13.0219C22.3586 169.889 27.0331 174.591 27.0331 183.992C27.0331 194.473 22.3586 199.723 13.0219 199.723ZM5.60404 194.921H12.1849C18.3885 194.921 21.4866 191.278 21.4866 183.987C21.4866 177.781 18.3885 174.678 12.1849 174.678H5.60404V194.921ZM32.8395 199.723H27.1506L39.8401 169.889H45.7964L58.7633 199.723H52.802L49.0394 191.585H39.4629L41.3667 186.791H47.5778L42.6834 175.583L32.8395 199.723ZM55.6303 169.889H78.3161V174.686H69.7439V199.723H64.2049V174.686H55.6278L55.6303 169.889ZM81.1643 199.723H75.4754L88.1674 169.889H94.1237L107.088 199.723H101.127L97.3642 191.585H87.7877L89.6865 186.791H95.8976L91.0032 175.583L81.1643 199.723ZM123.723 199.723H110.763V169.889H123.723C133.064 169.889 137.734 174.591 137.734 183.992C137.734 194.473 133.064 199.723 123.723 199.723ZM116.302 194.921H122.888C129.087 194.921 132.192 191.278 132.192 183.987C132.192 177.781 129.087 174.678 122.888 174.678H116.302V194.921ZM141.484 184.847C141.484 174.731 146.493 169.674 156.5 169.674C166.354 169.674 171.278 174.731 171.278 184.847C171.278 194.903 166.354 199.938 156.5 199.938C146.936 199.935 141.936 194.903 141.484 184.847ZM156.5 195.128C162.518 195.128 165.529 191.66 165.529 184.72C165.529 177.886 162.518 174.466 156.5 174.466C150.324 174.466 147.238 177.886 147.238 184.72C147.241 191.66 150.326 195.128 156.5 195.128ZM194.396 187.65V194.633C193.117 194.968 191.97 195.131 190.968 195.131C184.19 195.131 180.807 191.55 180.807 184.387C180.807 177.774 184.4 174.468 191.573 174.468C194.571 174.468 197.357 175.026 199.935 176.14V171.131C197.359 170.159 194.434 169.669 191.156 169.669C180.425 169.669 175.056 174.571 175.056 184.385C175.056 194.743 180.332 199.933 190.883 199.933C194.513 199.933 197.529 199.403 199.938 198.344V182.736H190.991L189.119 187.645H194.396V187.65Z" fill="#632CA6"/>
<path fill-rule="evenodd" clip-rule="evenodd" d="M49.9987 112.612L63.1855 103.913L74.1861 122.289L86.9806 118.548L98.2461 135.743L97.6689 141.154L36.4147 129.866L39.9725 91.5927L49.9987 112.612ZM107.121 96.1124L97.2917 94.7608C95.7027 95.4753 94.5959 95.7476 92.6896 96.2323C89.7189 97.0044 86.2836 97.7464 81.1942 95.183C80.01 94.5959 77.5415 92.3398 76.5446 91.0531L36.2798 83.7501L32.1724 133.464L101.157 145.896L107.121 96.1124ZM32.3273 78.1986L36.3023 78.9556L43.9375 0.0649414L174.044 15.1505L158.014 145.224L142.783 143.013C144 141.277 145.894 139.175 149.127 136.487C153.611 132.762 152.027 126.431 149.379 122.433C145.879 115.68 127.843 107.098 128.864 96.3048C129.232 92.3797 129.854 87.2729 133.499 83.7701C133.636 85.2242 133.389 86.6208 133.389 86.6208C133.389 86.6208 134.886 84.712 135.63 82.1112C136.37 81.1118 136.952 80.7945 137.739 79.4603C138.301 81.0019 138.226 82.7907 138.226 82.7907C138.226 82.7907 139.45 79.9 139.648 77.4591C140.372 78.5509 140.555 80.6246 140.555 80.6246C140.555 80.6246 142.144 76.0674 141.781 73.6115C142.506 71.4753 144.657 67.2355 144.05 57.6015C140.08 60.3822 131.338 59.7227 127.933 54.7033C126.803 53.0393 126.026 48.5022 128.497 39.5578C130.084 33.8238 134.011 25.2842 135.543 22.0437L135.725 22.1761C134.918 24.787 133.254 30.2561 132.615 32.9119C130.681 40.9569 130.164 43.7601 131.071 47.4703C131.843 50.6958 133.694 52.8045 138.386 55.163C143.078 57.529 149.307 51.7701 149.699 51.4528C154.259 47.8201 157.786 41.8963 158.179 39.0156C158.588 35.8651 156.362 33.9737 155.24 31.3979C156.847 31.8551 158.636 32.6721 158.636 32.6721C158.636 32.6721 156.5 30.4609 153.866 28.5496C152.774 27.8276 152.135 27.3679 150.986 26.4135C152.65 26.386 154.001 26.4335 154.001 26.4335C154.001 26.4335 151.225 24.9344 148.35 23.8426C150.453 23.7501 152.47 23.8276 152.47 23.8276C152.47 23.8276 146.276 21.0568 141.387 19.0256C138.024 17.6465 134.738 18.0537 132.892 20.7245C130.468 24.2223 127.923 26.1212 122.528 27.2979C119.215 25.8288 118.211 25.0768 114.049 23.94C110.386 19.91 107.51 19.3904 107.51 19.3904C107.51 19.3904 108.937 20.6995 109.319 22.7558C107.243 21.1193 104.967 19.7526 104.967 19.7526C104.967 19.7526 105.849 20.8395 106.671 22.5684L106.481 22.8532C104.057 21.3991 101.209 20.2548 101.209 20.2548C101.209 20.2548 102.024 21.2842 102.978 22.6158C101.149 22.6009 97.4441 22.6933 96.005 22.8557C87.5128 23.0431 85.7514 13.7889 82.4934 12.6271C78.4135 11.1705 76.5896 10.2886 69.6365 17.1193C63.6727 22.9856 59.0106 33.4791 61.3266 35.8301C63.2679 37.7814 67.0955 35.0681 71.3379 29.7814C73.579 26.9806 75.2754 23.6702 76.0699 19.4628C76.7395 15.9125 79.3479 13.8538 79.3479 13.8538C79.3479 13.8538 77.8363 17.2267 77.8363 20.1974C77.8363 21.8213 77.634 27.89 75.0306 31.2979C75.2879 31.7951 75.4079 33.7614 75.6927 34.1386C78.7208 30.4784 85.2242 27.8601 86.2861 27.0881C82.6958 30.0287 74.446 36.7845 71.2779 43.2629C68.2798 49.3866 70.0462 55.0006 68.5297 56.4522C68.0974 56.8669 62.0837 64.3623 60.9269 68.1274C58.9082 74.6883 60.807 81.5865 63.4478 85.8638L70.8257 87.0131C71.905 86.7133 72.6321 86.5634 73.599 86.0037C73.0643 85.0593 72.005 82.7058 71.995 82.2186L72.4122 81.4891C74.7083 84.742 78.5534 87.9 81.7489 89.7139C85.9313 92.0849 90.7508 91.7177 93.8888 90.7483C102.793 88.0025 111.215 81.9837 113.247 80.4022C113.247 80.4022 113.309 81.6639 112.927 81.9488C110.683 84.4822 105.539 89.0618 100.565 92.2573L111.166 93.4241L106.154 132.442C108.375 132.76 108.722 132.917 111.153 133.262C113.297 125.689 117.397 120.745 121.879 117.864C125.831 115.323 131.283 114.751 136.5 115.785L136.834 116.175C133.207 115.798 128.924 116.322 124.525 119.108C120.207 121.839 116.727 128.892 115.445 133.137C113.804 138.563 112.67 144.37 117.087 150.523C120.227 154.898 129.397 157.314 136.807 152.085C134.828 155.268 132.155 157.869 128.552 158.359C123.205 159.086 118.131 158.156 114.638 154.571C111.658 151.505 110.074 145.094 110.491 138.344L105.771 137.659L104.067 149.776L25.9538 140.37L32.3273 78.1986ZM79.8526 45.2917C80.0699 45.7889 80.4147 46.1162 79.9 47.7351L79.8701 47.8276L79.7876 48.0375L79.5728 48.5222C78.6458 50.4185 77.629 52.2049 75.925 53.1193C75.4853 53.0443 75.0281 52.9944 74.5559 52.9719C72.9569 52.9019 71.9475 53.1543 71.3104 53.499C71.2529 53.1792 71.2405 52.7145 71.2754 52.0275C71.4004 49.6265 70.8007 45.544 75.4153 43.3954C77.1568 42.5884 79.6002 42.8357 80.4147 43.8451C80.2673 43.8651 80.1349 43.895 80.03 43.93C78.7957 44.3573 79.6302 44.782 79.8526 45.2917ZM66.9157 67.6927C67.5203 67.3579 70.3485 67.4903 72.3373 67.7276C76.1249 68.1749 80.2148 69.4866 81.1093 70.1861C82.7383 71.4453 81.9987 73.639 80.7945 74.5409C77.4191 77.0618 74.4609 78.7533 71.3404 78.341C69.4241 78.0887 67.7327 75.0531 66.5359 72.2998C65.7164 70.4035 65.7164 68.3573 66.9157 67.6927ZM100.447 48.2623C99.3804 47.248 105.766 45.9163 110.723 49.2967C114.378 51.7901 114.496 57.1368 110.996 60.1674C110.646 60.4672 110.356 60.6796 110.089 60.8545C109.067 60.3723 107.903 59.8876 106.561 59.4528C104.297 58.7183 102.413 58.3385 100.867 58.1361C100.127 57.3092 99.2654 55.8526 99.4803 53.2142C99.7751 49.634 102.483 50.2011 100.447 48.2623Z" fill="#632CA6"/>
<path fill-rule="evenodd" clip-rule="evenodd" d="M107.962 57.933C107.906 56.3133 106.548 55.046 104.93 55.1027C103.312 55.1593 102.046 56.5186 102.102 58.1383C102.158 59.758 103.516 61.0253 105.134 60.9687C106.752 60.912 108.018 59.5527 107.962 57.933Z" fill="white"/>
<path fill-rule="evenodd" clip-rule="evenodd" d="M77.0174 52.4683C76.97 51.1053 75.8274 50.0387 74.4658 50.0864C73.1041 50.1341 72.0385 51.278 72.0859 52.6411C72.1334 54.0042 73.2759 55.0707 74.6376 55.023C75.9992 54.9753 77.0649 53.8314 77.0174 52.4683Z" fill="white"/>
</g>
</g>
<defs>
<clipPath id="clip0_1_2107">
<rect width="200" height="200" fill="white"/>
</clipPath>
<clipPath id="clip1_1_2107">
<rect width="200" height="200" fill="white"/>
</clipPath>
</defs>
</svg>
