<svg width="200" height="200" viewBox="0 0 200 200" fill="none" xmlns="http://www.w3.org/2000/svg">
<g clip-path="url(#clip0_1_2171)">
<rect width="200" height="200" fill="white"/>
<g clip-path="url(#clip1_1_2171)">
<path fill-rule="evenodd" clip-rule="evenodd" d="M13.0219 199.723H0.0625V169.889H13.0219C22.3586 169.889 27.0331 174.591 27.0331 183.992C27.0331 194.473 22.3586 199.723 13.0219 199.723ZM5.60404 194.921H12.1849C18.3885 194.921 21.4866 191.278 21.4866 183.987C21.4866 177.781 18.3885 174.678 12.1849 174.678H5.60404V194.921ZM32.8395 199.723H27.1506L39.8401 169.889H45.7964L58.7633 199.723H52.802L49.0394 191.585H39.4629L41.3667 186.791H47.5778L42.6834 175.583L32.8395 199.723ZM55.6303 169.889H78.3161V174.686H69.7439V199.723H64.2049V174.686H55.6278L55.6303 169.889ZM81.1643 199.723H75.4754L88.1674 169.889H94.1237L107.088 199.723H101.127L97.3642 191.585H87.7877L89.6865 186.791H95.8976L91.0032 175.583L81.1643 199.723ZM123.723 199.723H110.763V169.889H123.723C133.064 169.889 137.734 174.591 137.734 183.992C137.734 194.473 133.064 199.723 123.723 199.723ZM116.302 194.921H122.888C129.087 194.921 132.192 191.278 132.192 183.987C132.192 177.781 129.087 174.678 122.888 174.678H116.302V194.921ZM141.484 184.847C141.484 174.731 146.493 169.674 156.5 169.674C166.354 169.674 171.278 174.731 171.278 184.847C171.278 194.903 166.354 199.938 156.5 199.938C146.936 199.935 141.936 194.903 141.484 184.847ZM156.5 195.128C162.518 195.128 165.529 191.66 165.529 184.72C165.529 177.886 162.518 174.466 156.5 174.466C150.324 174.466 147.238 177.886 147.238 184.72C147.241 191.66 150.326 195.128 156.5 195.128ZM194.396 187.65V194.633C193.117 194.968 191.97 195.131 190.968 195.131C184.19 195.131 180.807 191.55 180.807 184.387C180.807 177.774 184.4 174.468 191.573 174.468C194.571 174.468 197.357 175.026 199.935 176.14V171.131C197.359 170.159 194.434 169.669 191.156 169.669C180.425 169.669 175.056 174.571 175.056 184.385C175.056 194.743 180.332 199.933 190.883 199.933C194.513 199.933 197.529 199.403 199.938 198.344V182.736H190.991L189.119 187.645H194.396V187.65Z" fill="#632CA6"/>
<path fill-rule="evenodd" clip-rule="evenodd" d="M149.999 112.612L136.812 103.913L125.811 122.289L113.017 118.548L107.384 127.146L101.751 135.743L102.329 141.154L163.583 129.866L160.025 91.5927L149.999 112.612ZM92.877 96.1124L102.706 94.7608C104.295 95.4753 105.402 95.7476 107.308 96.2323C110.279 97.0044 113.714 97.7464 118.803 95.183C119.988 94.5959 122.456 92.3398 123.453 91.0531L163.718 83.7501L167.825 133.464L98.8408 145.896L92.877 96.1124ZM167.67 78.1986L163.695 78.9556L156.06 0.0649414L25.9539 15.1505L41.9838 145.224L57.2143 143.013C55.9976 141.277 54.1038 139.175 50.8708 136.487C46.3861 132.762 47.9701 126.431 50.6184 122.433C54.1188 115.68 72.155 107.098 71.1331 96.3048C70.7658 92.3797 70.1437 87.2729 66.4985 83.7701C66.3611 85.2242 66.6084 86.6208 66.6084 86.6208C66.6084 86.6208 65.1119 84.712 64.3673 82.1112C63.6278 81.1118 63.0457 80.7945 62.2587 79.4603C61.6965 81.0019 61.7715 82.7907 61.7715 82.7907C61.7715 82.7907 60.5472 79.9 60.3499 77.4591C59.6253 78.5509 59.4429 80.6246 59.4429 80.6246C59.4429 80.6246 57.8539 76.0674 58.2162 73.6115C57.4916 71.4753 55.3405 67.2355 55.9476 57.6015C59.9176 60.3822 68.6597 59.7227 72.065 54.7033C73.1943 53.0393 73.9713 48.5022 71.5004 39.5578C69.9139 33.8238 65.9863 25.2842 64.4548 22.0437L64.2724 22.1761C65.0794 24.787 66.7434 30.2561 67.383 32.9119C69.3168 40.9569 69.8339 43.7601 68.927 47.4703C68.155 50.6958 66.3036 52.8045 61.6116 55.163C56.9195 57.529 50.6909 51.7701 50.2986 51.4528C45.739 47.8201 42.2112 41.8963 41.8189 39.0156C41.4092 35.8651 43.6353 33.9737 44.7571 31.3979C43.1506 31.8551 41.3617 32.6721 41.3617 32.6721C41.3617 32.6721 43.4979 30.4609 46.1312 28.5496C47.2231 27.8276 47.8627 27.3679 49.0119 26.4135C47.348 26.386 45.9963 26.4335 45.9963 26.4335C45.9963 26.4335 48.7721 24.9344 51.6478 23.8426C49.5441 23.7501 47.5279 23.8276 47.5279 23.8276C47.5279 23.8276 53.7215 21.0568 58.6109 19.0256C61.9738 17.6465 65.2593 18.0537 67.1056 20.7245C69.5291 24.2223 72.075 26.1212 77.4692 27.2979C80.7821 25.8288 81.7865 25.0768 85.9489 23.94C89.6116 19.91 92.4873 19.3904 92.4873 19.3904C92.4873 19.3904 91.0607 20.6995 90.6784 22.7558C92.7546 21.1193 95.0307 19.7526 95.0307 19.7526C95.0307 19.7526 94.1487 20.8395 93.3267 22.5684L93.5166 22.8532C95.9401 21.3991 98.7883 20.2548 98.7883 20.2548C98.7883 20.2548 97.9738 21.2842 97.0194 22.6158C98.8483 22.6009 102.553 22.6933 103.993 22.8557C112.485 23.0431 114.246 13.7889 117.504 12.6271C121.584 11.1705 123.408 10.2886 130.361 17.1193C136.325 22.9856 140.987 33.4791 138.671 35.8301C136.73 37.7814 132.902 35.0681 128.66 29.7814C126.419 26.9806 124.722 23.6702 123.928 19.4628C123.258 15.9125 120.65 13.8538 120.65 13.8538C120.65 13.8538 122.161 17.2267 122.161 20.1974C122.161 21.8213 122.364 27.89 124.967 31.2979C124.71 31.7951 124.59 33.7614 124.305 34.1386C121.277 30.4784 114.773 27.8601 113.712 27.0881C117.302 30.0287 125.552 36.7845 128.72 43.2629C131.718 49.3866 129.951 55.0006 131.468 56.4522C131.9 56.8669 137.914 64.3622 139.071 68.1274C141.089 74.6883 139.191 81.5865 136.55 85.8638L129.172 87.0131C128.093 86.7133 127.365 86.5634 126.399 86.0037C126.933 85.0593 127.993 82.7058 128.003 82.2186L127.585 81.4891C125.289 84.742 121.444 87.9 118.249 89.7139C114.066 92.0849 109.247 91.7177 106.109 90.7483C97.2043 88.0025 88.7821 81.9837 86.7509 80.4022C86.7509 80.4022 86.6884 81.6639 87.0707 81.9488C89.3143 84.4822 94.4585 89.0618 99.4329 92.2573L88.8321 93.4241L93.8439 132.442C91.6228 132.76 91.2755 132.917 88.8445 133.262C86.7009 125.689 82.601 120.745 78.1188 117.864C74.1662 115.323 68.7146 114.751 63.4979 115.785L63.1631 116.175C66.7908 115.798 71.0732 116.322 75.4729 119.108C79.7902 121.839 83.2705 128.892 84.5522 133.137C86.1937 138.563 87.328 144.37 82.9108 150.523C79.7702 154.898 70.601 157.314 63.1906 152.085C65.1693 155.268 67.8427 157.869 71.4454 158.359C76.7921 159.086 81.8664 158.156 85.3592 154.571C88.3399 151.505 89.9239 145.094 89.5066 138.344L94.2262 137.659L95.9301 149.776L174.044 140.37L167.67 78.1986ZM120.145 45.2917C119.928 45.7889 119.583 46.1162 120.098 47.7351L120.127 47.8276L120.21 48.0375L120.425 48.5222C121.352 50.4185 122.369 52.2049 124.073 53.1193C124.512 53.0443 124.969 52.9944 125.442 52.9719C127.041 52.9019 128.05 53.1543 128.687 53.4991C128.745 53.1793 128.757 52.7145 128.722 52.0275C128.597 49.6265 129.197 45.544 124.582 43.3954C122.841 42.5884 120.397 42.8357 119.583 43.8451C119.73 43.8651 119.863 43.895 119.968 43.93C121.202 44.3573 120.367 44.782 120.145 45.2917ZM133.082 67.6927C132.477 67.3579 129.649 67.4903 127.66 67.7276C123.873 68.1749 119.783 69.4866 118.888 70.1861C117.259 71.4453 117.999 73.639 119.203 74.5409C122.578 77.0618 125.537 78.7533 128.657 78.341C130.573 78.0887 132.265 75.0531 133.462 72.2998C134.281 70.4035 134.281 68.3573 133.082 67.6927ZM99.5504 48.2623C100.617 47.248 94.2312 45.9163 89.2743 49.2967C85.6191 51.7901 85.5016 57.1368 89.0019 60.1674C89.3517 60.4672 89.6415 60.6796 89.9089 60.8545C90.9307 60.3723 92.095 59.8876 93.4367 59.4528C95.7003 58.7183 97.5841 58.3385 99.1306 58.1362C99.8702 57.3092 100.732 55.8526 100.517 53.2142C100.222 49.634 97.5141 50.2011 99.5504 48.2623Z" fill="#632CA6"/>
<path d="M161.5 96L164.5 131L101 143V140L114 123.5L127.5 126.5L138 109L152.5 117.5L161.5 96Z" fill="white"/>
</g>
</g>
<defs>
<clipPath id="clip0_1_2171">
<rect width="200" height="200" fill="white"/>
</clipPath>
<clipPath id="clip1_1_2171">
<rect width="200" height="200" fill="white"/>
</clipPath>
</defs>
</svg>
