<svg width="200" height="200" viewBox="0 0 200 200" fill="none" xmlns="http://www.w3.org/2000/svg">
<g clip-path="url(#clip0_1_2076)">
<path d="M89.1187 48.8323C94.0971 45.4405 100.511 46.7738 99.4375 47.7959C97.3912 49.745 100.114 49.1688 100.407 52.7654C100.623 55.4144 99.7581 56.873 99.0136 57.7031C97.4594 57.9063 95.5703 58.2856 93.2954 59.0252C91.9492 59.4633 90.7792 59.949 89.7537 60.4378C89.4838 60.2616 89.1901 60.0458 88.8425 59.7458C85.3309 56.7016 85.4484 51.3337 89.1187 48.8323ZM118.856 69.8006C119.759 69.1006 123.864 67.7817 127.665 67.3325C129.66 67.0976 132.505 66.9611 133.112 67.3008C134.316 67.9658 134.316 70.0244 133.491 71.9258C132.289 74.6875 130.591 77.7397 128.667 77.9905C125.528 78.4047 122.561 76.7064 119.173 74.1765C117.964 73.267 117.221 71.064 118.856 69.8006ZM124.582 42.9058C129.216 45.0612 128.609 49.1625 128.738 51.5718C128.773 52.2638 128.762 52.7305 128.703 53.0511C128.062 52.7035 127.047 52.4479 125.439 52.5194C124.969 52.5384 124.512 52.594 124.069 52.6638C122.359 51.748 121.337 49.9561 120.402 48.0514C120.316 47.8753 120.25 47.7181 120.186 47.5658C120.159 47.4959 120.131 47.4213 120.104 47.3579C120.092 47.3229 120.084 47.2959 120.072 47.2642C119.559 45.6373 119.904 45.312 120.119 44.8104C120.343 44.2978 121.18 43.8756 119.943 43.4486C119.837 43.4089 119.705 43.3867 119.556 43.3582C120.375 42.3424 122.828 42.0963 124.582 42.9058ZM99.32 91.9418C94.3273 88.7373 89.1616 84.1408 86.9026 81.5965C86.5231 81.3108 86.5851 80.0427 86.5851 80.0427C88.6234 81.6267 97.08 87.6675 106.022 90.426C109.177 91.4005 114.017 91.7688 118.216 89.3896C121.424 87.5707 125.287 84.4011 127.592 81.1347L128.014 81.8663C127.998 82.352 126.938 84.7185 126.398 85.6692C127.373 86.2295 128.1 86.3819 129.184 86.6787L136.588 85.5248C139.246 81.2331 141.151 74.3114 139.12 67.723C137.961 63.9439 131.919 56.4191 131.486 56.0048C129.968 54.5462 131.74 48.9117 128.732 42.7645C125.552 36.2619 117.267 29.4814 113.668 26.5309C114.728 27.3054 121.259 29.9385 124.304 33.6129C124.59 33.2335 124.707 31.2607 124.969 30.7607C122.355 27.3371 122.151 21.2455 122.151 19.6171C122.151 16.6316 120.634 13.2477 120.634 13.2477C120.634 13.2477 123.248 15.3174 123.925 18.8822C124.723 23.1041 126.425 26.4293 128.676 29.2433C132.937 34.5493 136.785 37.2713 138.73 35.3111C141.057 32.9558 136.369 22.4201 130.381 16.5395C123.391 9.67658 121.564 10.5606 117.464 12.024C114.192 13.1906 112.423 22.4788 103.895 22.2947C102.451 22.1264 98.7294 22.036 96.8895 22.0518C97.8484 20.7138 98.6707 19.6806 98.6707 19.6806C98.6707 19.6806 95.81 20.8313 93.3716 22.2899L93.1843 22.009C94.0066 20.2758 94.8909 19.1806 94.8909 19.1806C94.8909 19.1806 92.6049 20.5535 90.5189 22.1979C90.8983 20.1313 92.335 18.8219 92.335 18.8219C92.335 18.8219 89.4473 19.3425 85.7691 23.3882C81.5892 24.531 80.5843 25.2817 77.2537 26.7562C71.8372 25.5754 69.2829 23.6692 66.8477 20.1599C64.9935 17.4792 61.6931 17.0728 58.3212 18.4585C53.4047 20.49 47.1865 23.2724 47.1865 23.2724C47.1865 23.2724 49.2137 23.1898 51.3267 23.2803C48.4343 24.3755 45.6561 25.8817 45.6561 25.8817C45.6561 25.8817 47.0103 25.8341 48.6819 25.8627C47.5278 26.8213 46.8896 27.2784 45.7895 28.0069C43.1447 29.9274 41 32.1463 41 32.1463C41 32.1463 42.7955 31.3289 44.4084 30.8702C43.2812 33.4526 41.046 35.354 41.4572 38.5157C41.8525 41.4027 45.3974 47.3499 49.9725 51.0004C50.3678 51.3179 56.6178 57.1 61.3327 54.7255C66.0444 52.3543 67.9034 50.2418 68.6781 47.0023C69.5893 43.282 69.0702 40.4679 67.1239 32.3923C66.4825 29.7274 64.8109 24.239 64.0045 21.6138L64.1838 21.4852C65.7253 24.7373 69.6702 33.3097 71.2593 39.068C73.7406 48.0467 72.9659 52.6019 71.8308 54.2716C68.4066 59.3077 59.6325 59.9728 55.6415 57.1825C55.0303 66.85 57.1909 71.1068 57.9227 73.2511C57.5592 75.716 59.1562 80.2934 59.1562 80.2934C59.1562 80.2934 59.3356 78.2127 60.0675 77.1159C60.2627 79.5618 61.4962 82.4679 61.4962 82.4679C61.4962 82.4679 61.4216 80.6728 61.982 79.1221C62.7726 80.4601 63.352 80.7775 64.0997 81.7822C64.8474 84.3963 66.346 86.3057 66.346 86.3057C66.346 86.3057 66.1031 84.9042 66.2365 83.4456C69.8957 86.9596 70.5259 92.0878 70.8894 96.0288C71.915 106.863 53.8032 115.478 50.2932 122.255C47.6326 126.269 46.0387 132.62 50.544 136.364C61.4343 145.406 57.2512 147.895 62.7027 151.869C70.1814 157.319 79.5382 154.878 82.7227 150.445C87.1566 144.268 86.0183 138.441 84.3705 132.991C83.083 128.729 79.5842 121.649 75.2567 118.91C70.8339 116.108 66.5333 115.584 62.89 115.959L63.2266 115.572C68.4669 114.531 73.9454 115.102 77.9094 117.657C82.4099 120.549 86.5263 125.509 88.679 133.112C91.1205 132.764 91.465 132.607 93.7002 132.29L88.6679 93.1242L99.32 91.9418ZM102.228 141.033L101.649 135.602L112.966 118.343L125.814 122.095L136.861 103.647L150.104 112.382L160.166 91.2847L163.742 129.706L102.228 141.033ZM163.876 83.417L123.439 90.745C122.437 92.0354 119.961 94.3019 118.77 94.8923C113.663 97.4636 110.212 96.7192 107.229 95.9447C105.311 95.459 104.2 95.186 102.608 94.4702L92.7382 95.824L98.7294 145.8L168 133.315L163.876 83.417Z" fill="white"/>
<g clip-path="url(#clip1_1_2076)">
<path fill-rule="evenodd" clip-rule="evenodd" d="M13.0219 199.723H0.0625V169.889H13.0219C22.3586 169.889 27.0331 174.591 27.0331 183.992C27.0331 194.473 22.3586 199.723 13.0219 199.723ZM5.60404 194.921H12.1849C18.3885 194.921 21.4866 191.278 21.4866 183.987C21.4866 177.781 18.3885 174.678 12.1849 174.678H5.60404V194.921ZM32.8395 199.723H27.1506L39.8401 169.889H45.7964L58.7633 199.723H52.802L49.0394 191.585H39.4629L41.3667 186.791H47.5778L42.6834 175.583L32.8395 199.723ZM55.6303 169.889H78.3161V174.686H69.7439V199.723H64.2049V174.686H55.6278L55.6303 169.889ZM81.1643 199.723H75.4754L88.1674 169.889H94.1237L107.088 199.723H101.127L97.3642 191.585H87.7877L89.6865 186.791H95.8976L91.0032 175.583L81.1643 199.723ZM123.723 199.723H110.763V169.889H123.723C133.064 169.889 137.734 174.591 137.734 183.992C137.734 194.473 133.064 199.723 123.723 199.723ZM116.302 194.921H122.888C129.087 194.921 132.192 191.278 132.192 183.987C132.192 177.781 129.087 174.678 122.888 174.678H116.302V194.921ZM141.484 184.847C141.484 174.731 146.493 169.674 156.5 169.674C166.354 169.674 171.278 174.731 171.278 184.847C171.278 194.903 166.354 199.938 156.5 199.938C146.936 199.935 141.936 194.903 141.484 184.847ZM156.5 195.128C162.518 195.128 165.529 191.66 165.529 184.72C165.529 177.886 162.518 174.466 156.5 174.466C150.324 174.466 147.238 177.886 147.238 184.72C147.241 191.66 150.326 195.128 156.5 195.128ZM194.396 187.65V194.633C193.117 194.968 191.97 195.131 190.968 195.131C184.19 195.131 180.807 191.55 180.807 184.387C180.807 177.774 184.4 174.468 191.573 174.468C194.571 174.468 197.357 175.026 199.935 176.14V171.131C197.359 170.159 194.434 169.669 191.156 169.669C180.425 169.669 175.056 174.571 175.056 184.385C175.056 194.743 180.332 199.933 190.883 199.933C194.513 199.933 197.529 199.403 199.938 198.344V182.736H190.991L189.119 187.645H194.396V187.65Z" fill="#632CA6"/>
<path fill-rule="evenodd" clip-rule="evenodd" d="M149.999 112.612L136.812 103.913L125.811 122.289L113.017 118.548L101.751 135.743L102.329 141.154L163.583 129.866L160.025 91.5927L149.999 112.612ZM92.877 96.1124L102.706 94.7608C104.295 95.4753 105.402 95.7476 107.308 96.2323C110.279 97.0044 113.714 97.7464 118.803 95.183C119.988 94.5959 122.456 92.3398 123.453 91.0531L163.718 83.7501L167.825 133.464L98.8408 145.896L92.877 96.1124ZM167.67 78.1986L163.695 78.9556L156.06 0.0649414L25.9539 15.1505L41.9838 145.224L57.2143 143.013C55.9976 141.277 54.1038 139.175 50.8708 136.487C46.3861 132.762 47.9701 126.431 50.6184 122.433C54.1188 115.68 72.155 107.098 71.1331 96.3048C70.7658 92.3797 70.1437 87.2729 66.4985 83.7701C66.3611 85.2242 66.6084 86.6208 66.6084 86.6208C66.6084 86.6208 65.1119 84.712 64.3673 82.1112C63.6278 81.1118 63.0457 80.7945 62.2587 79.4603C61.6965 81.0019 61.7715 82.7907 61.7715 82.7907C61.7715 82.7907 60.5472 79.9 60.3499 77.4591C59.6253 78.5509 59.4429 80.6246 59.4429 80.6246C59.4429 80.6246 57.8539 76.0674 58.2162 73.6115C57.4916 71.4753 55.3405 67.2355 55.9476 57.6015C59.9176 60.3822 68.6597 59.7227 72.065 54.7033C73.1943 53.0393 73.9713 48.5022 71.5004 39.5578C69.9139 33.8238 65.9863 25.2842 64.4548 22.0437L64.2724 22.1761C65.0794 24.787 66.7434 30.2561 67.383 32.9119C69.3168 40.9569 69.8339 43.7601 68.927 47.4703C68.155 50.6958 66.3036 52.8045 61.6116 55.163C56.9195 57.529 50.6909 51.7701 50.2986 51.4528C45.739 47.8201 42.2112 41.8963 41.8189 39.0156C41.4092 35.8651 43.6353 33.9737 44.7571 31.3979C43.1506 31.8551 41.3617 32.6721 41.3617 32.6721C41.3617 32.6721 43.4979 30.4609 46.1312 28.5496C47.2231 27.8276 47.8627 27.3679 49.0119 26.4135C47.348 26.386 45.9963 26.4335 45.9963 26.4335C45.9963 26.4335 48.7721 24.9344 51.6478 23.8426C49.5441 23.7501 47.5279 23.8276 47.5279 23.8276C47.5279 23.8276 53.7215 21.0568 58.6109 19.0256C61.9738 17.6465 65.2593 18.0537 67.1056 20.7245C69.5291 24.2223 72.075 26.1212 77.4692 27.2979C80.7821 25.8288 81.7865 25.0768 85.9489 23.94C89.6116 19.91 92.4873 19.3904 92.4873 19.3904C92.4873 19.3904 91.0607 20.6995 90.6784 22.7558C92.7546 21.1193 95.0307 19.7526 95.0307 19.7526C95.0307 19.7526 94.1487 20.8395 93.3267 22.5684L93.5166 22.8532C95.9401 21.3991 98.7883 20.2548 98.7883 20.2548C98.7883 20.2548 97.9738 21.2842 97.0194 22.6158C98.8483 22.6009 102.553 22.6933 103.993 22.8557C112.485 23.0431 114.246 13.7889 117.504 12.6271C121.584 11.1705 123.408 10.2886 130.361 17.1193C136.325 22.9856 140.987 33.4791 138.671 35.8301C136.73 37.7814 132.902 35.0681 128.66 29.7814C126.419 26.9806 124.722 23.6702 123.928 19.4628C123.258 15.9125 120.65 13.8538 120.65 13.8538C120.65 13.8538 122.161 17.2267 122.161 20.1974C122.161 21.8213 122.364 27.89 124.967 31.2979C124.71 31.7951 124.59 33.7614 124.305 34.1386C121.277 30.4784 114.773 27.8601 113.712 27.0881C117.302 30.0287 125.552 36.7845 128.72 43.2629C131.718 49.3866 129.951 55.0006 131.468 56.4522C131.9 56.8669 137.914 64.3623 139.071 68.1274C141.089 74.6883 139.191 81.5865 136.55 85.8638L129.172 87.0131C128.093 86.7133 127.365 86.5634 126.399 86.0037C126.933 85.0593 127.993 82.7058 128.003 82.2186L127.585 81.4891C125.289 84.742 121.444 87.9 118.249 89.7139C114.066 92.0849 109.247 91.7177 106.109 90.7483C97.2043 88.0025 88.7821 81.9837 86.7509 80.4022C86.7509 80.4022 86.6884 81.6639 87.0707 81.9488C89.3143 84.4822 94.4585 89.0618 99.4329 92.2573L88.8321 93.4241L93.8439 132.442C91.6228 132.76 91.2755 132.917 88.8445 133.262C86.7009 125.689 82.601 120.745 78.1188 117.864C74.1662 115.323 68.7146 114.751 63.4979 115.785L63.1631 116.175C66.7908 115.798 71.0732 116.322 75.4729 119.108C79.7902 121.839 83.2705 128.892 84.5522 133.137C86.1937 138.563 87.328 144.37 82.9108 150.523C79.7702 154.898 70.601 157.314 63.1906 152.085C65.1693 155.268 67.8427 157.869 71.4454 158.359C76.7921 159.086 81.8664 158.156 85.3592 154.571C88.3399 151.505 89.9239 145.094 89.5066 138.344L94.2262 137.659L95.9301 149.776L174.044 140.37L167.67 78.1986ZM120.145 45.2917C119.928 45.7889 119.583 46.1162 120.098 47.7351L120.127 47.8276L120.21 48.0375L120.425 48.5222C121.352 50.4185 122.369 52.2049 124.073 53.1193C124.512 53.0443 124.969 52.9944 125.442 52.9719C127.041 52.9019 128.05 53.1543 128.687 53.4991C128.745 53.1792 128.757 52.7145 128.722 52.0275C128.597 49.6265 129.197 45.544 124.582 43.3954C122.841 42.5884 120.397 42.8357 119.583 43.8451C119.73 43.8651 119.863 43.8951 119.968 43.93C121.202 44.3573 120.367 44.782 120.145 45.2917ZM133.082 67.6927C132.477 67.3579 129.649 67.4903 127.66 67.7276C123.873 68.1749 119.783 69.4866 118.888 70.1861C117.259 71.4453 117.999 73.639 119.203 74.5409C122.578 77.0618 125.537 78.7533 128.657 78.341C130.573 78.0887 132.265 75.0531 133.462 72.2998C134.281 70.4035 134.281 68.3573 133.082 67.6927ZM99.5504 48.2623C100.617 47.248 94.2312 45.9163 89.2743 49.2967C85.6191 51.7901 85.5016 57.1368 89.0019 60.1674C89.3517 60.4672 89.6415 60.6796 89.9089 60.8545C90.9307 60.3723 92.095 59.8876 93.4367 59.4528C95.7003 58.7183 97.5841 58.3385 99.1306 58.1362C99.8702 57.3092 100.732 55.8526 100.517 53.2142C100.222 49.634 97.5141 50.2011 99.5504 48.2623Z" fill="#632CA6"/>
</g>
</g>
<defs>
<clipPath id="clip0_1_2076">
<rect width="200" height="200" fill="white"/>
</clipPath>
<clipPath id="clip1_1_2076">
<rect width="200" height="200" fill="white"/>
</clipPath>
</defs>
</svg>
