<svg width="200" height="200" viewBox="0 0 200 200" fill="none" xmlns="http://www.w3.org/2000/svg">
<path d="M44.387 88.7324C38.5779 110.882 29.7926 119.066 33.074 147.329C37.004 181.106 70.3039 191.16 70.3039 191.16C70.3039 191.16 89.9634 197.179 116.806 194.146C143.648 191.112 156.239 174.982 156.239 174.982C175.25 153.463 167.39 100.169 167.39 100.169C165.291 78.7549 157.488 51.9699 157.488 51.9699C148.188 22.9052 131.095 13.1661 131.095 13.1661C131.095 13.1661 119.467 3.11221 96.0586 5.31568C96.0586 5.31568 67.4709 6.72742 53.487 29.8208C53.487 29.8208 43.4331 44.5774 46.104 66.9745C46.104 66.9745 46.4474 80.8534 44.3774 88.742L44.387 88.7324Z" fill="#FFE26C" stroke="#18181B" stroke-width="9" stroke-miterlimit="10"/>
<path d="M123.086 75.0919C117.052 75.0919 112.161 70.2007 112.161 64.1669C112.161 58.1332 117.052 53.2419 123.086 53.2419C129.12 53.2419 134.011 58.1332 134.011 64.1669C134.011 70.2007 129.12 75.0919 123.086 75.0919Z" fill="#18181B"/>
<path d="M123.561 66.5419C122.512 66.5419 121.661 65.6913 121.661 64.6419C121.661 63.5926 122.512 62.7419 123.561 62.7419C124.61 62.7419 125.461 63.5926 125.461 64.6419C125.461 65.6913 124.61 66.5419 123.561 66.5419Z" fill="white"/>
<path d="M77.4861 76.0419C71.4524 76.0419 66.5611 71.1506 66.5611 65.1169C66.5611 59.0832 71.4524 54.1919 77.4861 54.1919C83.5198 54.1919 88.4111 59.0832 88.4111 65.1169C88.4111 71.1506 83.5198 76.0419 77.4861 76.0419Z" fill="#18181B"/>
<path d="M77.9611 67.4919C76.9117 67.4919 76.0611 66.6412 76.0611 65.5919C76.0611 64.5426 76.9117 63.6919 77.9611 63.6919C79.0104 63.6919 79.8611 64.5426 79.8611 65.5919C79.8611 66.6412 79.0104 67.4919 77.9611 67.4919Z" fill="white"/>
<path d="M89.3611 84.592C89.3611 87.7387 94.4634 90.292 100.761 90.292C107.059 90.292 112.161 87.7387 112.161 84.592" stroke="#18181B" stroke-width="5" stroke-miterlimit="10" stroke-linecap="round"/>
</svg>
