<svg width="200" height="200" viewBox="0 0 200 200" fill="none" xmlns="http://www.w3.org/2000/svg">
<path d="M156.613 88.7324C162.422 110.882 171.207 119.066 167.926 147.329C163.996 181.106 130.696 191.16 130.696 191.16C130.696 191.16 111.037 197.179 84.1945 194.146C57.3523 191.112 44.7611 174.982 44.7611 174.982C25.7503 153.463 33.6103 100.169 33.6103 100.169C35.7088 78.7549 43.5115 51.9699 43.5115 51.9699C52.8118 22.9052 69.9054 13.1661 69.9054 13.1661C69.9054 13.1661 81.5331 3.11221 104.941 5.31568C104.941 5.31568 133.529 6.72742 147.513 29.8208C147.513 29.8208 157.567 44.5774 154.896 66.9745C154.896 66.9745 154.553 80.8534 156.623 88.742L156.613 88.7324Z" fill="#FFE26C" stroke="#18181B" stroke-width="5" stroke-miterlimit="10"/>
<path d="M112.782 79.7275C112.782 85.3936 107.612 89.9913 101.231 89.9913C94.8495 89.9913 89.6794 85.3936 89.6794 79.7275" stroke="#18181B" stroke-width="2" stroke-miterlimit="10" stroke-linecap="round"/>
<path d="M121.614 73.1919C128.172 73.1919 133.489 67.8753 133.489 61.3169C133.489 54.7585 128.172 49.4419 121.614 49.4419C115.056 49.4419 109.739 54.7585 109.739 61.3169C109.739 67.8753 115.056 73.1919 121.614 73.1919Z" fill="#18181B"/>
<path fill-rule="evenodd" clip-rule="evenodd" d="M123.075 59.8284C123.129 58.2897 124.419 57.0856 125.955 57.1394C127.493 57.1932 128.695 58.4845 128.642 60.0233C128.588 61.562 127.298 62.7661 125.761 62.7123C124.225 62.6581 123.021 61.3672 123.075 59.8284Z" fill="white"/>
<path d="M77.9141 73.1919C84.4724 73.1919 89.7891 67.8753 89.7891 61.3169C89.7891 54.7585 84.4724 49.4419 77.9141 49.4419C71.3557 49.4419 66.0391 54.7585 66.0391 61.3169C66.0391 67.8753 71.3557 73.1919 77.9141 73.1919Z" fill="#18181B"/>
<path fill-rule="evenodd" clip-rule="evenodd" d="M79.3751 59.8284C79.4287 58.2897 80.7189 57.0856 82.2553 57.1394C83.7927 57.1932 84.9954 58.4845 84.9418 60.0233C84.8882 61.562 83.5985 62.7661 82.0611 62.7123C80.5247 62.6581 79.3215 61.3672 79.3751 59.8284Z" fill="white"/>
</svg>
