<svg width="200" height="200" viewBox="0 0 200 200" fill="none" xmlns="http://www.w3.org/2000/svg">
<path d="M44.387 88.7324C38.5779 110.882 29.7926 119.066 33.074 147.329C37.004 181.106 70.3039 191.16 70.3039 191.16C70.3039 191.16 89.9634 197.179 116.806 194.146C143.648 191.112 156.239 174.982 156.239 174.982C175.25 153.463 167.39 100.169 167.39 100.169C165.291 78.7549 157.488 51.9699 157.488 51.9699C148.188 22.9052 131.095 13.1661 131.095 13.1661C131.095 13.1661 119.467 3.11221 96.0586 5.31568C96.0586 5.31568 67.4709 6.72742 53.487 29.8208C53.487 29.8208 43.4331 44.5774 46.104 66.9745C46.104 66.9745 46.4474 80.8534 44.3774 88.742L44.387 88.7324Z" fill="#FDE68A" stroke="#18181B" stroke-width="9" stroke-miterlimit="10"/>
<path d="M73.1512 79.098C77.8401 79.6744 81.8582 78.3716 82.126 76.1881C82.3938 74.0046 78.8098 71.7673 74.1209 71.1909C69.432 70.6145 65.4138 71.9173 65.146 74.1008C64.8782 76.2842 68.4623 78.5216 73.1512 79.098Z" fill="#EAADCC"/>
<path fill-rule="evenodd" clip-rule="evenodd" d="M76.7025 55.3949C79.0634 55.3123 81.2341 56.1954 82.8351 57.6899C84.4362 59.1844 85.4677 61.2905 85.55 63.6539C85.6324 66.0174 84.75 68.1906 83.2569 69.7934C81.7638 71.3964 79.6598 72.4291 77.2988 72.5117C74.9381 72.5943 72.7676 71.7112 71.1667 70.2166C69.5659 68.722 68.5346 66.6159 68.4522 64.2523C68.3699 61.8889 69.2521 59.7159 70.7451 58.1131C72.2381 56.5102 74.3418 55.4776 76.7025 55.3949Z" fill="black"/>
<path fill-rule="evenodd" clip-rule="evenodd" d="M77.1514 62.5531C77.0978 61.0143 75.8076 59.8102 74.2712 59.864C72.7338 59.9178 71.5311 61.2092 71.5847 62.7479C71.6383 64.2866 72.928 65.4907 74.4654 65.4369C76.0018 65.3827 77.205 64.0918 77.1514 62.5531Z" fill="white"/>
<path d="M84.3573 63.6955C84.4989 67.7629 81.32 71.175 77.2569 71.3174C73.1942 71.4597 69.7863 68.2784 69.6447 64.2109C69.5031 60.1439 72.6816 56.7318 76.7442 56.5895C80.8074 56.4471 84.2157 59.6284 84.3573 63.6955ZM86.7431 63.6119C86.5556 58.2258 82.0419 54.0127 76.6611 54.2012C71.2808 54.3897 67.0714 58.9085 67.2589 64.2945C67.4464 69.6809 71.9595 73.8942 77.34 73.7057C82.7209 73.5171 86.9306 68.9983 86.7431 63.6119Z" fill="white"/>
<path fill-rule="evenodd" clip-rule="evenodd" d="M76.6819 54.7983C81.7333 54.6213 85.9707 58.5765 86.1467 63.6328C86.3227 68.6895 82.3707 72.9316 77.3192 73.1086C72.2682 73.2856 68.0314 69.3303 67.8554 64.2737C67.6794 59.2174 71.631 54.9753 76.6819 54.7983ZM87.3396 63.591C87.1406 57.8751 82.3505 53.4041 76.6403 53.6042C70.9306 53.8042 66.4635 58.5997 66.6624 64.3155C66.8614 70.0316 71.6509 74.5028 77.3608 74.3028C83.071 74.1027 87.5385 69.3072 87.3396 63.591ZM84.9538 63.6746C84.8007 59.2778 81.116 55.8386 76.7235 55.9925C72.3313 56.1464 68.8952 59.8351 69.0483 64.2319C69.2013 68.6291 72.8855 72.0684 77.2777 71.9145C81.6702 71.7606 85.1068 68.0719 84.9538 63.6746ZM76.765 57.1866C80.4988 57.0558 83.6308 59.9792 83.7608 63.7164C83.8909 67.4541 80.9699 70.5895 77.2361 70.7203C73.5029 70.8511 70.3713 67.9278 70.2412 64.1901C70.1111 60.4528 73.0318 57.3174 76.765 57.1866Z" fill="white"/>
<path d="M131.38 79.098C126.691 79.6744 122.673 78.3716 122.405 76.1881C122.137 74.0046 125.721 71.7673 130.41 71.1909C135.099 70.6145 139.117 71.9173 139.385 74.1008C139.653 76.2842 136.069 78.5216 131.38 79.098Z" fill="#EAADCC"/>
<path fill-rule="evenodd" clip-rule="evenodd" d="M127.311 55.3949C129.672 55.3123 131.843 56.1954 133.444 57.6899C135.045 59.1844 136.077 61.2905 136.159 63.6539C136.241 66.0174 135.359 68.1906 133.866 69.7934C132.373 71.3964 130.269 72.4291 127.908 72.5117C125.547 72.5943 123.376 71.7112 121.776 70.2166C120.175 68.722 119.143 66.6159 119.061 64.2523C118.979 61.8889 119.861 59.7159 121.354 58.1131C122.847 56.5102 124.951 55.4776 127.311 55.3949Z" fill="black"/>
<path fill-rule="evenodd" clip-rule="evenodd" d="M127.76 62.5531C127.707 61.0143 126.417 59.8102 124.88 59.864C123.343 59.9178 122.14 61.2092 122.194 62.7479C122.247 64.2866 123.537 65.4907 125.074 65.4369C126.611 65.3827 127.814 64.0918 127.76 62.5531Z" fill="white"/>
<path d="M134.966 63.6955C135.108 67.7629 131.929 71.175 127.866 71.3174C123.803 71.4597 120.395 68.2784 120.254 64.2109C120.112 60.1439 123.291 56.7318 127.353 56.5895C131.416 56.4471 134.825 59.6284 134.966 63.6955ZM137.352 63.6119C137.165 58.2258 132.651 54.0127 127.27 54.2012C121.89 54.3897 117.68 58.9085 117.868 64.2945C118.055 69.6809 122.569 73.8942 127.949 73.7057C133.33 73.5171 137.54 68.9983 137.352 63.6119Z" fill="white"/>
<path fill-rule="evenodd" clip-rule="evenodd" d="M127.291 54.7983C132.342 54.6213 136.58 58.5765 136.756 63.6328C136.932 68.6895 132.98 72.9316 127.928 73.1086C122.877 73.2856 118.64 69.3303 118.464 64.2737C118.288 59.2174 122.24 54.9753 127.291 54.7983ZM137.948 63.591C137.75 57.8751 132.959 53.4041 127.249 53.6042C121.539 53.8042 117.072 58.5997 117.271 64.3155C117.47 70.0316 122.26 74.5028 127.97 74.3028C133.68 74.1027 138.147 69.3072 137.948 63.591ZM135.563 63.6746C135.41 59.2778 131.725 55.8386 127.332 55.9925C122.94 56.1464 119.504 59.8351 119.657 64.2319C119.81 68.6291 123.494 72.0684 127.887 71.9145C132.279 71.7606 135.716 68.0719 135.563 63.6746ZM127.374 57.1866C131.108 57.0558 134.24 59.9792 134.37 63.7164C134.5 67.4541 131.579 70.5895 127.845 70.7203C124.112 70.8511 120.98 67.9278 120.85 64.1901C120.72 60.4528 123.641 57.3174 127.374 57.1866Z" fill="white"/>
<path d="M90.3111 80.792C90.3111 83.9386 95.4133 86.492 101.711 86.492C108.009 86.492 113.111 83.9386 113.111 80.792" stroke="#18181B" stroke-width="5" stroke-miterlimit="10" stroke-linecap="round"/>
</svg>
