<svg width="200" height="200" viewBox="0 0 200 200" fill="none" xmlns="http://www.w3.org/2000/svg">
<g clip-path="url(#clip0_13_570)">
<circle cx="99.95" cy="99.95" r="99.95" fill="white"/>
<path d="M13.25 49.75C22.25 34.5 34.25 22.25 49.75 13.25C65 4.50001 81.75 0 100 0C118.25 0 135 4.5 150.25 13.5C165.5 22.25 177.5 34.5 186.5 49.75C195.5 65.25 200 81.75 200 100C200 121.75 193.75 141.5 181 158.75C168.25 176.25 151.75 188.25 131.75 195C129.5 195.5 127.75 195.25 126.5 194C125.25 193 124.75 191.75 124.75 190C124.75 189.75 124.75 187.5 124.75 183C124.75 178.5 124.75 174.75 124.75 171.5L127.75 172C129.75 172.25 132 172.5 135 172.5C138 172.5 141 172.25 144 171.5C147.25 171 150 169.75 152.75 167.5C155.5 165.5 157.25 162.75 158.5 159.5L159.75 156.5C160.5 154.5 162 152.25 163.75 149.75C165.5 147.25 167.5 145.75 169.5 144.75L170.5 144C171 143.5 171.75 143 172.25 142.5C172.75 142 173.25 141.25 173.5 140.75C173.75 140.25 173.5 139.75 172.75 139.25C172 138.75 170.75 138.75 169 138.75L166.5 139.25C164.75 139.5 162.5 140.75 160 142.25C157.5 144 155.25 146.25 153.75 149C151.75 152.5 149.25 155.25 146.5 157.25C143.75 159 140.75 160 138 160C135.25 160 132.75 159.75 130.5 159.25C128.5 158.75 126.5 158.25 124.75 157.25C124 151.5 121.75 147 118.25 143.75C123.25 143.25 127.75 142.5 131.5 141.5C135.5 140.5 139.5 138.75 143.75 136.5C148 134.25 151.5 131.25 154.25 127.75C157 124.25 159.25 119.75 161 114C162.75 108.25 163.75 101.75 163.75 94.5C163.75 84 160.25 75 153.5 67.75C156.75 59.75 156.5 51 152.5 41.25C150 40.5 146.25 41 141.25 43C136.25 45 132.75 46.75 130.5 48C128.25 49.5 126.25 50.5 125 51.5C117 49.25 108.5 48 100 48C91.5 48 83 49.25 75 51.5L70 48.5C66.5 46.5 62.5 44.5 58 42.75C53.5 41 50 40.5 47.5 41.25C43.5 51 43.25 60 46.5 67.75C39.75 75.25 36.25 84 36.25 94.5C36.25 102 37.25 108.5 39 114C40.75 119.75 43 124.25 46 127.75C48.75 131.25 52.25 134 56.5 136.5C60.75 138.75 64.75 140.5 68.75 141.5C72.75 142.5 77.25 143.25 82 143.75C77.5 147.75 75.25 153.75 75.25 162.25V189.75C75.25 191.25 74.75 192.5 73.5 193.75C72.5 194.75 70.75 195 68.25 194.75C48 188 31.75 176 19 158.5C6.25 141 0 121.5 0 99.75C0 81.75 4.50001 65.25 13.25 49.75Z" fill="#302839"/>
<ellipse cx="137" cy="95.5" rx="14" ry="20.5" fill="#302839"/>
<ellipse cx="62" cy="95.5" rx="14" ry="20.5" fill="#302839"/>
<circle cx="100.5" cy="113.5" r="3.5" fill="#302839"/>
</g>
<defs>
<clipPath id="clip0_13_570">
<rect width="200" height="200" fill="white"/>
</clipPath>
</defs>
</svg>
