<svg width="200" height="200" viewBox="0 0 200 200" fill="none" xmlns="http://www.w3.org/2000/svg">
<g clip-path="url(#clip0_9_504)">
<g clip-path="url(#clip1_9_504)">
<path d="M156.5 91L120.5 48L88 64L66 91L46 149.5L42.5 176L54 191L68.5 181.5L82.5 171.5L100 167H112.5L135 177.5L151 188L160.5 189.5L171 170L169.5 139.5L156.5 91Z" fill="white"/>
<path d="M160.425 96.325C161.125 98.15 161.75 99.775 162.4 101.325C166.89 112.654 170.126 124.441 172.05 136.475C174.162 147.808 174.616 159.387 173.4 170.85C172.906 175.534 171.665 180.108 169.725 184.4C168.322 187.694 165.712 190.326 162.43 191.758C159.149 193.189 155.444 193.312 152.075 192.1C147.742 190.638 143.71 188.402 140.175 185.5C136.625 182.85 133.2 179.975 129.425 177.7C112.825 167.7 96 168.1 79.425 177.425C74.6 180.125 70.3 183.675 65.725 186.825C63.675 188.225 61.6 189.6 59.5 190.95C52.35 195.475 46.85 192.825 43.2 185.7C40.552 180.023 39.5474 173.718 40.3 167.5C40.9388 158.796 42.4123 150.173 44.7 141.75C45.075 140.35 45.2 139.25 43.55 138.25C41.5938 137.022 39.7677 135.598 38.1 134C36.025 132.125 34.6 131.925 32.9 134.15C31.8347 135.631 31.1402 137.345 30.875 139.15C30.35 142.125 30.5 145.25 29.9 148.2C29.4543 150.163 28.6027 152.011 27.4 153.625C26.9802 154.041 26.4631 154.347 25.8955 154.512C25.328 154.678 24.728 154.7 24.15 154.575C23.5732 154.264 23.0752 153.825 22.6939 153.292C22.3126 152.759 22.0581 152.146 21.95 151.5C22.0694 149.02 22.387 146.554 22.9 144.125C23.1609 142.766 23.2865 141.384 23.275 140C23.3176 139.328 23.1682 138.658 22.8443 138.067C22.5204 137.477 22.0353 136.991 21.4456 136.666C20.8558 136.341 20.1859 136.191 19.5138 136.232C18.8418 136.273 18.1953 136.505 17.65 136.9C16.0835 137.789 14.6937 138.958 13.55 140.35C10.8 143.7 5.89997 142.425 3.29997 140.6C2.96241 140.346 2.68067 140.026 2.4723 139.659C2.26394 139.292 2.13341 138.886 2.08885 138.466C2.04429 138.046 2.08665 137.622 2.21329 137.219C2.33994 136.816 2.54816 136.444 2.82497 136.125C4.36221 133.452 6.74602 131.367 9.59997 130.2C11.225 129.525 12.825 128.8 15.425 127.7C14.3655 126.99 13.2239 126.41 12.025 125.975C9.52497 125.525 6.79997 125.3 4.19997 124.975C3.57531 124.99 2.95517 124.865 2.38527 124.609C1.81538 124.353 1.31027 123.972 0.907187 123.494C0.504107 123.017 0.21334 122.455 0.0563246 121.85C-0.10069 121.246 -0.119947 120.613 -2.67476e-05 120C0.174973 116.675 1.64997 115.6 4.99997 116.7C7.09997 117.425 9.07497 118.45 11.1 119.2C15.225 121.025 16.725 120.6 19.625 117.075C20.3295 116.228 21.1753 115.509 22.125 114.95C23.85 114 25.475 113.175 26 110.975C26.1839 110.541 26.4677 110.156 26.8282 109.852C27.1888 109.548 27.6159 109.333 28.075 109.225C30.375 109.075 30.7 107.6 30.875 105.85C30.9052 105.012 30.9887 104.177 31.125 103.35C33.975 92.8 33.1 93.9 44.625 90.125C46.2231 89.6602 47.8522 89.3093 49.5 89.075C52.225 88.6 54.65 88.15 55.825 84.85C56.4121 83.713 57.3663 82.8079 58.5326 82.2814C59.6989 81.755 61.0089 81.6382 62.25 81.95C66.975 82.625 68.875 80.175 70.95 76.375C80.1312 59.944 90.483 44.195 101.925 29.25C106.925 22.575 112.075 16.05 117.175 9.47498C117.584 8.91632 118.035 8.38978 118.525 7.89998C120.125 6.29998 121.275 6.29998 122.575 8.09998C123.178 9.02725 123.681 10.0162 124.075 11.05C134.075 33.5833 144.075 56.0833 154.075 78.55C155.05 80.75 156.025 81.875 158.575 81.6C160.231 81.2984 161.938 81.4558 163.512 82.0551C165.085 82.6544 166.464 83.6728 167.5 85C169.175 87.05 171.35 85 173.25 84.675C174.033 84.6235 174.764 84.2675 175.287 83.6834C175.811 83.0993 176.084 82.3335 176.05 81.55C176.05 79.9 176.05 78.225 175.9 76.55C175.55 72.575 175.1 68.575 174.7 64.575C174.5 62.725 174.225 61.125 171.85 60.625C170.952 60.3936 170.174 59.8337 169.669 59.0559C169.165 58.2781 168.97 57.3392 169.125 56.425C169.223 55.7684 169.184 55.0985 169.009 54.458C168.834 53.8176 168.527 53.2207 168.108 52.7055C167.689 52.1903 167.168 51.7681 166.577 51.4658C165.986 51.1635 165.338 50.9878 164.675 50.95C161.565 50.3439 158.415 49.9596 155.25 49.8C151.75 49.8 149.75 49.125 149.2 47.3C148.847 45.8763 148.933 44.3792 149.446 43.0051C149.959 41.631 150.875 40.444 152.075 39.6C153.357 38.8931 154.798 38.5224 156.262 38.5224C157.727 38.5224 159.167 38.8931 160.45 39.6C161.246 40.1442 162.082 40.6288 162.95 41.05C163.925 41.3 165.45 41.525 165.925 41.05C166.241 40.6308 166.454 40.1426 166.545 39.6255C166.636 39.1084 166.604 38.5771 166.45 38.075C165.525 35.575 164.15 33.35 163.075 30.95C161.897 28.5541 160.927 26.0616 160.175 23.5C159.375 20.325 160.4 18.65 162.925 17.9C165.45 17.15 167 18.275 168.25 21.225C169.275 23.725 170.375 26 171.525 28.35C171.915 29.0914 172.461 29.7396 173.125 30.25C174.55 31.425 175.85 30.95 175.9 29.075C175.971 26.3036 175.854 23.5306 175.55 20.775C175.265 19.7083 175.32 18.5795 175.705 17.5449C176.09 16.5103 176.787 15.6209 177.7 15C178.362 14.537 179.137 14.2629 179.943 14.2071C180.749 14.1513 181.555 14.316 182.275 14.6834C182.994 15.0508 183.6 15.6072 184.027 16.2927C184.454 16.9783 184.687 17.7673 184.7 18.575C184.774 20.926 184.724 23.2793 184.55 25.625C184.488 28.0834 184.638 30.5425 185 32.975C185.45 35.475 186.75 35.8 188.875 34.325C190.714 32.8871 192.643 31.5677 194.65 30.375C196 29.65 197.775 28.725 199.175 30.525C199.794 31.2936 200.131 32.2507 200.131 33.2375C200.131 34.2243 199.794 35.1814 199.175 35.95C198.372 37.0777 197.373 38.0516 196.225 38.825C191.415 42.117 187.546 46.6063 185 51.85C183.749 55.205 181.637 58.1713 178.875 60.45C178.59 60.7087 178.365 61.0257 178.214 61.3795C178.063 61.7333 177.99 62.1155 178 62.5C178.475 68.3 179 74.1 179.675 80C180.068 81.7631 179.812 83.6088 178.953 85.198C178.094 86.7871 176.69 88.0129 175 88.65C173.617 89.2881 172.166 89.7662 170.675 90.075C169.717 90.2009 168.796 90.5207 167.966 91.0151C167.136 91.5094 166.416 92.1678 165.85 92.95C165.169 93.8205 164.319 94.5434 163.35 95.075C162.409 95.5679 161.431 95.9858 160.425 96.325ZM168.525 157.5C168.391 147.251 166.997 137.058 164.375 127.15C161.075 115.9 156.875 104.925 153.3 93.725C152.937 92.3304 152.099 91.1059 150.931 90.2619C149.763 89.4178 148.338 89.007 146.9 89.1H145.225C144.679 89.1809 144.123 89.1523 143.588 89.0157C143.054 88.8791 142.552 88.6372 142.112 88.3044C141.672 87.9715 141.303 87.5542 141.026 87.077C140.749 86.5998 140.57 86.0722 140.5 85.525C139.858 83.1011 138.846 80.7906 137.5 78.675C130.725 67.85 118.1 62.8 104.55 65.5C94.95 67.4 87.05 72.5 83.35 81.7C81.45 86.25 78.925 87.85 74.45 87.45H74C73.1758 87.3042 72.3267 87.4586 71.6066 87.8852C70.8866 88.3117 70.3432 88.9822 70.075 89.775C69.6 90.8 68.975 91.725 68.55 92.725C59.7647 112.296 53.1098 132.756 48.7 153.75C47.3031 160.404 46.8987 167.228 47.5 174C47.897 176.986 48.8555 179.87 50.325 182.5C52.325 186.2 55.325 186.875 59.15 185C61.2355 183.902 63.2406 182.657 65.15 181.275C69.125 178.5 72.95 175.5 77.025 172.9C87.7249 165.719 100.762 162.894 113.475 165C123.439 166.956 132.7 171.539 140.3 178.275C143.161 180.673 146.223 182.823 149.45 184.7C150.888 185.712 152.555 186.349 154.301 186.554C156.047 186.759 157.817 186.526 159.45 185.875C162.045 184.536 164.031 182.255 165 179.5C168.125 172.5 168.25 165 168.525 157.5ZM53.275 91.8C48.275 93.275 43.85 94.6 39.375 95.975C38.4381 96.2763 37.611 96.8475 36.9973 97.6168C36.3836 98.3862 36.0106 99.3195 35.925 100.3C35.45 103.15 35.175 106.05 34.575 108.9C34.3466 109.622 34.357 110.399 34.6046 111.115C34.8523 111.831 35.3241 112.448 35.95 112.875C36.7258 113.377 37.304 114.131 37.5866 115.011C37.8691 115.89 37.8385 116.84 37.5 117.7C37.0745 118.737 37.0658 119.898 37.4757 120.942C37.8856 121.985 38.6824 122.83 39.7 123.3C41.499 124.59 43.3871 125.751 45.35 126.775C45.8599 127.079 46.436 127.256 47.0289 127.289C47.6218 127.322 48.214 127.211 48.7546 126.965C49.2952 126.719 49.7683 126.346 50.1332 125.878C50.4981 125.409 50.7441 124.859 50.85 124.275C54 115.7 57.125 107.15 60.225 98.55C60.525 97.7 60.875 96.05 60.55 96.05C58.175 94.425 55.7 93.15 53.275 91.8Z" fill="#4E7896"/>
<path d="M113.825 113.6C110.164 113.987 106.462 113.609 102.955 112.49C99.4473 111.371 96.2107 109.536 93.45 107.1C83.45 98.225 84.4 83.6 95.4 75.5C100.614 71.6293 107.053 69.7755 113.527 70.281C120.002 70.7864 126.074 73.6169 130.625 78.25C139.425 87.6 138.125 99.275 129.225 107.325C125.072 111.291 119.568 113.534 113.825 113.6Z" fill="#F80102"/>
</g>
</g>
<defs>
<clipPath id="clip0_9_504">
<rect width="200" height="200" fill="white"/>
</clipPath>
<clipPath id="clip1_9_504">
<rect width="200" height="200" fill="white"/>
</clipPath>
</defs>
</svg>
