<svg width="200" height="200" viewBox="0 0 200 200" fill="none" xmlns="http://www.w3.org/2000/svg">
<path fill-rule="evenodd" clip-rule="evenodd" d="M151.44 73.4086L179.303 101.402C184.037 106.159 191.713 106.159 196.449 101.402C201.184 96.6458 201.184 88.9337 196.449 84.1754L160.013 47.5675C155.279 42.8109 147.601 42.8109 142.867 47.5675L108.572 82.025L125.717 99.2526L151.44 73.4086Z" fill="#F56358"/>
<path fill-rule="evenodd" clip-rule="evenodd" d="M46.4179 127.24L99.9959 73.4093L153.58 127.246C158.316 132.004 165.992 132.004 170.726 127.246C175.461 122.489 175.461 114.777 170.726 110.018L108.569 47.5687C103.835 42.8115 96.1588 42.8115 91.4224 47.5687L29.2714 110.012C24.5373 114.771 24.5373 122.483 29.2714 127.24C34.0078 131.996 41.6838 131.996 46.4179 127.24Z" fill="#16B8A2"/>
<path fill-rule="evenodd" clip-rule="evenodd" d="M3.5509 84.1706L39.9808 47.5695C44.7154 42.8129 52.3915 42.8129 57.1255 47.5695L145.006 135.863C149.74 140.62 149.74 148.332 145.006 153.089C140.27 157.847 132.594 157.847 127.859 153.089L48.5537 73.4101L20.6974 101.398C15.9616 106.155 8.28555 106.155 3.5509 101.398C-1.18375 96.6399 -1.18375 88.9278 3.5509 84.1706Z" fill="#FFB41F"/>
<path fill-rule="evenodd" clip-rule="evenodd" d="M54.9938 153.082C59.7284 157.839 67.4045 157.839 72.1402 153.082L125.718 99.2515L108.572 82.0244L54.9938 135.855C50.2597 140.613 50.2597 148.325 54.9938 153.082Z" fill="#F56358"/>
</svg>
