<svg width="200" height="200" viewBox="0 0 200 200" fill="none" xmlns="http://www.w3.org/2000/svg">
<rect width="200" height="200" fill="white"/>
<g clip-path="url(#clip0_1_1937)">
<path fill-rule="evenodd" clip-rule="evenodd" d="M93.9821 97.1286C107.495 84.2384 103.369 68.293 91.1261 48.97C78.8835 29.6469 54.2435 22.7696 49.6476 27.1537C45.0516 31.5379 44.0371 62.8874 56.2798 82.2105C68.5224 101.533 80.4692 110.019 93.9821 97.1286Z" fill="url(#paint0_linear_1_1937)"/>
<path fill-rule="evenodd" clip-rule="evenodd" d="M105.668 98.9078C115.669 114.693 129.036 108.924 145.58 93.1422C162.124 77.3607 168.98 47.1268 165.579 41.758C162.177 36.3892 136.333 36.6547 119.789 52.4362C103.245 68.2177 95.6669 83.1227 105.668 98.9078Z" fill="url(#paint1_linear_1_1937)"/>
<path fill-rule="evenodd" clip-rule="evenodd" d="M109.961 88.7802C126.07 84.2585 126.169 67.5738 119.399 43.5009C112.63 19.4279 90.924 0.0664612 85.445 1.60437C79.966 3.14229 71.0882 31.0883 77.8582 55.1612C84.6281 79.2342 93.8521 93.3019 109.961 88.7802Z" fill="url(#paint2_linear_1_1937)"/>
<path fill-rule="evenodd" clip-rule="evenodd" d="M96.0167 200C130.826 200 159.056 189.876 159.056 143.964C159.056 98.0524 130.826 60.3774 96.0167 60.3774C61.2074 60.3774 33 98.0524 33 143.964C33 189.876 61.2074 200 96.0167 200Z" fill="url(#paint3_linear_1_1937)"/>
<path d="M127.856 134.591C132.828 134.591 136.86 132.714 136.86 130.398C136.86 128.083 132.828 126.205 127.856 126.205C122.883 126.205 118.852 128.083 118.852 130.398C118.852 132.714 122.883 134.591 127.856 134.591Z" fill="#EAADCC"/>
<path d="M61.1766 132.044C66.1123 132.651 70.342 131.28 70.6238 128.981C70.9057 126.683 67.133 124.328 62.1974 123.721C57.2617 123.114 53.032 124.486 52.7501 126.784C52.4682 129.082 56.2409 131.437 61.1766 132.044Z" fill="#EAADCC"/>
<path fill-rule="evenodd" clip-rule="evenodd" d="M83.7986 126.143C83.2231 126.532 83.071 127.313 83.4588 127.889C85.4118 130.791 88.404 132.421 92.2522 132.861C96.1293 133.305 99.5984 132.313 102.578 129.889C103.116 129.451 103.198 128.659 102.76 128.12C102.323 127.581 101.531 127.499 100.993 127.937C98.5518 129.923 95.7607 130.731 92.5375 130.362C89.2854 129.99 87.0148 128.671 85.5426 126.484C85.1548 125.907 84.374 125.755 83.7986 126.143Z" fill="black"/>
<path fill-rule="evenodd" clip-rule="evenodd" d="M66.915 107.094C69.4002 107.007 71.6851 107.936 73.3704 109.51C75.0558 111.083 76.1415 113.3 76.2282 115.787C76.3149 118.275 75.3861 120.563 73.8144 122.25C72.2427 123.937 70.0279 125.024 67.5427 125.111C65.0578 125.198 62.773 124.269 61.0878 122.696C59.4028 121.122 58.3172 118.905 58.2305 116.417C58.1438 113.93 59.0725 111.642 60.644 109.955C62.2156 108.268 64.43 107.181 66.915 107.094Z" fill="black"/>
<path fill-rule="evenodd" clip-rule="evenodd" d="M72.3875 114.629C72.331 113.009 70.973 111.741 69.3557 111.798C67.7374 111.855 66.4713 113.214 66.5278 114.834C66.5842 116.453 67.9418 117.721 69.56 117.664C71.1773 117.607 72.4439 116.248 72.3875 114.629Z" fill="white"/>
<path fill-rule="evenodd" clip-rule="evenodd" d="M121.471 109.382C123.956 109.295 126.241 110.224 127.926 111.798C129.611 113.371 130.697 115.588 130.784 118.075C130.87 120.563 129.942 122.851 128.37 124.538C126.799 126.225 124.584 127.313 122.099 127.4C119.614 127.486 117.329 126.557 115.644 124.984C113.958 123.41 112.873 121.193 112.786 118.705C112.699 116.218 113.628 113.93 115.2 112.243C116.771 110.556 118.986 109.469 121.471 109.382Z" fill="black"/>
<path d="M74.9727 115.831C75.1218 120.113 71.7756 123.704 67.4986 123.854C63.2221 124.004 59.6348 120.655 59.4858 116.374C59.3368 112.093 62.6825 108.501 66.959 108.351C71.236 108.201 74.8237 111.55 74.9727 115.831ZM77.4841 115.743C77.2868 110.074 72.5355 105.639 66.8715 105.837C61.208 106.036 56.7771 110.792 56.9744 116.462C57.1718 122.132 61.9225 126.567 67.5861 126.368C73.2502 126.17 77.6815 121.413 77.4841 115.743Z" fill="white"/>
<path fill-rule="evenodd" clip-rule="evenodd" d="M66.8934 106.466C72.2106 106.279 76.671 110.443 76.8563 115.765C77.0415 121.088 72.8815 125.553 67.5642 125.74C62.2474 125.926 57.7875 121.762 57.6022 116.44C57.417 111.117 61.5766 106.652 66.8934 106.466ZM78.112 115.721C77.9025 109.704 72.8603 104.998 66.8496 105.209C60.8393 105.419 56.1371 110.467 56.3465 116.484C56.556 122.501 61.5975 127.207 67.608 126.997C73.6188 126.786 78.3214 121.738 78.112 115.721ZM75.6006 115.809C75.4395 111.181 71.5608 107.561 66.9371 107.723C62.3138 107.885 58.6968 111.767 58.8579 116.396C59.019 121.024 62.8971 124.645 67.5205 124.483C72.1442 124.321 75.7617 120.438 75.6006 115.809ZM66.9809 108.98C70.9112 108.842 74.2079 111.919 74.3449 115.853C74.4818 119.787 71.407 123.088 67.4767 123.226C63.547 123.363 60.2506 120.286 60.1136 116.352C59.9767 112.418 63.0511 109.117 66.9809 108.98Z" fill="white"/>
<path d="M129.528 118.119C129.677 122.401 126.332 125.992 122.055 126.142C117.778 126.292 114.19 122.943 114.041 118.662C113.892 114.381 117.239 110.789 121.515 110.639C125.792 110.489 129.379 113.838 129.528 118.119ZM132.04 118.031C131.842 112.362 127.092 107.927 121.428 108.125C115.764 108.324 111.333 113.08 111.53 118.75C111.727 124.42 116.479 128.855 122.142 128.656C127.806 128.458 132.237 123.701 132.04 118.031Z" fill="white"/>
<path fill-rule="evenodd" clip-rule="evenodd" d="M121.449 108.754C126.767 108.567 131.227 112.731 131.412 118.053C131.597 123.376 127.438 127.841 122.12 128.028C116.803 128.214 112.343 124.05 112.158 118.728C111.973 113.405 116.133 108.94 121.449 108.754ZM132.668 118.009C132.458 111.992 127.416 107.286 121.406 107.497C115.395 107.707 110.693 112.755 110.902 118.772C111.112 124.789 116.154 129.495 122.164 129.285C128.175 129.074 132.877 124.026 132.668 118.009ZM130.156 118.097C129.995 113.469 126.117 109.849 121.493 110.011C116.87 110.173 113.253 114.055 113.414 118.684C113.575 123.312 117.453 126.933 122.077 126.771C126.7 126.609 130.317 122.726 130.156 118.097ZM121.537 111.268C125.467 111.13 128.764 114.207 128.901 118.141C129.037 122.076 125.963 125.376 122.033 125.514C118.103 125.651 114.806 122.574 114.669 118.64C114.532 114.706 117.607 111.405 121.537 111.268Z" fill="white"/>
<path fill-rule="evenodd" clip-rule="evenodd" d="M126.943 116.917C126.887 115.297 125.529 114.029 123.911 114.086C122.293 114.143 121.027 115.502 121.083 117.122C121.14 118.741 122.497 120.009 124.115 119.952C125.733 119.895 127 118.536 126.943 116.917Z" fill="white"/>
<path fill-rule="evenodd" clip-rule="evenodd" d="M46.6897 146.555C47.6069 145.673 49.065 145.702 49.9465 146.62L80.9369 178.905C81.8184 179.823 81.7894 181.283 80.8722 182.166C79.955 183.048 78.4969 183.019 77.6154 182.101L46.625 149.816C45.7436 148.898 45.7725 147.438 46.6897 146.555Z" fill="#ECB732"/>
<path fill-rule="evenodd" clip-rule="evenodd" d="M76.6658 150.311C77.5927 151.184 77.6378 152.643 76.7665 153.571L57.0834 174.535C56.2122 175.463 54.7545 175.509 53.8276 174.636C52.9007 173.764 52.8556 172.304 53.7269 171.376L73.41 150.412C74.2812 149.484 75.7389 149.439 76.6658 150.311Z" fill="#ECB732"/>
<path fill-rule="evenodd" clip-rule="evenodd" d="M144.947 146.555C144.03 145.673 142.572 145.702 141.69 146.62L110.7 178.905C109.818 179.823 109.847 181.283 110.765 182.166C111.682 183.048 113.14 183.019 114.021 182.101L145.012 149.816C145.893 148.898 145.864 147.438 144.947 146.555Z" fill="#ECB732"/>
<path fill-rule="evenodd" clip-rule="evenodd" d="M114.971 150.311C114.044 151.184 113.999 152.643 114.87 153.571L134.553 174.535C135.425 175.463 136.882 175.509 137.809 174.636C138.736 173.764 138.781 172.304 137.91 171.376L118.227 150.412C117.355 149.484 115.898 149.439 114.971 150.311Z" fill="#ECB732"/>
<path fill-rule="evenodd" clip-rule="evenodd" d="M110.22 75.3086C111.12 76.2091 111.12 77.6693 110.22 78.5698L89.6995 99.1149C88.8 100.015 87.3416 100.015 86.4421 99.1149C85.5425 98.2143 85.5425 96.7542 86.4421 95.8536L106.963 75.3086C107.862 74.408 109.321 74.408 110.22 75.3086Z" fill="#FFC73B"/>
<path fill-rule="evenodd" clip-rule="evenodd" d="M106.032 99.1149C106.932 98.2143 106.932 96.7542 106.032 95.8536L85.5116 75.3085C84.6121 74.408 83.1537 74.408 82.2542 75.3085C81.3547 76.2091 81.3547 77.6693 82.2542 78.5698L102.775 99.1149C103.674 100.015 105.133 100.015 106.032 99.1149Z" fill="#FFC73B"/>
</g>
<defs>
<linearGradient id="paint0_linear_1_1937" x1="6797.4" y1="-5250.88" x2="12405.1" y2="10425" gradientUnits="userSpaceOnUse">
<stop stop-color="#52CE63"/>
<stop offset="1" stop-color="#51A256"/>
</linearGradient>
<linearGradient id="paint1_linear_1_1937" x1="5448.93" y1="6811.93" x2="-10215" y2="12402.2" gradientUnits="userSpaceOnUse">
<stop stop-color="#52CE63"/>
<stop offset="1" stop-color="#51A256"/>
</linearGradient>
<linearGradient id="paint2_linear_1_1937" x1="6690.29" y1="-1852.33" x2="13555.7" y2="22606.5" gradientUnits="userSpaceOnUse">
<stop stop-color="#8AE99C"/>
<stop offset="1" stop-color="#52CE63"/>
</linearGradient>
<linearGradient id="paint3_linear_1_1937" x1="20692.8" y1="11697.1" x2="17344" y2="66622.7" gradientUnits="userSpaceOnUse">
<stop stop-color="#FFE56C"/>
<stop offset="1" stop-color="#FFC63A"/>
</linearGradient>
<clipPath id="clip0_1_1937">
<rect width="133.594" height="200" fill="white" transform="translate(33)"/>
</clipPath>
</defs>
</svg>
