<svg width="200" height="200" viewBox="0 0 200 200" fill="none" xmlns="http://www.w3.org/2000/svg">
<g clip-path="url(#clip0_28_280)">
<path d="M100.5 118.442C110.862 118.442 119.262 109.961 119.262 99.4999C119.262 89.0386 110.862 80.5581 100.5 80.5581C90.138 80.5581 81.738 89.0386 81.738 99.4999C81.738 109.961 90.138 118.442 100.5 118.442Z" fill="#3881E6"/>
<path fill-rule="evenodd" clip-rule="evenodd" d="M36.0915 73.6821C19.4089 81.2613 11.381 90.7552 11.381 99.5C11.381 108.245 19.4089 117.739 36.0915 125.318C52.3337 132.697 75.1014 137.384 100.5 137.384C125.899 137.384 148.666 132.697 164.909 125.318C181.591 117.739 189.619 108.245 189.619 99.5C189.619 90.7552 181.591 81.2613 164.909 73.6821C148.666 66.303 125.899 61.6164 100.5 61.6164C75.1014 61.6164 52.3337 66.303 36.0915 73.6821ZM32.2418 65.0454C49.9519 56.9995 74.089 52.1455 100.5 52.1455C126.911 52.1455 151.048 56.9995 168.758 65.0454C186.028 72.8914 199 84.7069 199 99.5C199 114.293 186.028 126.109 168.758 133.955C151.048 142.001 126.911 146.855 100.5 146.855C74.089 146.855 49.9519 142.001 32.2418 133.955C14.972 126.109 2 114.293 2 99.5C2 84.7069 14.972 72.8914 32.2418 65.0454Z" fill="#62A6D8"/>
<path fill-rule="evenodd" clip-rule="evenodd" d="M90.4423 30.2769C75.5996 19.4804 63.4418 17.2083 55.9405 21.5807C48.4392 25.9531 44.3093 37.7191 46.1492 56.0947C47.9405 73.9854 55.3042 96.2351 68.0035 118.442C80.7028 140.649 96.1068 158.212 110.558 168.723C125.4 179.52 137.558 181.792 145.06 177.419C152.561 173.047 156.691 161.281 154.851 142.905C153.06 125.015 145.696 102.765 132.997 80.5583C120.297 58.3515 104.893 40.7884 90.4423 30.2769ZM95.9261 22.5927C111.683 34.0542 127.915 52.7309 141.121 75.8228C154.326 98.9147 162.231 122.445 164.184 141.953C166.089 160.975 162.44 178.225 149.75 185.621C137.061 193.018 120.439 187.584 105.074 176.407C89.3171 164.946 73.0848 146.269 59.8793 123.177C46.6738 100.085 38.769 76.5547 36.8158 57.0473C34.9111 38.0248 38.5605 20.7752 51.25 13.3787C63.9395 5.98213 80.561 11.4162 95.9261 22.5927Z" fill="#628AD8"/>
<path fill-rule="evenodd" clip-rule="evenodd" d="M154.851 56.0947C156.691 37.7191 152.561 25.9531 145.06 21.5807C137.558 17.2083 125.4 19.4804 110.558 30.2769C96.1068 40.7884 80.7028 58.3515 68.0035 80.5583C55.3042 102.765 47.9405 125.015 46.1492 142.905C44.3093 161.281 48.4392 173.047 55.9405 177.419C63.4418 181.792 75.5997 179.52 90.4423 168.723C104.893 158.212 120.297 140.649 132.997 118.442C145.696 96.2351 153.06 73.9854 154.851 56.0947ZM164.184 57.0473C162.231 76.5547 154.326 100.085 141.121 123.177C127.915 146.269 111.683 164.946 95.9261 176.407C80.561 187.584 63.9395 193.018 51.25 185.621C38.5605 178.225 34.9111 160.975 36.8158 141.953C38.769 122.445 46.6738 98.9147 59.8793 75.8228C73.0848 52.7309 89.3171 34.0542 105.074 22.5927C120.439 11.4162 137.061 5.98212 149.75 13.3787C162.44 20.7752 166.089 38.0248 164.184 57.0473Z" fill="#3881E6"/>
</g>
<defs>
<clipPath id="clip0_28_280">
<rect width="197" height="179" fill="white" transform="translate(2 10)"/>
</clipPath>
</defs>
</svg>
