<svg width="200" height="200" viewBox="0 0 200 200" fill="none" xmlns="http://www.w3.org/2000/svg">
<g clip-path="url(#clip0_28_286)">
<g clip-path="url(#clip1_28_286)">
<path d="M91.677 114.728C99.6959 119.358 109.976 116.564 114.639 108.488C119.302 100.412 116.581 90.1114 108.562 85.4817C100.544 80.852 90.263 83.646 85.6002 91.7222C80.9374 99.7984 83.658 110.099 91.677 114.728Z" fill="#2B2233"/>
<path d="M94.7149 109.466C99.8481 112.43 106.429 110.641 109.414 105.471C112.399 100.301 110.657 93.7078 105.524 90.7441C100.391 87.7805 93.8098 89.569 90.8249 94.7389C87.8401 99.9088 89.5817 106.502 94.7149 109.466Z" fill="#2B2233"/>
<path fill-rule="evenodd" clip-rule="evenodd" d="M61.7825 51.3955C45.4939 49.7929 35.0496 53.5355 31.1519 60.2866C27.2541 67.0376 29.2352 77.954 38.7673 91.259C48.0479 104.213 63.5785 118.004 83.2341 129.352C102.89 140.7 122.598 147.254 138.457 148.815C154.745 150.417 165.19 146.675 169.087 139.924C172.985 133.173 171.004 122.256 161.472 108.951C152.191 95.9974 136.661 82.2066 117.005 70.8585C97.3496 59.5104 77.6411 52.9559 61.7825 51.3955ZM62.6529 43.0079C79.9447 44.7092 100.788 51.7464 121.227 63.5468C141.666 75.3473 158.181 89.8791 168.301 104.004C178.168 117.777 182.941 132.695 176.347 144.115C169.754 155.536 154.448 158.861 137.586 157.202C120.295 155.501 99.4517 148.464 79.0127 136.663C58.5737 124.863 42.0579 110.331 31.9386 96.2066C22.0709 82.4333 17.2985 67.5156 23.8921 56.0951C30.4857 44.6747 45.791 41.3488 62.6529 43.0079Z" fill="#2B2233"/>
<path fill-rule="evenodd" clip-rule="evenodd" d="M123.19 42.1702C116.516 27.2034 108.12 20.0172 100.366 20.0412C92.612 20.0651 84.1716 27.3034 77.405 42.3116C70.8171 56.9238 66.5985 77.391 66.5282 100.209C66.458 123.027 70.5506 143.468 77.0488 158.04C83.723 173.007 92.1191 180.193 99.8731 180.169C107.627 180.145 116.068 172.907 122.834 157.899C129.422 143.286 133.641 122.819 133.711 100.001C133.781 77.1834 129.688 56.7419 123.19 42.1702ZM130.859 38.6881C137.944 54.5767 142.182 76.248 142.109 99.9754C142.036 123.703 137.665 145.401 130.482 161.333C123.477 176.87 112.964 188.556 99.8471 188.597C86.7301 188.637 76.2892 177.016 69.3799 161.522C62.2946 145.634 58.0573 123.962 58.1304 100.235C58.2034 76.5074 62.5742 54.8095 69.7575 38.8768C76.7622 23.3403 87.275 11.6539 100.392 11.6134C113.509 11.5728 123.95 23.1945 130.859 38.6881Z" fill="#2B2233"/>
<path fill-rule="evenodd" clip-rule="evenodd" d="M161.527 90.8796C171.142 77.5155 173.19 66.5867 169.334 59.8596C165.478 53.1325 155.056 49.4544 138.757 51.1577C122.889 52.816 103.14 59.4924 83.4138 70.9622C63.688 82.432 48.0722 96.319 38.7117 109.33C29.0974 122.695 27.0491 133.623 30.9053 140.35C34.7616 147.078 45.1831 150.756 61.4818 149.052C77.3504 147.394 97.0995 140.718 116.825 129.248C136.551 117.778 152.167 103.891 161.527 90.8796ZM168.326 95.7852C158.119 109.972 141.514 124.607 121.002 136.534C100.49 148.461 79.6032 155.627 62.3006 157.435C45.4282 159.198 30.143 155.967 23.6196 144.587C17.0962 133.207 21.9606 118.259 31.9133 104.425C42.1197 90.2376 58.7253 75.6035 79.2373 63.6765C99.7494 51.7495 120.636 44.5834 137.939 42.7752C154.811 41.012 170.096 44.2433 176.619 55.6232C183.143 67.0031 178.279 81.9506 168.326 95.7852Z" fill="#2B2233"/>
</g>
</g>
<defs>
<clipPath id="clip0_28_286">
<rect width="200" height="200" fill="white"/>
</clipPath>
<clipPath id="clip1_28_286">
<rect width="176.04" height="159.568" fill="white" transform="translate(63.7842 -13) rotate(30)"/>
</clipPath>
</defs>
</svg>
