<svg width="200" height="200" viewBox="0 0 200 200" fill="none" xmlns="http://www.w3.org/2000/svg">
<path d="M99.5573 89.5768C79.3509 89.5768 60.9923 92.0061 47.4008 95.9649V129.782C60.9923 133.741 79.3509 136.17 99.5573 136.17C122.684 136.17 143.388 132.988 157.296 127.972V97.7749C143.388 92.7591 122.684 89.5768 99.5573 89.5768Z" fill="#A52B00"/>
<path d="M178.125 117.054L175.757 112.147C175.769 111.96 175.778 111.774 175.778 111.587C175.778 106.024 169.994 100.898 160.262 96.7931V126.381C164.803 124.465 168.487 122.328 171.122 120.027C170.346 123.144 167.694 129.452 165.58 133.888C162.105 140.232 160.847 145.755 161.008 146.029C161.111 146.201 162.296 144.372 164.044 141.408C168.113 135.612 175.822 124.545 177.363 121.726C179.108 118.53 178.125 117.054 178.125 117.054Z" fill="#A52B00"/>
<path d="M24.844 111.911C24.844 112.982 25.0595 114.038 25.4753 115.073L24.0568 117.598C24.0568 117.598 22.9205 119.072 24.9215 122.182C26.6865 124.925 35.5273 135.66 40.1935 141.282C42.1978 144.164 43.5567 145.939 43.6757 145.768C43.863 145.496 42.4297 140.085 38.4492 133.911C36.5918 130.595 34.3735 126.202 33.0422 122.958C36.7593 125.31 41.6227 127.444 47.4008 129.281V94.5417C33.4768 98.9664 24.844 105.114 24.844 111.911Z" fill="#A52B00"/>
<path d="M191.878 117.026L176.309 105.557C176.162 105.047 176.016 104.536 175.865 104.03L180.979 96.6219C181.501 95.8683 181.607 94.8889 181.268 94.0294C180.928 93.1744 180.186 92.5611 179.307 92.4111L170.66 90.9436C170.325 90.2599 169.974 89.5866 169.622 88.9186L173.254 80.6014C173.628 79.7536 173.549 78.7689 173.054 78.0001C172.56 77.2274 171.722 76.7761 170.829 76.8113L162.053 77.1301C161.599 76.5384 161.137 75.9521 160.666 75.3766L162.683 66.4616C162.887 65.5561 162.629 64.6086 161.999 63.9509C161.372 63.2956 160.461 63.0244 159.595 63.2371L151.047 65.3384C150.493 64.8493 149.93 64.3663 149.361 63.8929L149.669 54.7406C149.702 53.8141 149.27 52.9336 148.528 52.4198C147.787 51.9024 146.846 51.8243 146.036 52.2088L138.061 55.9999C137.419 55.6316 136.773 55.2666 136.12 54.9138L134.711 45.8946C134.568 44.9808 133.98 44.2048 133.157 43.8503C132.336 43.4941 131.396 43.6091 130.675 44.1516L123.565 49.4861C122.865 49.2536 122.162 49.0308 121.45 48.8176L118.386 40.2649C118.074 39.3934 117.355 38.7531 116.479 38.5731C115.606 38.3944 114.708 38.6968 114.102 39.3734L108.118 46.0686C107.394 45.9853 106.67 45.9093 105.944 45.8468L101.323 38.0613C100.855 37.2726 100.028 36.7926 99.1373 36.7926C98.2483 36.7926 97.42 37.2726 96.9556 38.0613L92.3335 45.8468C91.6071 45.9093 90.8798 45.9853 90.1575 46.0686L84.1725 39.3734C83.5665 38.6968 82.6646 38.3944 81.7945 38.5731C80.9186 38.7551 80.199 39.3934 79.889 40.2649L76.822 48.8176C76.112 49.0308 75.4085 49.2554 74.7068 49.4861L67.5995 44.1516C66.8768 43.6073 65.9361 43.4924 65.1135 43.8503C64.2936 44.2048 63.7033 44.9808 63.5613 45.8946L62.1511 54.9138C61.4988 55.2666 60.853 55.6294 60.209 55.9999L52.2353 52.2088C51.4256 51.8228 50.4805 51.9024 49.743 52.4198C49.0021 52.9336 48.5693 53.8141 48.603 54.7406L48.9088 63.8929C48.3413 64.3663 47.7798 64.8493 47.2235 65.3384L38.677 63.2371C37.8086 63.0263 36.8986 63.2956 36.2701 63.9509C35.6376 64.6086 35.3816 65.5561 35.5846 66.4616L37.5978 75.3766C37.1308 75.9544 36.6686 76.5384 36.2156 77.1301L27.4398 76.8113C26.5541 76.7851 25.7088 77.2274 25.2138 78.0001C24.7183 78.7689 24.6433 79.7536 25.0116 80.6014L28.6476 88.9186C28.2945 89.5866 27.9436 90.2599 27.6061 90.9436L18.9583 92.4111C18.08 92.5591 17.34 93.1721 16.9983 94.0294C16.6583 94.8889 16.77 95.8683 17.2866 96.6219L22.4033 104.03C22.3633 104.161 22.3266 104.293 22.2866 104.424L7.82499 119.786C7.82499 119.786 5.60998 121.523 8.83664 125.605C11.6816 129.206 26.2906 143.481 34.0063 150.959C37.2653 154.756 39.4976 157.107 39.7311 156.904C40.0991 156.58 38.1666 149.673 31.7475 141.568C26.8 134.297 20.3783 123.113 21.885 121.824C21.885 121.824 23.5966 119.65 27.0338 118.085C26.9036 117.985 27.1593 118.185 27.0338 118.085C27.0338 118.085 99.5591 151.54 166.833 118.651C174.518 117.272 179.17 121.389 179.17 121.389C180.775 122.319 176.62 133.819 173.204 141.431C168.557 150.075 167.876 156.82 168.27 157.054C168.519 157.202 170.209 154.63 172.621 150.536C178.571 142.244 189.819 126.438 191.878 122.599C194.213 118.246 191.878 117.026 191.878 117.026Z" fill="#F74C00"/>
<path d="M75.0547 138.493C74.7774 138.256 74.632 138.116 74.632 138.116L98.389 136.17C79.0102 110.605 63.485 130.97 61.8325 133.247V138.493H75.0547Z" fill="black"/>
<path d="M124.52 138.218C124.797 137.981 124.943 137.84 124.943 137.84L102.112 136.17C121.5 109.555 136.09 130.695 137.742 132.972V138.218H124.52Z" fill="black"/>
<path d="M161.016 112.837C161.016 112.837 158.42 123.177 142.273 134.043L137.746 135.104C137.746 135.104 123.099 108.394 102.349 138.493C102.349 138.493 108.816 134.728 126.152 139.313C126.152 139.313 118.177 151.52 102.112 151.145C102.112 151.145 117.507 169.615 140.935 142.936C140.935 142.936 165.701 133.359 167.71 112.837H161.016Z" fill="#F74C00"/>
<path d="M112.899 99.5911C112.899 99.5911 120.146 91.6553 127.394 99.5911C127.394 99.5911 133.089 110.173 127.394 115.463C127.394 115.463 118.076 122.871 112.899 115.463C112.899 115.463 106.686 109.643 112.899 99.5911Z" fill="black"/>
<path d="M127.886 103.535C127.886 106.625 126.064 109.13 123.818 109.13C121.572 109.13 119.75 106.625 119.75 103.535C119.75 100.445 121.572 97.9395 123.818 97.9395C126.064 97.9395 127.886 100.445 127.886 103.535Z" fill="white"/>
<path d="M80.55 97.4241C80.55 97.4241 92.9826 91.9194 96.376 104.206C96.376 104.206 99.9305 118.527 86.1661 119.335C86.1661 119.335 68.6145 115.955 80.55 97.4241Z" fill="black"/>
<path d="M93.3907 103.738C93.3907 106.924 91.5123 109.509 89.1952 109.509C86.8788 109.509 85 106.924 85 103.738C85 100.551 86.8788 97.9667 89.1952 97.9667C91.5123 97.9667 93.3907 100.551 93.3907 103.738Z" fill="white"/>
<path d="M73.5662 140.422C88.8717 138.493 97.7169 138.313 97.7169 138.313C77.239 111.299 60.6227 135.756 60.6227 135.756C56.459 134.267 52.2139 128.487 49.0432 123.158L36.337 119.394C50.9825 144.251 61.8862 144.63 61.8862 144.63C84.5885 173.728 95.3434 150.346 95.3434 150.346C82.5987 148.899 73.5662 140.422 73.5662 140.422Z" fill="#F74C00"/>
</svg>
