<svg width="200" height="200" viewBox="0 0 200 200" fill="none" xmlns="http://www.w3.org/2000/svg">
<path d="M84.0002 21.0393C85.662 18.2814 88.0084 15.9999 90.8118 14.4161C93.6152 12.8323 96.7804 12 100 12C103.22 12 106.385 12.8323 109.189 14.4161C111.992 15.9999 114.338 18.2814 116 21.0393L142.32 66.1193C122.213 76.1581 105.081 91.2819 92.6261 109.989C80.171 128.696 72.826 150.336 71.3202 172.759H89.8002C91.3032 153.538 97.7992 135.043 108.645 119.103C119.492 103.163 134.312 90.3322 151.64 81.8793L176 123.999C166.259 128.368 157.772 135.116 151.321 143.622C144.869 152.129 140.66 162.121 139.08 172.679H181.52C182.024 172.644 182.51 172.483 182.936 172.213C183.362 171.942 183.714 171.57 183.96 171.129C184.206 170.689 184.338 170.194 184.345 169.689C184.352 169.185 184.234 168.687 184 168.239L172.24 148.239C176.224 144.915 180.778 142.34 185.68 140.639L197.32 160.639C198.532 162.718 199.319 165.016 199.635 167.402C199.95 169.787 199.789 172.211 199.16 174.533C198.531 176.855 197.447 179.03 195.971 180.929C194.494 182.829 192.655 184.416 190.56 185.599C187.8 187.155 184.689 187.981 181.52 187.999H123.4C122.321 174.68 124.699 161.307 130.306 149.176C135.912 137.046 144.556 126.568 155.4 118.759L146.16 102.759C132.474 112.159 121.476 124.965 114.251 139.913C107.026 154.862 103.824 171.435 104.96 187.999H55.7202C54.5735 162.907 60.0323 137.954 71.551 115.632C83.0697 93.3108 100.245 74.4034 121.36 60.7993L102.68 28.7993C102.264 28.1019 101.589 27.5971 100.803 27.3949C100.016 27.1926 99.1813 27.3092 98.4802 27.7193C97.3708 28.3264 62.2321 68.1359 45 97.5C29.9831 123.089 16.5457 167.637 15.8402 168.399C15.5795 168.867 15.4468 169.395 15.4556 169.93C15.4645 170.465 15.6145 170.989 15.8905 171.447C16.1665 171.906 16.5587 172.284 17.0275 172.542C17.4963 172.801 18.025 172.931 18.5602 172.919H37.6002C37.3602 178.013 37.3602 183.093 37.6002 188.159H18.4802C16.0523 188.175 13.6454 187.709 11.3987 186.789C9.15207 185.868 7.11031 184.511 5.39163 182.796C3.67296 181.081 2.3115 179.042 1.38606 176.798C0.460625 174.553 -0.0104177 172.147 0.000213623 169.719C-0.00216738 166.512 0.854146 163.363 2.48021 160.599C2.48021 160.599 19.0932 113.77 35 86.5C51.0171 59.0412 84.0002 21.0393 84.0002 21.0393Z" fill="#362D59"/>
</svg>
