<svg width="200" height="200" viewBox="0 0 200 200" fill="none" xmlns="http://www.w3.org/2000/svg">
<path d="M84.0002 21.0401C85.662 18.2822 88.0084 16.0006 90.8118 14.4168C93.6152 12.833 96.7804 12.0007 100 12.0007C103.22 12.0007 106.385 12.833 109.189 14.4168C111.992 16.0006 114.338 18.2822 116 21.0401L142.32 66.1201C122.213 76.1588 105.081 91.2826 92.6261 109.99C80.171 128.697 72.826 150.336 71.3202 172.76H89.8002C91.3032 153.539 97.7992 135.043 108.645 119.104C119.492 103.164 134.312 90.3329 151.64 81.8801L176 124C166.259 128.369 157.772 135.117 151.321 143.623C144.869 152.13 140.66 162.121 139.08 172.68H181.52C182.024 172.644 182.51 172.484 182.936 172.214C183.362 171.943 183.714 171.571 183.96 171.13C184.206 170.69 184.338 170.195 184.345 169.69C184.352 169.186 184.234 168.687 184 168.24L172.24 148.24C176.224 144.916 180.778 142.341 185.68 140.64L197.32 160.64C198.532 162.719 199.319 165.017 199.635 167.402C199.95 169.787 199.789 172.212 199.16 174.534C198.531 176.856 197.447 179.03 195.971 180.93C194.494 182.83 192.655 184.417 190.56 185.6C187.8 187.155 184.689 187.981 181.52 188H123.4C122.321 174.68 124.699 161.308 130.306 149.177C135.912 137.046 144.556 126.569 155.4 118.76L146.16 102.76C132.474 112.16 121.476 124.966 114.251 139.914C107.026 154.862 103.824 171.436 104.96 188H55.7202C54.5735 162.908 60.0323 137.954 71.551 115.633C83.0697 93.3116 100.245 74.4041 121.36 60.8001L102.68 28.8001C102.264 28.1027 101.589 27.5979 100.803 27.3956C100.016 27.1933 99.1813 27.31 98.4802 27.7201C96.3602 28.8801 17.3202 166.8 15.8402 168.4C15.5795 168.868 15.4468 169.396 15.4556 169.931C15.4645 170.466 15.6145 170.99 15.8905 171.448C16.1665 171.907 16.5587 172.285 17.0275 172.543C17.4963 172.801 18.025 172.932 18.5602 172.92H37.6002C37.3602 178.013 37.3602 183.093 37.6002 188.16H18.4802C16.0523 188.176 13.6454 187.71 11.3987 186.79C9.15207 185.869 7.11031 184.512 5.39163 182.797C3.67296 181.082 2.3115 179.043 1.38606 176.799C0.460625 174.554 -0.0104177 172.148 0.000213623 169.72C-0.00216738 166.513 0.854146 163.364 2.48021 160.6L84.0002 21.0401Z" fill="#2B2233"/>
<path d="M174.5 152L157 121.65L170.25 114L187 143L174.5 152Z" fill="#2B2233"/>
</svg>
